<?xml version="1.0" standalone="no"?>
<!DOCTYPE svg PUBLIC "-//W3C//DTD SVG 20010904//EN"
 "http://www.w3.org/TR/2001/REC-SVG-20010904/DTD/svg10.dtd">
<svg version="1.0" xmlns="http://www.w3.org/2000/svg"
 width="326.000000pt" height="154.000000pt" viewBox="0 0 326.000000 154.000000"
 preserveAspectRatio="xMidYMid meet">

<g transform="translate(0.000000,154.000000) scale(0.100000,-0.100000)"
fill="#000000" stroke="none">
<path d="M1971 1023 c-6 -10 -11 -13 -11 -6 0 15 -29 10 -41 -8 -5 -8 -9 -9
-9 -3 0 18 -60 4 -61 -15 0 -9 -3 -11 -5 -5 -7 17 -46 4 -40 -12 3 -8 2 -13
-2 -13 -17 3 -30 -2 -50 -22 -13 -11 -53 -32 -90 -46 -54 -20 -84 -25 -152
-25 -54 1 -79 -2 -70 -8 11 -7 10 -9 -7 -7 -12 0 -20 4 -18 7 2 4 -11 7 -30 8
-19 1 -37 -3 -40 -8 -3 -6 -14 -10 -23 -9 -11 0 -12 3 -4 6 25 10 11 25 -19
21 -17 -3 -55 1 -84 7 -50 12 -53 12 -63 -9 -6 -12 -11 -15 -11 -7 -1 11 -6
10 -21 -4 -22 -20 -26 -14 -9 17 7 14 8 18 0 14 -5 -4 -19 -1 -30 6 -17 10
-23 10 -33 0 -10 -10 -10 -15 2 -22 13 -8 12 -10 -3 -10 -10 0 -15 -5 -12 -10
4 -6 16 -8 28 -4 21 6 21 6 3 -8 -20 -16 -15 -38 10 -38 8 0 14 -4 14 -9 0
-13 -49 -20 -57 -8 -4 6 -1 7 7 2 9 -6 10 -2 5 16 -16 52 -30 47 -25 -8 1 -13
-4 -23 -10 -23 -6 0 -8 5 -4 11 4 7 1 10 -7 7 -8 -3 -29 6 -48 20 -19 14 -31
21 -28 15 4 -6 -1 -17 -9 -24 -15 -12 -16 -10 -10 19 6 23 4 32 -5 32 -7 0
-10 3 -6 6 3 3 12 2 19 -2 19 -12 38 -14 38 -3 0 5 -6 9 -14 9 -8 0 -17 8 -20
17 -6 15 -8 15 -17 3 -7 -11 -8 -5 -4 18 4 26 2 32 -12 32 -10 0 -29 3 -42 7
-23 6 -23 5 -7 -19 14 -21 14 -25 1 -25 -8 0 -12 4 -9 9 3 4 -2 15 -10 24 -9
8 -16 12 -16 8 0 -3 -8 0 -17 7 -11 10 -14 10 -9 2 4 -7 3 -13 -3 -13 -5 0
-11 5 -13 10 -2 6 -18 13 -36 15 -33 4 -35 2 -33 -45 0 -25 0 -25 -10 3 -12
30 -45 39 -35 10 6 -17 5 -17 -7 -2 -11 15 -16 15 -37 3 l-25 -13 26 -1 c31 0
86 -39 57 -40 -10 0 -18 6 -18 13 0 8 -4 7 -11 -3 -9 -13 -10 -12 -5 3 4 12 0
17 -14 17 -13 0 -19 -6 -18 -17 4 -50 -14 -74 -25 -34 -3 14 -11 18 -28 15
-13 -2 -17 -1 -9 2 8 4 18 12 22 18 6 8 8 8 8 0 0 -7 7 -14 15 -18 22 -8 18 7
-5 22 -17 11 -28 9 -67 -8 -49 -21 -67 -25 -59 -12 3 5 -1 9 -9 9 -18 0 -20
-14 -2 -20 21 -7 0 -19 -35 -19 -32 0 -34 -3 -56 -67 -12 -36 -30 -93 -39
-126 -9 -33 -25 -68 -35 -78 -11 -11 -18 -26 -16 -35 2 -10 -5 -24 -15 -32 -9
-8 -19 -30 -20 -47 -2 -34 -13 -40 -86 -48 -14 -2 -49 -6 -78 -10 l-52 -8 1
-152 1 -153 46 -16 46 -16 -47 5 -48 6 0 -35 c0 -20 5 -36 11 -36 5 0 7 5 4
10 -4 7 19 10 67 9 40 -1 86 4 101 10 40 16 70 13 33 -3 l-28 -13 23 -6 c13
-4 556 -7 1207 -7 939 0 1182 3 1182 13 0 9 3 8 9 -2 7 -11 9 -11 13 0 4 11
10 11 24 3 11 -6 28 -8 39 -3 11 4 15 8 9 8 -7 1 -14 8 -18 16 -4 10 1 15 14
15 13 0 20 -7 20 -19 0 -24 16 -36 23 -19 4 10 6 10 6 1 1 -17 48 -17 54 0 4
9 6 9 6 0 1 -7 8 -13 18 -13 14 0 14 2 -3 21 -19 22 -19 22 5 9 13 -6 39 -10
57 -8 19 2 34 1 34 -2 0 -10 9 -10 188 -16 144 -5 162 -4 162 10 0 12 -11 16
-42 17 -24 1 -54 5 -68 9 -23 7 -23 8 -3 9 12 1 25 6 28 11 3 5 24 10 46 10
32 0 39 4 39 19 0 11 -6 22 -12 24 -10 4 -10 6 0 6 6 1 12 7 12 15 0 8 -6 17
-12 19 -10 4 -10 6 0 6 6 1 12 13 12 27 0 24 -3 26 -34 22 -19 -2 -32 0 -30 4
3 4 1 8 -5 8 -5 0 -11 -5 -13 -12 -3 -7 -10 -8 -17 -4 -11 7 -11 10 0 17 11 7
10 9 -3 9 -10 0 -18 4 -18 9 0 9 29 6 60 -7 31 -12 60 -11 60 3 0 7 -6 16 -12
18 -10 4 -10 6 0 6 7 1 10 5 7 11 -11 17 -25 11 -25 -11 0 -17 -4 -20 -22 -15
-13 3 -30 6 -38 6 -19 0 -1 17 25 22 19 5 19 5 2 13 -12 5 -22 2 -30 -8 -15
-19 -64 -30 -72 -17 -10 15 -45 12 -45 -5 0 -9 -6 -12 -15 -8 -13 5 -13 8 5
20 14 10 33 13 59 8 49 -8 64 10 16 19 -42 8 -38 25 4 20 18 -2 36 3 46 12 8
8 15 11 15 5 0 -6 5 -11 11 -11 5 0 7 5 4 10 -3 6 4 10 16 10 17 0 20 3 11 12
-6 6 -26 11 -44 10 -23 -1 -28 2 -18 8 13 8 12 10 -2 10 -14 0 -16 5 -9 23 11
29 4 47 -20 47 -13 0 -19 7 -19 24 0 13 -7 26 -15 30 -12 4 -14 0 -9 -22 4
-15 11 -28 16 -30 4 -2 8 -10 8 -18 0 -12 -4 -13 -22 -3 -27 15 -28 14 -39 -2
-4 -7 -10 7 -14 37 -3 27 -8 57 -10 67 -2 9 1 15 6 11 5 -3 6 2 3 10 -3 9 -10
16 -16 16 -5 0 -6 4 -3 10 3 5 -1 20 -9 32 -8 13 -18 39 -21 59 -6 30 -10 36
-26 32 -15 -4 -19 0 -19 18 0 20 -2 21 -11 9 -8 -12 -9 -10 -7 10 2 14 9 24
15 23 6 -1 9 6 6 17 -7 28 -15 31 -38 14 -16 -12 -17 -14 -2 -14 17 0 22 -11
11 -23 -4 -4 -16 3 -26 15 -19 22 -19 22 4 31 19 7 20 10 8 17 -24 16 -53 12
-46 -5 4 -12 2 -13 -13 -5 -15 7 -22 5 -35 -13 -13 -18 -14 -18 -9 -3 4 13 3
17 -5 12 -15 -9 -23 7 -11 24 5 9 9 10 9 4 0 -7 11 -11 25 -10 37 2 30 10 -20
24 -61 16 -75 15 -74 -5 0 -11 3 -13 6 -6 3 10 8 10 19 -1 19 -20 18 -25 -6
-19 -12 3 -27 17 -35 32 -8 14 -14 21 -15 15 0 -5 -7 -19 -16 -30 -14 -18 -15
-18 -9 6 6 24 6 25 -10 5 -9 -11 -14 -28 -11 -37 2 -10 1 -20 -4 -23 -4 -3
-10 9 -12 25 -3 17 -1 30 4 30 4 0 8 4 8 8 0 4 -19 13 -42 19 -24 7 -52 15
-62 19 -15 6 -17 4 -11 -7 5 -8 5 -11 -1 -6 -5 5 -9 14 -9 20 0 7 -9 11 -18
11 -10 -1 -16 1 -12 4 5 5 -107 52 -126 52 -5 0 -4 -11 3 -25 6 -13 14 -22 18
-20 4 3 13 -15 19 -40 8 -32 16 -45 29 -45 14 0 15 -2 2 -10 -9 -5 -19 -5 -27
2 -7 5 -19 8 -27 5 -8 -3 -16 2 -19 14 -6 22 3 25 21 7 9 -9 12 -7 12 10 0 26
-41 72 -64 72 -25 0 -66 22 -66 37 0 7 8 13 18 12 11 0 13 -2 4 -6 -10 -4 -7
-9 10 -18 24 -12 38 -10 38 5 0 10 -57 37 -99 46 l-26 6 23 -16 c12 -10 21
-27 21 -39 -1 -17 -2 -18 -6 -4 -5 20 -10 21 -27 5 -14 -13 -9 -58 6 -58 5 0
7 8 3 19 -4 15 0 19 19 19 21 0 24 -3 16 -19 -13 -23 9 -39 22 -15 12 22 44
20 68 -4 l20 -20 -35 -1 c-19 -1 -41 -2 -47 -4 -7 -1 -23 4 -34 11 -18 11 -25
10 -44 -3 -22 -16 -23 -15 -18 3 7 26 -20 53 -33 33 -8 -11 -9 -9 -7 6 2 13
-2 19 -11 17 -12 -3 -12 0 -1 12 7 10 8 16 2 16 -6 0 -14 -4 -17 -10 -7 -12
-45 10 -45 26 0 7 7 14 15 18 19 7 19 26 0 26 -24 0 -30 -49 -10 -87 10 -18
16 -36 13 -39 -3 -3 -12 9 -19 25 -8 17 -17 31 -21 31 -5 0 -8 11 -8 24 0 35
-26 39 -50 8 l-20 -27 10 29 c13 35 -2 58 -19 29z m-71 -30 c0 -1 -8 -7 -18
-12 -13 -7 -19 -6 -19 2 0 7 9 13 19 13 10 0 18 -1 18 -3z m140 -2 c0 -6 -4
-13 -10 -16 -5 -3 -10 1 -10 9 0 9 5 16 10 16 6 0 10 -4 10 -9z m-114 -38
c-10 -10 -19 5 -10 18 6 11 8 11 12 0 2 -7 1 -15 -2 -18z m-1198 -60 c14 -11
14 -13 2 -11 -22 4 -30 19 -28 53 l1 30 4 -30 c3 -16 12 -35 21 -42z m1107 48
c-3 -5 -1 -12 5 -16 15 -10 12 -52 -5 -59 -8 -3 -15 -1 -15 3 0 5 6 11 13 14
9 3 9 9 -1 26 -11 20 -9 41 4 41 3 0 3 -4 -1 -9z m65 1 c0 -5 -6 -16 -13 -27
-11 -14 -16 -15 -22 -5 -6 9 -4 11 5 5 10 -6 12 -4 7 7 -6 17 0 28 15 28 4 0
8 -4 8 -8z m30 -29 c0 -19 -13 -9 -16 12 -1 8 2 13 7 9 5 -3 9 -12 9 -21z
m476 13 c3 -8 16 -12 32 -9 23 3 24 2 7 -6 -30 -14 -39 -13 -53 9 -7 13 -8 20
-2 20 6 0 13 -6 16 -14z m-440 -26 c0 -16 -4 -30 -8 -30 -5 0 -8 14 -8 30 0
17 4 30 9 30 5 0 8 -13 7 -30z m171 3 c0 -7 -4 -13 -8 -13 -4 0 -9 6 -12 13
-3 8 0 14 7 14 7 0 13 -6 13 -14z m309 -27 c1 -18 -3 -24 -17 -23 -22 1 -22 2
-9 28 14 26 25 24 26 -5z m37 -5 c3 -12 0 -18 -7 -15 -6 2 -12 13 -12 24 0 23
12 17 19 -9z m-1703 9 c0 -5 -4 -10 -10 -10 -5 0 -10 5 -10 10 0 6 5 10 10 10
6 0 10 -4 10 -10z m25 -29 c-3 -5 1 -12 7 -14 8 -3 6 -6 -4 -6 -10 -1 -18 4
-18 10 0 5 -5 7 -10 4 -6 -4 -5 5 2 20 10 22 13 23 20 10 5 -8 7 -19 3 -24z
m65 35 c0 -9 -30 -14 -35 -6 -4 6 3 10 14 10 12 0 21 -2 21 -4z m1048 -32 c-4
-3 -12 5 -18 18 -12 22 -12 22 6 6 10 -10 15 -20 12 -24z m-672 1 c6 -8 17
-15 25 -15 11 0 11 2 -1 10 -13 8 -12 10 3 10 19 0 23 -19 5 -24 -43 -13 -85
-13 -85 0 0 8 4 14 9 14 5 0 6 5 3 10 -4 6 -11 7 -17 4 -6 -4 -8 -2 -4 4 9 14
48 6 62 -13z m621 3 c-3 -8 -6 -5 -6 6 -1 11 2 17 5 13 3 -3 4 -12 1 -19z
m-1201 4 c17 -11 24 -74 7 -68 -12 5 -18 -13 -14 -37 1 -5 -3 -6 -8 -3 -5 4
-12 0 -15 -6 -3 -7 -3 -2 0 11 4 16 3 21 -5 17 -7 -4 -11 1 -11 13 0 12 5 21
11 21 5 0 7 -6 3 -12 -5 -8 0 -7 11 2 16 13 16 15 2 18 -10 2 -17 9 -17 15 0
7 -4 6 -10 -3 -7 -11 -10 -11 -10 -2 0 16 21 41 35 41 6 1 15 -3 21 -7z m62
-4 c19 -19 14 -29 -8 -16 -20 13 -27 28 -12 28 4 0 13 -5 20 -12z m-262 -51
c-14 -22 -20 -4 -11 31 7 25 8 25 15 7 4 -11 2 -28 -4 -38z m1822 34 c3 -10 0
-10 -17 -2 -25 14 -27 20 -4 17 9 -2 19 -8 21 -15z m279 -13 c1 -18 -1 -25 -4
-15 -2 9 -8 15 -12 13 -4 -3 -8 4 -8 15 -1 10 4 19 10 19 7 0 13 -14 14 -32z
m-1417 12 c0 -5 -2 -10 -4 -10 -3 0 -8 5 -11 10 -3 6 -1 10 4 10 6 0 11 -4 11
-10z m655 -9 c-3 -6 -11 -8 -17 -5 -6 4 -5 9 3 15 16 10 23 4 14 -10z m715 -1
c-10 -6 -11 -10 -3 -10 7 0 10 -7 6 -17 -5 -14 -8 -12 -15 7 -8 22 8 47 21 34
3 -3 -1 -9 -9 -14z m-1435 0 c3 -5 2 -10 -4 -10 -5 0 -13 5 -16 10 -3 6 -2 10
4 10 5 0 13 -4 16 -10z m39 1 c3 -5 -1 -11 -9 -14 -9 -4 -12 -1 -8 9 6 16 10
17 17 5z m804 -14 c-10 -20 -20 -16 -24 8 -1 8 6 13 16 12 15 -1 17 -5 8 -20z
m543 0 c-10 -9 -11 -8 -5 6 3 10 9 15 12 12 3 -3 0 -11 -7 -18z m-1941 9 c0
-3 -4 -8 -10 -11 -5 -3 -10 -1 -10 4 0 6 5 11 10 11 6 0 10 -2 10 -4z m55 -6
c-3 -5 -12 -10 -20 -10 -8 0 -17 5 -20 10 -4 6 5 10 20 10 15 0 24 -4 20 -10z
m732 4 c-3 -3 -12 -4 -19 -1 -8 3 -5 6 6 6 11 1 17 -2 13 -5z m1403 -26 c0 -5
-7 -3 -15 6 -8 8 -15 18 -15 22 0 3 7 1 15 -6 8 -7 15 -17 15 -22z m-424 8
c10 -8 17 -17 14 -19 -3 -3 -16 3 -29 14 -27 22 -15 26 15 5z m48 -1 c3 -9 0
-15 -9 -15 -8 0 -15 7 -15 15 0 8 4 15 9 15 5 0 11 -7 15 -15z m336 -5 c0 -5
-2 -10 -4 -10 -3 0 -8 5 -11 10 -3 6 -1 10 4 10 6 0 11 -4 11 -10z m-2186 -35
c5 -23 4 -27 -4 -15 -9 12 -10 8 -5 -15 3 -16 -1 -50 -8 -75 -14 -44 -14 -44
-22 -18 -4 16 -11 25 -16 23 -4 -3 -6 -12 -2 -20 3 -8 1 -15 -5 -15 -5 0 -12
9 -15 21 -3 12 -10 18 -16 14 -8 -4 -8 -12 -1 -25 8 -16 8 -18 -5 -14 -16 6
-20 26 -8 38 4 4 8 19 9 34 2 43 3 45 24 39 11 -3 18 -2 16 1 -2 4 0 16 5 27
7 19 8 19 8 -2 1 -34 18 -28 25 9 7 36 11 35 20 -7z m56 15 c0 -10 -31 -22
-38 -15 -3 3 0 5 6 5 6 0 9 7 6 15 -5 11 -2 13 10 9 9 -3 16 -10 16 -14z
m1920 10 c0 -5 -5 -10 -11 -10 -5 0 -7 5 -4 10 3 6 8 10 11 10 2 0 4 -4 4 -10z
m402 -22 c4 -8 2 -17 -5 -23 -17 -14 -18 -32 -2 -32 8 0 12 4 9 9 -3 4 0 8 5
8 6 0 11 -12 12 -27 0 -25 1 -26 9 -8 8 19 9 19 9 -2 1 -14 -5 -23 -14 -23 -8
0 -15 5 -15 11 0 5 -5 7 -10 4 -6 -4 -7 -12 -3 -18 4 -7 -1 -5 -11 3 -14 11
-17 23 -13 52 3 21 2 36 -3 33 -4 -3 -10 4 -13 14 -4 15 0 19 16 15 11 -2 24
-9 29 -16z m-428 -5 c19 -12 19 -12 0 -19 -10 -4 -22 -12 -26 -18 -5 -8 -8 -7
-8 1 0 7 8 17 18 22 15 9 14 11 -8 12 -14 1 -28 1 -32 0 -5 0 -8 3 -8 8 0 14
41 10 64 -6z m252 1 c19 -13 22 -20 13 -30 -6 -7 -8 -18 -4 -23 3 -7 0 -8 -9
-5 -18 7 -21 21 -6 26 6 2 2 13 -10 26 -25 26 -19 28 16 6z m-1679 -16 c-3 -8
-6 -5 -6 6 -1 11 2 17 5 13 3 -3 4 -12 1 -19z m1809 -47 c1 -17 -4 -28 -12
-28 -11 0 -11 3 -2 14 9 11 9 16 -1 23 -8 4 -10 13 -6 20 10 16 20 3 21 -29z
m-172 13 c3 -7 -2 -11 -12 -10 -9 2 -17 7 -19 13 -5 14 25 12 31 -3z m-2096
-25 c-6 -16 -12 -29 -13 -27 -6 6 8 58 16 58 4 0 3 -14 -3 -31z m2223 14 c13
-17 13 -17 -6 -3 -11 8 -22 16 -24 17 -2 2 0 3 6 3 6 0 17 -8 24 -17z m-2264
-15 c-3 -8 -6 -5 -6 6 -1 11 2 17 5 13 3 -3 4 -12 1 -19z m368 2 c3 -5 1 -10
-4 -10 -6 0 -11 5 -11 10 0 6 2 10 4 10 3 0 8 -4 11 -10z m34 -55 l0 -20 -9
20 c-5 11 -9 27 -9 35 -1 13 0 13 9 0 5 -8 9 -24 9 -35z m1864 20 c-7 -19 -19
-19 -26 -1 -3 8 -1 17 6 19 18 6 27 -2 20 -18z m-1806 -7 c-3 -8 -6 -5 -6 6
-1 11 2 17 5 13 3 -3 4 -12 1 -19z m33 12 c0 -5 -5 -10 -11 -10 -5 0 -7 5 -4
10 3 6 8 10 11 10 2 0 4 -4 4 -10z m-313 -32 c-3 -7 -5 -2 -5 12 0 14 2 19 5
13 2 -7 2 -19 0 -25z m178 -22 c-4 -20 -12 -36 -17 -36 -6 0 -8 13 -4 31 3 17
6 39 6 47 0 11 3 13 11 5 6 -6 8 -25 4 -47z m22 12 c-3 -8 -6 -5 -6 6 -1 11 2
17 5 13 3 -3 4 -12 1 -19z m-380 -10 c-3 -8 -6 -5 -6 6 -1 11 2 17 5 13 3 -3
4 -12 1 -19z m230 0 c-3 -8 -6 -5 -6 6 -1 11 2 17 5 13 3 -3 4 -12 1 -19z
m2167 7 c-4 -8 -8 -15 -10 -15 -2 0 -4 7 -4 15 0 8 4 15 10 15 5 0 7 -7 4 -15z
m-2467 -27 c-3 -7 -5 -2 -5 12 0 14 2 19 5 13 2 -7 2 -19 0 -25z m97 -3 c4
-19 3 -25 -2 -17 -7 11 -11 7 -16 -13 -4 -15 -9 -25 -12 -22 -3 3 0 24 7 46 7
23 13 40 14 39 1 -2 5 -16 9 -33z m1644 -26 c3 77 13 37 13 -53 0 -47 4 -86 9
-86 4 0 10 -7 14 -15 7 -19 1 -19 -18 1 -9 8 -17 32 -17 52 l-1 37 -8 -30 c-5
-20 -8 0 -7 60 0 75 1 82 7 40 l7 -50 1 44z m100 -49 c3 -92 -6 -136 -18 -85
-14 54 -11 177 3 173 8 -3 13 -32 15 -88z m-71 23 c-3 -10 -5 -4 -5 12 0 17 2
24 5 18 2 -7 2 -21 0 -30z m-1370 -5 c-3 -7 -5 -2 -5 12 0 14 2 19 5 13 2 -7
2 -19 0 -25z m-140 0 c-3 -8 -6 -5 -6 6 -1 11 2 17 5 13 3 -3 4 -12 1 -19z
m1650 0 c-3 -8 -6 -5 -6 6 -1 11 2 17 5 13 3 -3 4 -12 1 -19z m-1520 -40 c-3
-8 -6 -5 -6 6 -1 11 2 17 5 13 3 -3 4 -12 1 -19z m1286 -47 c-1 -2 -9 2 -17 8
-12 10 -13 16 -3 32 11 19 12 18 18 -8 3 -15 4 -30 2 -32z m114 12 c-3 -10 -5
-2 -5 17 0 19 2 27 5 18 2 -10 2 -26 0 -35z m-87 21 c0 -8 -5 -12 -10 -9 -6 4
-8 11 -5 16 9 14 15 11 15 -7z m-1769 -17 c-10 -9 -11 -8 -5 6 3 10 9 15 12
12 3 -3 0 -11 -7 -18z m44 5 c-3 -3 -11 0 -18 7 -9 10 -8 11 6 5 10 -3 15 -9
12 -12z m595 -3 c0 -6 -4 -7 -10 -4 -5 3 -10 11 -10 16 0 6 5 7 10 4 6 -3 10
-11 10 -16z m1197 -11 c-3 -7 -5 -2 -5 12 0 14 2 19 5 13 2 -7 2 -19 0 -25z
m240 -20 c-2 -13 -4 -5 -4 17 -1 22 1 32 4 23 2 -10 2 -28 0 -40z m-1962 32
c3 -5 1 -10 -4 -10 -6 0 -11 5 -11 10 0 6 2 10 4 10 3 0 8 -4 11 -10z m1852
-12 c-3 -8 -6 -5 -6 6 -1 11 2 17 5 13 3 -3 4 -12 1 -19z m-350 -10 c-3 -8 -6
-5 -6 6 -1 11 2 17 5 13 3 -3 4 -12 1 -19z m-1388 -4 c6 4 20 4 32 1 19 -6 19
-8 4 -25 -13 -14 -13 -19 -3 -23 7 -3 -1 -6 -19 -6 -20 -1 -35 5 -41 15 -11
20 -3 62 8 44 4 -7 13 -9 19 -6z m149 -9 c27 -8 24 -28 -4 -34 -16 -3 -17 -1
-4 14 13 15 11 17 -15 13 -17 -2 -30 2 -33 11 -3 9 2 11 14 8 11 -3 29 -8 42
-12z m1501 -35 c-1 -27 -7 -50 -12 -50 -6 0 -7 16 -3 38 3 20 6 43 6 50 0 6 2
12 5 12 3 0 5 -22 4 -50z m-1904 24 c14 -9 25 -12 25 -8 0 5 4 3 8 -4 5 -6 27
-13 50 -15 65 -4 61 -17 -6 -17 -50 0 -65 4 -86 24 -40 36 -34 48 9 20z m496
-14 c5 0 9 -5 9 -12 0 -9 -3 -9 -12 0 -7 7 -16 8 -23 2 -6 -5 -16 -5 -25 0
-13 9 -13 10 0 10 13 0 13 1 0 11 -12 8 -10 9 8 4 14 -4 22 -2 23 7 1 7 3 5 6
-4 2 -10 9 -18 14 -18z m1234 1 c-6 -5 -25 10 -25 20 0 5 6 4 14 -3 8 -7 12
-15 11 -17z m-1395 -1 c-20 -13 -33 -13 -25 0 3 6 14 10 23 10 15 0 15 -2 2
-10z m205 -8 c-3 -3 -11 0 -18 7 -9 10 -8 11 6 5 10 -3 15 -9 12 -12z m1265
14 c0 -2 -8 -10 -17 -17 -16 -13 -17 -12 -4 4 13 16 21 21 21 13z m-1107 -13
c-12 -3 -24 -14 -27 -29 -4 -13 -10 -24 -15 -24 -14 0 -23 34 -10 39 8 2 8 5
-1 11 -7 4 7 7 31 7 24 0 34 -2 22 -4z m-965 -22 c11 -7 10 -9 -3 -14 -9 -4
-14 -3 -10 2 3 5 -1 12 -7 14 -7 3 -8 6 -3 6 6 0 16 -3 23 -8z m982 5 c0 -2
-7 -6 -15 -10 -8 -3 -15 -1 -15 4 0 6 7 10 15 10 8 0 15 -2 15 -4z m-880 -16
c0 -5 -5 -10 -11 -10 -5 0 -7 5 -4 10 3 6 8 10 11 10 2 0 4 -4 4 -10z m1211
-12 c3 -5 31 -13 62 -17 97 -13 74 -19 -73 -20 -77 0 -145 -3 -150 -6 -6 -4
-10 -2 -10 3 0 5 17 12 39 16 27 4 40 12 44 25 4 17 11 19 43 14 22 -3 42 -10
45 -15z m881 0 c-7 -7 -12 -8 -12 -2 0 14 12 26 19 19 2 -3 -1 -11 -7 -17z
m-2192 -28 c0 -5 -12 -10 -27 -10 -22 0 -25 2 -13 10 20 13 40 13 40 0z m960
-1 c121 0 164 -3 140 -9 -38 -10 -216 -15 -320 -10 -36 1 -80 -1 -99 -5 -20
-4 -31 -3 -28 2 4 6 -108 9 -296 7 -244 -2 -307 1 -327 12 -22 12 28 13 365 8
215 -3 469 -5 565 -5z m610 -13 c13 -4 -19 -3 -90 4 -10 1 -9 4 5 9 18 7 37 4
85 -13z m700 -8 c0 -2 -23 -4 -50 -5 -27 0 -47 3 -44 8 3 5 18 9 35 9 16 0 29
5 29 11 0 6 7 4 15 -5 8 -8 15 -16 15 -18z m-480 1 c0 -5 -11 -9 -25 -9 -17 0
-23 4 -19 14 6 15 44 10 44 -5z m325 11 l20 -9 -20 -1 c-73 -6 -166 -8 -162
-4 3 3 32 8 64 11 32 2 60 7 62 9 6 5 12 4 36 -6z m-415 -10 c0 -5 -7 -10 -16
-10 -8 0 -12 5 -9 10 3 6 10 10 16 10 5 0 9 -4 9 -10z m1278 -5 c3 -3 -7 -5
-22 -5 -19 0 -25 -4 -20 -12 6 -10 4 -10 -7 -3 -20 15 -115 18 -169 7 -32 -7
-65 -6 -115 3 l-70 13 57 -1 c32 0 61 3 65 7 8 9 272 0 281 -9z m-1082 -8 c4
-4 -14 -7 -40 -7 -26 0 -45 4 -42 8 6 10 72 9 82 -1z m468 -2 c25 -19 9 -19
-24 0 -14 8 -19 14 -10 14 8 0 24 -6 34 -14z m100 7 c3 -5 -8 -6 -25 -4 -16 2
-29 6 -29 8 0 8 49 4 54 -4z m-2214 -42 c0 -5 -4 -10 -10 -10 -5 0 -10 5 -10
10 0 6 5 10 10 10 6 0 10 -4 10 -10z m593 -17 c-7 -2 -21 -2 -30 0 -10 3 -4 5
12 5 17 0 24 -2 18 -5z m2164 -9 c-3 -3 -12 -4 -19 -1 -8 3 -5 6 6 6 11 1 17
-2 13 -5z m-2964 -14 c-14 -6 -32 -6 -45 0 -19 7 -15 9 22 9 37 0 41 -2 23 -9z
m3007 -4 c0 -3 -4 -8 -10 -11 -5 -3 -10 -1 -10 4 0 6 5 11 10 11 6 0 10 -2 10
-4z m-3085 -46 c-28 -12 -37 -12 -30 0 3 6 16 10 28 9 21 0 21 -1 2 -9z m2955
0 c-8 -5 -24 -9 -35 -9 -16 1 -16 2 5 9 35 11 48 11 30 0z m127 4 c-3 -3 -12
-4 -19 -1 -8 3 -5 6 6 6 11 1 17 -2 13 -5z m-3062 -44 c-27 -12 -43 -12 -25 0
8 5 22 9 30 9 10 0 8 -3 -5 -9z m64 -9 c10 -7 7 -9 -12 -8 -14 1 -23 5 -20 10
6 9 15 9 32 -2z m1289 -36 c-8 -8 -87 8 -82 17 3 5 14 6 24 3 10 -3 21 -1 25
5 4 6 12 5 22 -5 8 -9 14 -18 11 -20z m1237 25 c3 -5 2 -10 -4 -10 -5 0 -13 5
-16 10 -3 6 -2 10 4 10 5 0 13 -4 16 -10z m115 -25 c0 -8 -6 -15 -14 -15 -8 0
-23 -3 -33 -6 -14 -5 -15 -4 -4 4 12 9 12 11 0 14 -8 3 -1 3 15 0 19 -3 26 -1
22 7 -4 6 -2 11 3 11 6 0 11 -7 11 -15z m-113 -1 c-3 -3 -12 -4 -19 -1 -8 3
-5 6 6 6 11 1 17 -2 13 -5z m-2290 -10 c-3 -3 -12 -4 -19 -1 -8 3 -5 6 6 6 11
1 17 -2 13 -5z m1493 -4 c0 -10 -98 -12 -103 -3 -3 5 19 8 49 9 30 0 54 -3 54
-6z m210 -10 c0 -10 -38 -1 -45 10 -2 4 7 5 20 2 14 -2 25 -8 25 -12z m787 14
c-3 -3 -12 -4 -19 -1 -8 3 -5 6 6 6 11 1 17 -2 13 -5z m46 -1 c-7 -2 -19 -2
-25 0 -7 3 -2 5 12 5 14 0 19 -2 13 -5z m102 -3 c13 -5 14 -9 5 -9 -8 0 -24 4
-35 9 -13 5 -14 9 -5 9 8 0 24 -4 35 -9z m-2855 -10 c-14 -4 -38 -8 -55 -8
-29 0 -29 0 -5 8 14 4 39 8 55 8 29 0 29 0 5 -8z m1377 4 c-3 -3 -12 -4 -19
-1 -8 3 -5 6 6 6 11 1 17 -2 13 -5z m1304 -9 c19 -8 27 -14 19 -14 -14 0 -72
28 -59 29 4 0 22 -7 40 -15z m229 5 c0 -5 -2 -10 -4 -10 -3 0 -8 5 -11 10 -3
6 -1 10 4 10 6 0 11 -4 11 -10z m-3000 -10 c0 -5 -4 -10 -9 -10 -6 0 -13 5
-16 10 -3 6 1 10 9 10 9 0 16 -4 16 -10z m297 4 c-3 -3 -12 -4 -19 -1 -8 3 -5
6 6 6 11 1 17 -2 13 -5z m2218 -3 c3 -5 0 -13 -6 -17 -7 -4 -9 -3 -5 4 3 5 0
13 -6 15 -9 4 -10 6 -1 6 6 1 14 -3 18 -8z m-2310 -21 c3 -6 -4 -10 -17 -10
-18 0 -20 2 -8 10 19 12 18 12 25 0z"/>
<path d="M414 707 c-12 -14 -7 -37 8 -37 6 0 8 7 4 15 -3 8 -1 15 4 15 6 0 10
5 10 10 0 14 -13 12 -26 -3z"/>
<path d="M451 694 c0 -11 3 -14 6 -6 3 7 2 16 -1 19 -3 4 -6 -2 -5 -13z"/>
<path d="M598 413 c7 -3 16 -2 19 1 4 3 -2 6 -13 5 -11 0 -14 -3 -6 -6z"/>
<path d="M2112 1004 c-16 -17 -8 -49 9 -38 7 4 8 9 1 13 -14 9 8 26 35 26 28
0 38 -11 18 -19 -9 -3 -13 -2 -10 4 3 6 -1 7 -10 3 -13 -4 -14 -8 -4 -14 7 -4
17 -5 22 -2 5 3 6 -4 2 -17 -6 -20 -5 -21 8 -9 8 8 12 20 9 28 -3 9 -1 12 5 8
7 -5 9 0 6 13 -4 15 -14 20 -42 20 -20 -1 -42 -8 -49 -16z"/>
<path d="M910 927 c0 -7 9 -18 19 -24 16 -10 18 -9 14 7 -6 21 -33 36 -33 17z"/>
<path d="M968 913 c6 -2 9 -10 6 -15 -4 -7 -2 -8 5 -4 13 9 5 26 -12 25 -9 0
-8 -2 1 -6z"/>
<path d="M2293 895 c0 -10 4 -12 12 -5 7 5 15 7 18 3 4 -3 7 -1 7 5 0 7 -8 12
-18 12 -10 0 -19 -7 -19 -15z"/>
<path d="M995 890 c-3 -5 1 -10 10 -10 9 0 13 5 10 10 -3 6 -8 10 -10 10 -2 0
-7 -4 -10 -10z"/>
<path d="M2950 735 c0 -8 5 -15 10 -15 6 0 10 7 10 15 0 8 -4 15 -10 15 -5 0
-10 -7 -10 -15z"/>
<path d="M3051 534 c0 -11 3 -14 6 -6 3 7 2 16 -1 19 -3 4 -6 -2 -5 -13z"/>
<path d="M3041 474 c0 -11 3 -14 6 -6 3 7 2 16 -1 19 -3 4 -6 -2 -5 -13z"/>
<path d="M3188 43 c6 -2 18 -2 25 0 6 3 1 5 -13 5 -14 0 -19 -2 -12 -5z"/>
<path d="M58 3 c7 -3 16 -2 19 1 4 3 -2 6 -13 5 -11 0 -14 -3 -6 -6z"/>
</g>
</svg>
