<?xml version="1.0" encoding="utf-8"?>
<!-- Svg Vector Icons : http://www.onlinewebfonts.com/icon -->
<!DOCTYPE svg PUBLIC "-//W3C//DTD SVG 1.1//EN" "http://www.w3.org/Graphics/SVG/1.1/DTD/svg11.dtd">
<svg version="1.1" xmlns="http://www.w3.org/2000/svg" xmlns:xlink="http://www.w3.org/1999/xlink" x="0px" y="0px" viewBox="0 0 256 256" enable-background="new 0 0 256 256" xml:space="preserve">
<metadata> Svg Vector Icons : http://www.onlinewebfonts.com/icon </metadata>
<g><g><g><path fill="#000000" d="M13.8,42.7c-0.9,0.6-2.2,2-2.7,3.3C10,48.2,10,48.5,10,127.9c0,76.6,0.1,79.8,1,81.8c0.5,1.2,1.8,2.7,2.7,3.4l1.8,1.3h112.6h112.6l1.8-1.4c3.9-2.9,3.6,3.3,3.5-85.9c-0.2-78.9-0.2-80-1.2-81.7c-0.6-0.9-1.8-2.2-2.7-2.8c-1.6-1-3.9-1-114.1-1C15.6,41.6,15.5,41.6,13.8,42.7z M229.2,128.1v70.3l-101.3-0.1l-101.4-0.2L26.4,128l-0.1-70.1h101.4h101.4V128.1L229.2,128.1z"/><path fill="#000000" d="M74.5,85.3c-5.5,1.6-10,5.5-12.5,10.8c-1.2,2.5-1.4,3.6-1.4,7.9c0,4.3,0.2,5.4,1.4,7.9c2.8,5.9,7.9,9.8,14.4,11c8.2,1.5,17-3.1,20.6-10.9c1.2-2.6,1.4-3.7,1.4-8s-0.2-5.4-1.4-8c-3.1-6.6-9.2-10.8-16.3-11.2C78.4,84.7,75.9,84.9,74.5,85.3z"/><path fill="#000000" d="M130.4,123.1c-9.8,15.2-17.9,27.6-18.2,27.8c-0.2,0.2-2.5-0.1-5-0.5c-6.1-1.2-22.7-1.6-28.6-0.8c-6.9,0.9-12.2,2.5-17.7,5.1c-4.1,2-5.7,3.3-9.2,6.7c-2.3,2.3-4.9,5.5-5.7,7c-1.8,3.4-4,9.5-3.7,10.1c0.2,0.2,38.9,0.4,86,0.4c68.2,0,85.7-0.2,85.7-0.7c0-1.2-20.7-62.3-21.1-62.1c-0.2,0.1-3.7,4.8-7.8,10.5l-7.4,10.4l-4.2-5.9c-2.3-3.3-8.8-12.6-14.5-20.7c-5.7-8.1-10.4-14.8-10.6-14.8C148.3,95.6,140.2,108,130.4,123.1z"/></g></g></g>
</svg>