<?xml version="1.0" standalone="no"?>
<!DOCTYPE svg PUBLIC "-//W3C//DTD SVG 20010904//EN"
 "http://www.w3.org/TR/2001/REC-SVG-20010904/DTD/svg10.dtd">
<svg version="1.0" xmlns="http://www.w3.org/2000/svg"
 width="268.000000pt" height="188.000000pt" viewBox="0 0 268.000000 188.000000"
 preserveAspectRatio="xMidYMid meet">

<g transform="translate(0.000000,188.000000) scale(0.100000,-0.100000)"
fill="#000000" stroke="none">
<path d="M2627 1833 c-9 -2 -14 -9 -11 -15 4 -7 2 -8 -5 -4 -15 10 -155 -12
-159 -24 -2 -6 -8 -8 -13 -5 -5 3 -23 -4 -40 -17 -17 -13 -40 -23 -52 -23 -15
0 -21 -6 -19 -18 2 -9 -1 -17 -5 -17 -5 0 -17 -14 -26 -30 -32 -54 -64 -63
-196 -55 -64 4 -133 11 -155 15 -54 12 -136 -13 -136 -41 0 -12 -14 -28 -37
-42 -21 -12 -39 -20 -39 -17 -1 3 -10 -2 -20 -11 -23 -20 -187 -61 -208 -53
-9 3 -16 1 -16 -5 0 -6 -17 -11 -39 -11 -34 0 -42 -5 -65 -40 -14 -22 -26 -43
-26 -48 0 -18 -81 -72 -108 -72 -33 0 -89 -73 -140 -181 -27 -58 -54 -109 -61
-113 -6 -4 -8 -13 -4 -19 5 -9 3 -9 -8 0 -23 19 -56 4 -70 -30 -7 -18 -32 -62
-56 -100 -24 -37 -43 -71 -43 -75 0 -4 -13 -27 -29 -51 l-29 -44 -84 2 c-46 1
-95 4 -111 5 -18 2 -27 -1 -27 -10 0 -10 16 -14 59 -14 33 0 67 -3 77 -7 11
-4 15 -2 11 4 -4 7 4 8 26 3 18 -4 31 -12 29 -19 -2 -10 11 -11 53 -7 33 3 55
2 55 -4 0 -16 82 -11 101 6 14 13 21 13 37 3 11 -7 25 -23 31 -36 9 -20 8 -23
-9 -23 -10 0 -31 5 -47 12 -19 8 -124 12 -323 14 -494 3 -491 3 -450 19 l35
13 -30 6 c-16 4 -41 10 -55 13 -14 4 -28 6 -32 5 -5 -1 -8 5 -8 13 0 19 56 20
67 1 5 -9 38 -15 102 -19 77 -5 101 -3 130 11 l36 17 -40 6 c-22 4 -116 9
-210 13 -93 4 -185 9 -202 13 -29 4 -33 2 -33 -16 0 -18 6 -21 46 -21 40 0 45
-2 34 -15 -7 -8 -28 -15 -46 -15 l-34 0 0 -61 0 -61 120 4 c76 2 121 0 124 -7
3 -6 5 -6 5 0 1 11 639 13 658 2 6 -4 22 -3 35 2 22 9 22 10 -6 10 -16 1 -26
4 -22 8 8 8 73 12 244 14 94 2 112 4 110 17 -4 20 46 34 95 26 30 -5 37 -3 37
10 0 9 5 16 10 16 6 0 10 5 10 11 0 6 -13 1 -30 -11 -16 -12 -30 -17 -30 -12
0 18 36 40 76 47 33 5 43 3 47 -9 4 -9 18 -16 33 -16 35 0 26 -23 -13 -31 -17
-3 -47 -16 -66 -28 -21 -13 -42 -19 -53 -14 -12 4 -15 3 -10 -6 5 -7 1 -18
-10 -26 -17 -12 -16 -14 17 -20 20 -4 82 -8 138 -8 55 -1 101 -5 101 -9 0 -4
35 -6 78 -6 42 1 134 -2 203 -6 l125 -7 12 25 c11 24 31 32 70 27 6 -1 27 2
46 8 28 7 38 6 53 -8 10 -10 24 -16 31 -13 7 2 20 1 30 -3 15 -6 14 -9 -7 -26
-13 -10 -31 -19 -41 -19 -10 0 -23 -7 -30 -15 -10 -13 -10 -19 4 -34 9 -10 14
-25 10 -35 -5 -14 2 -16 52 -17 33 0 100 -2 149 -3 64 -3 79 -2 50 4 -25 5 3
6 75 3 63 -2 123 -7 133 -9 16 -5 17 8 17 175 0 201 5 188 -76 196 -39 3 -59
15 -28 15 18 1 18 1 1 11 -12 7 -27 7 -47 0 -20 -6 -32 -6 -36 0 -8 14 -5 16
41 22 22 3 41 10 43 16 2 6 9 8 15 4 5 -3 20 6 31 20 16 19 25 24 36 17 12 -8
11 -10 -5 -10 -17 0 -17 -2 -5 -10 8 -5 18 -10 22 -10 3 0 7 167 8 370 1 395
0 401 -46 348 l-19 -22 28 17 c44 28 30 -4 -21 -47 -19 -17 -22 -17 -16 -3 3
9 11 17 16 17 6 0 5 6 -2 15 -7 9 -9 22 -5 32 5 10 7 23 6 30 -2 14 34 27 49
18 13 -8 13 18 -1 32 -8 8 -8 13 0 17 7 5 11 44 11 102 0 100 0 101 -53 87z
m-157 -107 c0 -3 -4 -8 -10 -11 -5 -3 -10 -1 -10 4 0 6 5 11 10 11 6 0 10 -2
10 -4z m166 -73 c-11 -11 -17 4 -9 23 7 18 8 18 11 1 2 -10 1 -21 -2 -24z
m-262 -38 c-4 -8 -11 -12 -16 -9 -6 4 -5 10 3 15 19 12 19 11 13 -6z m70 6 c6
-10 -16 -21 -42 -21 -13 0 -12 3 4 15 22 17 31 18 38 6z m201 -10 c-8 -14 -32
-14 -40 -2 -3 6 4 8 15 6 11 -2 20 1 20 7 0 6 3 9 6 5 3 -3 3 -10 -1 -16z
m-45 -22 c0 -5 -11 -9 -25 -9 -33 0 -33 15 0 16 14 1 25 -2 25 -7z m-47 -32
c-3 -5 4 -11 16 -14 15 -4 21 -13 20 -32 -1 -17 -3 -20 -6 -8 -6 22 -21 22
-58 -3 l-30 -21 30 6 30 7 -25 -21 c-14 -11 -27 -21 -30 -21 -3 0 -16 17 -30
38 -14 20 -29 40 -35 44 -6 5 -3 8 6 8 9 0 19 6 22 13 3 8 22 13 50 12 25 0
43 -4 40 -8z m50 -122 c-3 -9 -8 -14 -10 -11 -3 3 -2 9 2 15 9 16 15 13 8 -4z
m-72 -22 c-6 -10 -11 -14 -11 -9 0 5 -8 2 -17 -5 -10 -7 -7 -1 6 14 26 29 39
30 22 0z m39 -3 c0 -5 -8 -10 -17 -10 -15 0 -16 2 -3 10 19 12 20 12 20 0z
m-128 -36 c-7 -12 -11 -13 -17 -4 -4 7 -2 16 6 21 18 11 23 4 11 -17z m228 2
c0 -2 -7 -7 -16 -10 -8 -3 -12 -2 -9 4 6 10 25 14 25 6z m-292 -110 c-10 -7
-15 -15 -13 -18 3 -3 -1 -11 -10 -18 -9 -7 -19 -10 -23 -6 -7 8 42 56 56 56 4
0 -1 -7 -10 -14z m178 -277 c4 -7 1 -10 -7 -7 -8 3 -20 -1 -27 -9 -16 -16 -46
-18 -37 -2 7 10 41 27 57 28 4 1 10 -4 14 -10z m25 -52 c-13 -13 -15 1 -4 30
7 17 8 17 11 -1 2 -10 -1 -23 -7 -29z m33 28 c-4 -8 -8 -15 -10 -15 -2 0 -4 7
-4 15 0 8 4 15 10 15 5 0 7 -7 4 -15z m-133 -12 c13 -15 12 -16 -9 -11 -15 4
-22 2 -19 -5 2 -7 11 -11 19 -11 13 1 12 -4 -4 -33 -19 -31 -21 -32 -34 -16
-18 24 -18 39 0 24 10 -9 15 -8 19 3 6 16 -16 40 -26 29 -4 -3 -7 -4 -7 0 0 8
30 37 39 37 5 0 15 -8 22 -17z m39 -38 c-7 -8 -17 -15 -22 -15 -6 0 -5 7 2 15
7 8 17 15 22 15 6 0 5 -7 -2 -15z m-130 -21 c0 -8 -4 -12 -10 -9 -5 3 -10 10
-10 16 0 5 5 9 10 9 6 0 10 -7 10 -16z m-50 -9 c-6 -8 -20 -17 -31 -20 -11 -4
-17 -11 -14 -16 4 -5 3 -9 -2 -9 -4 0 -21 -11 -37 -25 -16 -13 -33 -22 -37
-19 -5 3 -9 -1 -9 -9 0 -15 56 -12 66 4 8 14 24 10 24 -6 0 -8 -8 -16 -17 -17
-10 0 -23 -2 -29 -2 -6 -1 -18 -7 -26 -13 -11 -10 -19 -9 -36 3 -30 20 -28 26
13 48 19 11 35 23 35 28 0 4 10 8 22 8 12 0 18 3 15 7 -4 3 8 16 26 29 37 26
55 31 37 9z m90 -25 c0 -5 -2 -10 -4 -10 -3 0 -8 5 -11 10 -3 6 -1 10 4 10 6
0 11 -4 11 -10z m-40 -25 c0 -3 -12 -10 -26 -15 -27 -11 -23 -34 4 -26 16 5
52 -9 42 -16 -3 -2 -19 -16 -36 -31 -21 -19 -45 -29 -73 -32 -48 -4 -54 7 -12
25 16 6 37 20 47 31 15 17 15 19 0 25 -9 3 -16 11 -16 17 0 6 3 7 6 4 4 -3 16
0 28 8 21 15 36 19 36 10z m52 -25 c-24 -23 -61 -17 -41 6 6 8 23 14 37 14
l26 0 -22 -20z m-279 -32 c8 -27 6 -29 -20 -22 -19 5 -20 9 -10 25 15 25 23
24 30 -3z m371 -26 c-17 -16 -74 -36 -74 -26 0 3 81 43 89 44 3 0 -4 -8 -15
-18z m-540 -14 c4 3 6 -2 6 -11 0 -20 -16 -23 -24 -4 -3 9 -9 7 -19 -5 -8 -10
-18 -18 -22 -18 -4 0 -2 7 5 15 15 18 -1 21 -32 4 -16 -9 -19 -8 -15 3 2 7 10
12 16 11 6 -2 11 1 11 6 0 5 15 5 34 1 19 -4 37 -5 40 -2z m434 -22 c-7 -8
-16 -12 -21 -9 -11 7 2 23 19 23 12 0 12 -2 2 -14z m-442 -64 c-14 -15 -15
-13 -3 17 8 23 13 28 15 16 2 -10 -3 -25 -12 -33z m-1814 -14 c9 2 19 -1 21
-6 3 -4 -10 -9 -29 -10 -25 -2 -34 1 -34 13 0 11 4 13 13 8 6 -4 19 -6 29 -5z"/>
<path d="M2500 1530 c0 -5 5 -10 11 -10 5 0 7 5 4 10 -3 6 -8 10 -11 10 -2 0
-4 -4 -4 -10z"/>
<path d="M2460 1520 c0 -5 5 -10 11 -10 5 0 7 -4 4 -10 -3 -5 -2 -10 4 -10 14
0 21 14 13 25 -10 14 -32 17 -32 5z"/>
<path d="M288 643 c7 -3 16 -2 19 1 4 3 -2 6 -13 5 -11 0 -14 -3 -6 -6z"/>
<path d="M326 641 c-4 -5 3 -7 14 -4 23 6 26 13 6 13 -8 0 -17 -4 -20 -9z"/>
<path d="M1 299 c-2 -76 11 -84 133 -83 56 0 118 6 139 13 42 14 182 7 193
-10 3 -5 14 -9 24 -9 13 0 18 6 15 20 -2 13 2 20 11 20 8 0 14 -4 14 -10 0 -5
9 -10 20 -10 11 0 20 -4 20 -10 0 -5 5 -10 10 -10 22 0 8 21 -27 39 -23 11
-50 17 -68 14 -26 -4 -31 -1 -32 19 -2 18 0 19 7 8 5 -8 10 -10 10 -5 0 6 5 3
10 -5 7 -12 12 -12 22 -2 9 9 9 12 -4 12 -8 0 -21 7 -28 15 -12 14 -15 14 -30
0 -9 -8 -32 -15 -51 -14 l-34 1 31 7 c51 13 60 22 33 36 -18 10 -45 11 -104 4
-108 -11 -127 -11 -120 1 4 6 -29 10 -93 10 l-99 0 -2 -51z m162 34 c-7 -2
-19 -2 -25 0 -7 3 -2 5 12 5 14 0 19 -2 13 -5z"/>
<path d="M2015 333 c-5 -10 -7 -24 -6 -30 1 -7 -3 -22 -9 -33 -11 -20 3 -30
15 -10 3 6 14 10 23 10 14 0 13 -2 -3 -13 -19 -15 -13 -37 9 -37 8 0 21 10 30
23 15 21 15 20 1 -11 -9 -18 -20 -30 -24 -28 -5 3 -8 -4 -7 -16 2 -35 29 -44
83 -29 26 7 56 14 66 16 28 6 35 14 42 47 7 30 8 31 21 13 15 -21 15 -37 -1
-36 -12 0 -28 -39 -20 -48 3 -3 10 1 15 9 7 10 10 11 10 3 0 -8 15 -13 40 -13
33 0 40 -3 40 -20 0 -11 -4 -20 -10 -20 -5 0 -10 -4 -10 -10 0 -5 11 -10 24
-10 19 0 26 7 31 30 4 17 11 30 17 30 17 0 0 103 -19 118 -10 6 -45 12 -80 12
-35 0 -80 7 -100 15 -48 20 -68 19 -85 -6 -12 -18 -18 -20 -35 -11 -11 6 -27
25 -35 42 -13 28 -16 29 -23 13z m155 -83 c-20 -13 -33 -13 -25 0 3 6 14 10
23 10 15 0 15 -2 2 -10z m150 -76 c0 -9 -7 -14 -17 -12 -25 5 -28 28 -4 28 12
0 21 -6 21 -16z"/>
<path d="M1000 316 c0 -2 9 -6 20 -9 11 -3 20 -1 20 4 0 5 -9 9 -20 9 -11 0
-20 -2 -20 -4z"/>
<path d="M1080 310 c0 -5 5 -10 10 -10 6 0 10 5 10 10 0 6 -4 10 -10 10 -5 0
-10 -4 -10 -10z"/>
<path d="M1268 303 c7 -3 16 -2 19 1 4 3 -2 6 -13 5 -11 0 -14 -3 -6 -6z"/>
<path d="M228 203 c6 -2 18 -2 25 0 6 3 1 5 -13 5 -14 0 -19 -2 -12 -5z"/>
<path d="M1278 168 c5 -5 16 -8 23 -6 8 3 3 7 -10 11 -17 4 -21 3 -13 -5z"/>
<path d="M1325 160 c-8 -13 5 -13 25 0 13 8 13 10 -2 10 -9 0 -20 -4 -23 -10z"/>
<path d="M1393 163 c9 -2 25 -2 35 0 9 3 1 5 -18 5 -19 0 -27 -2 -17 -5z"/>
<path d="M2465 160 c-8 -13 25 -13 45 0 12 8 9 10 -12 10 -15 0 -30 -4 -33
-10z"/>
<path d="M1161 149 c17 -11 39 -12 39 -1 0 4 -12 8 -27 9 -19 1 -22 -1 -12 -8z"/>
<path d="M1238 153 c7 -3 16 -2 19 1 4 3 -2 6 -13 5 -11 0 -14 -3 -6 -6z"/>
<path d="M1778 153 c12 -2 30 -2 40 0 9 3 -1 5 -23 4 -22 0 -30 -2 -17 -4z"/>
<path d="M2418 153 c6 -2 18 -2 25 0 6 3 1 5 -13 5 -14 0 -19 -2 -12 -5z"/>
<path d="M2558 153 c7 -3 16 -2 19 1 4 3 -2 6 -13 5 -11 0 -14 -3 -6 -6z"/>
<path d="M2183 124 c-9 -19 -8 -24 2 -24 16 0 29 30 18 41 -4 4 -13 -3 -20
-17z"/>
<path d="M2216 112 c-3 -6 -1 -14 5 -17 14 -9 20 -2 10 14 -6 8 -11 9 -15 3z"/>
<path d="M2065 84 c47 -7 113 -8 108 -1 -2 4 -32 6 -66 6 -34 -1 -53 -3 -42
-5z"/>
<path d="M2258 73 c12 -2 30 -2 40 0 9 3 -1 5 -23 4 -22 0 -30 -2 -17 -4z"/>
</g>
</svg>
