<?xml version="1.0" standalone="no"?>
<!DOCTYPE svg PUBLIC "-//W3C//DTD SVG 20010904//EN"
 "http://www.w3.org/TR/2001/REC-SVG-20010904/DTD/svg10.dtd">
<svg version="1.0" xmlns="http://www.w3.org/2000/svg"
 width="259.000000pt" height="194.000000pt" viewBox="0 0 259.000000 194.000000"
 preserveAspectRatio="xMidYMid meet">

<g transform="translate(0.000000,194.000000) scale(0.100000,-0.100000)"
fill="#000000" stroke="none">
<path d="M130 1935 c0 -3 16 -23 36 -45 28 -31 34 -43 25 -53 -13 -16 -5 -28
15 -20 12 5 19 -7 15 -29 0 -5 3 -8 9 -8 5 0 10 -7 10 -15 0 -8 5 -15 10 -15
6 0 10 -9 10 -20 0 -12 15 -41 33 -65 25 -35 36 -43 52 -37 27 9 65 8 94 -2
l24 -8 -21 23 c-12 12 -21 24 -19 25 7 7 56 -10 51 -17 -3 -5 -1 -9 5 -9 6 0
8 -6 5 -14 -5 -14 74 -58 89 -49 13 8 7 25 -7 20 -8 -3 -22 0 -32 7 -17 13
-17 14 4 27 12 8 22 24 22 36 0 13 5 23 10 23 6 0 10 -4 10 -10 0 -5 7 -10 15
-10 16 0 20 16 6 24 -5 3 -14 19 -19 36 -12 34 0 40 32 17 17 -12 17 -15 2
-30 -15 -15 -14 -16 6 -15 13 1 39 1 57 0 27 -2 32 -5 23 -14 -17 -17 -15 -29
3 -22 24 10 18 53 -12 78 -15 13 -23 28 -19 34 5 8 13 6 27 -7 18 -17 22 -17
54 -3 26 12 32 19 23 29 -13 17 4 17 20 1 10 -10 15 -10 20 -1 4 6 20 15 35
18 22 6 26 4 21 -9 -4 -10 0 -18 10 -22 9 -3 16 -10 16 -15 0 -15 -22 -10 -35
7 -13 19 -47 15 -79 -9 -19 -14 -19 -15 1 -41 29 -36 21 -64 -18 -58 -16 2
-29 0 -29 -6 0 -6 -9 -13 -19 -17 -14 -4 -17 -12 -13 -27 4 -17 2 -20 -12 -15
-10 4 -20 7 -22 7 -3 0 -2 4 1 10 10 16 -14 50 -35 50 -11 0 -20 -4 -20 -10 0
-5 -7 -10 -15 -10 -8 0 -15 -4 -15 -10 0 -5 4 -10 9 -10 6 0 22 -11 36 -24 30
-28 75 -40 75 -20 0 8 7 14 15 14 18 0 20 -26 3 -34 -9 -3 -1 -15 21 -35 19
-17 37 -28 41 -26 3 2 12 0 20 -6 13 -7 12 -9 -1 -9 -9 0 -19 -7 -23 -15 -3
-8 -1 -15 4 -15 6 0 10 -6 10 -12 0 -7 14 -22 30 -33 16 -11 30 -23 30 -27 0
-10 -40 -19 -69 -16 -13 2 -26 -3 -29 -11 -3 -9 1 -11 17 -6 11 3 21 2 21 -3
0 -5 8 -9 18 -8 12 1 16 -5 14 -21 -3 -19 1 -23 20 -22 43 2 82 14 77 23 -6
13 48 29 69 21 13 -5 14 -8 3 -15 -12 -7 -11 -11 3 -25 9 -9 23 -14 31 -11 18
6 20 53 3 58 -8 3 -8 9 -1 23 10 18 11 18 16 -1 3 -10 9 -44 12 -74 6 -46 3
-59 -13 -80 -13 -17 -18 -35 -15 -52 3 -17 -2 -40 -15 -60 -11 -18 -18 -38
-15 -45 3 -7 -13 -14 -44 -18 -65 -9 -176 -43 -243 -73 -30 -14 -84 -30 -120
-37 -36 -6 -101 -29 -144 -49 -70 -34 -89 -38 -155 -39 -42 0 -93 -6 -115 -13
-21 -8 -72 -14 -112 -14 l-74 0 0 -410 0 -410 553 0 c417 0 556 3 565 12 8 8
12 9 12 1 0 -17 306 -18 314 -1 5 10 7 10 12 1 10 -22 26 -14 19 8 -5 15 -4
19 4 15 6 -4 11 -14 11 -22 0 -12 41 -14 269 -14 206 0 271 3 274 13 4 10 6
10 6 0 1 -10 63 -13 275 -13 l275 0 0 461 c1 458 1 461 -19 456 -11 -3 -20 -1
-20 4 0 5 10 9 23 10 21 0 21 1 2 9 -16 7 -17 9 -3 9 16 1 17 38 18 496 l0
495 -262 0 c-228 0 -264 -2 -280 -16 -16 -16 -18 -16 -24 0 -5 13 -19 16 -68
15 -33 -1 -51 -4 -38 -6 29 -6 28 -23 -2 -23 -13 0 -29 -7 -36 -15 -14 -16
-40 -20 -40 -6 0 5 8 12 18 16 16 6 16 7 -2 20 -15 12 -153 14 -798 14 l-779
1 22 -38 c12 -20 29 -45 37 -54 11 -13 12 -18 3 -18 -7 0 -20 -7 -28 -16 -14
-13 -14 -17 -2 -25 11 -7 11 -9 -3 -9 -9 0 -18 -6 -21 -12 -3 -10 -10 -8 -23
6 -19 18 -18 18 5 11 16 -5 21 -4 17 4 -4 6 0 18 8 27 20 20 21 45 1 38 -9 -4
-18 1 -21 11 -5 13 -8 14 -15 3 -6 -10 -11 -9 -23 7 -8 11 -11 21 -6 23 5 2 4
12 -3 23 -9 14 -23 19 -54 19 -24 0 -43 -2 -43 -5z m630 -41 c0 -8 -4 -12 -10
-9 -5 3 -10 10 -10 16 0 5 5 9 10 9 6 0 10 -7 10 -16z m446 -4 c0 -11 -6 -20
-13 -20 -14 0 -18 22 -6 33 12 12 19 7 19 -13z m204 0 c0 -5 -9 -10 -21 -10
-11 0 -17 5 -14 10 3 6 13 10 21 10 8 0 14 -4 14 -10z m-1030 -10 c0 -5 -2
-10 -4 -10 -3 0 -8 5 -11 10 -3 6 -1 10 4 10 6 0 11 -4 11 -10z m420 -35 c25
-26 21 -32 -9 -15 -20 10 -36 40 -22 40 4 0 18 -11 31 -25z m893 -10 c-20 -14
-113 -9 -113 5 0 5 17 6 39 3 21 -3 41 -1 45 5 3 6 15 8 26 5 20 -5 20 -6 3
-18z m-687 -12 c-7 -7 -26 7 -26 19 0 6 6 6 15 -2 9 -7 13 -15 11 -17z m179
-2 c-3 -6 -11 -8 -17 -5 -6 4 -5 9 3 15 16 10 23 4 14 -10z m812 13 c-3 -3
-12 -4 -19 -1 -8 3 -5 6 6 6 11 1 17 -2 13 -5z m-1247 -32 c0 -8 -1 -13 -3
-11 -1 2 -9 12 -16 22 -12 15 -12 17 3 11 9 -3 16 -13 16 -22z m1410 2 c0 -8
-5 -12 -10 -9 -6 4 -8 11 -5 16 9 14 15 11 15 -7z m-1173 -19 c39 -5 53 -16
43 -36 -9 -15 -6 -20 15 -25 14 -3 25 -11 25 -18 0 -6 9 -22 20 -36 18 -23 20
-23 20 -5 0 15 2 17 9 6 7 -10 12 -8 24 10 9 12 14 26 11 30 -2 4 1 11 6 14 8
5 9 -5 4 -30 -10 -54 18 -42 31 14 10 40 12 41 27 24 8 -10 14 -32 13 -50 -2
-26 0 -30 14 -25 13 5 14 3 4 -10 -7 -8 -10 -18 -6 -22 4 -4 0 -4 -10 0 -17 6
-22 21 -19 57 1 9 -2 17 -6 17 -4 0 -8 -20 -8 -44 1 -24 4 -42 8 -40 3 2 9 -5
13 -16 3 -11 12 -20 20 -20 18 0 25 -36 11 -55 -10 -14 -15 -12 -44 16 -25 25
-32 38 -27 56 5 21 2 23 -30 23 -19 0 -35 -5 -35 -11 0 -5 4 -8 9 -5 15 10 36
-23 23 -36 -8 -8 -16 -3 -29 21 -15 27 -22 30 -46 25 -43 -9 -98 -7 -109 4 -6
6 -1 8 16 5 19 -4 26 -1 26 11 0 9 -7 16 -15 16 -9 0 -18 7 -21 15 -5 11 -11
12 -24 5 -10 -6 -43 -10 -74 -10 -55 0 -81 15 -55 31 8 5 9 9 4 9 -15 0 -36
58 -24 66 5 3 13 -5 17 -17 6 -15 11 -19 16 -10 4 6 2 18 -4 26 -19 23 4 18
25 -5 12 -13 14 -20 5 -20 -10 0 -10 -3 0 -15 7 -8 16 -12 22 -9 5 3 16 0 25
-8 14 -11 16 -11 10 4 -4 12 -2 15 8 12 7 -3 16 -12 19 -20 8 -21 26 -7 19 14
-4 13 -2 13 10 -3 9 -11 17 -25 17 -31 0 -7 9 -14 20 -17 12 -3 20 -14 21 -29
0 -12 3 -17 6 -10 2 6 11 12 19 12 28 0 13 30 -26 52 -37 22 -50 41 -32 51 4
2 1 2 -7 0 -7 -2 -20 2 -27 8 -11 9 -14 8 -14 -1 0 -10 -3 -10 -15 0 -9 7 -14
19 -11 27 3 7 -2 13 -12 14 -9 1 -3 4 13 8 17 4 33 3 37 -3 3 -5 14 -10 25
-11z m1297 0 c3 -9 0 -15 -9 -15 -8 0 -15 7 -15 15 0 8 4 15 9 15 5 0 11 -7
15 -15z m-876 -7 c7 -7 12 -16 12 -20 0 -15 -15 -8 -28 12 -13 22 -3 27 16 8z
m462 8 c0 -2 -7 -9 -15 -16 -12 -10 -15 -10 -15 4 0 9 7 16 15 16 8 0 15 -2
15 -4z m-1390 -22 c0 -2 -9 -4 -20 -4 -11 0 -20 4 -20 9 0 5 9 7 20 4 11 -3
20 -7 20 -9z m157 10 c-3 -3 -12 -4 -19 -1 -8 3 -5 6 6 6 11 1 17 -2 13 -5z
m-232 -24 c5 -15 12 -19 26 -15 15 5 17 3 12 -10 -4 -13 -13 -15 -37 -11 -40
8 -58 26 -26 26 35 0 12 18 -30 23 -34 4 -34 4 7 5 34 2 43 -2 48 -18z m685 5
c0 -8 -4 -15 -10 -15 -5 0 -10 7 -10 15 0 8 5 15 10 15 6 0 10 -7 10 -15z m70
11 c0 -3 -4 -8 -10 -11 -5 -3 -10 -1 -10 4 0 6 5 11 10 11 6 0 10 -2 10 -4z
m170 0 c0 -2 -8 -10 -17 -17 -16 -13 -17 -12 -4 4 13 16 21 21 21 13z m-640
-48 c0 -13 -20 -9 -36 6 -24 24 -16 38 11 19 13 -10 25 -21 25 -25z m438 21
c7 -12 11 -23 8 -26 -7 -7 -36 23 -36 36 0 18 14 13 28 -10z m-788 0 c12 -9
11 -10 -7 -6 -13 3 -26 1 -29 -4 -3 -5 -10 -9 -16 -9 -7 0 -6 6 2 15 15 18 29
19 50 4z m174 -5 c4 -11 14 -15 30 -12 19 4 22 1 18 -14 -6 -26 -18 -31 -55
-22 -28 6 -30 8 -12 15 15 6 16 8 4 8 -18 1 -32 25 -22 35 12 11 31 6 37 -10z
m1763 -10 c-3 -4 -14 -3 -24 0 -15 6 -15 8 -3 16 16 10 39 -4 27 -16z m-309
-4 c-7 -11 -16 -20 -20 -20 -5 0 -3 9 4 20 7 11 16 20 20 20 5 0 3 -9 -4 -20z
m-656 -5 c9 4 18 -1 21 -9 4 -9 1 -15 -6 -13 -6 1 -13 -9 -15 -23 -2 -24 -2
-24 13 -6 8 11 15 14 15 8 0 -7 5 -12 11 -12 6 0 9 9 6 20 -3 11 0 23 5 27 7
3 8 1 4 -5 -4 -7 -3 -12 3 -12 7 0 7 -8 1 -25 -9 -22 -7 -25 15 -25 17 0 25 6
25 17 0 13 3 14 11 6 6 -6 17 -9 24 -7 17 7 29 -13 13 -22 -7 -4 -39 -8 -71
-9 -50 -1 -61 2 -77 22 -10 14 -16 31 -13 39 3 8 -1 14 -11 14 -9 0 -16 7 -16
16 0 13 3 14 14 5 7 -6 20 -9 28 -6z m153 -6 c36 -7 21 -24 -23 -26 -26 -2
-41 1 -37 7 3 6 13 10 20 10 9 0 12 6 9 18 -4 10 -3 13 3 6 4 -7 17 -13 28
-15z m305 11 c0 -5 -2 -10 -4 -10 -3 0 -8 5 -11 10 -3 6 -1 10 4 10 6 0 11 -4
11 -10z m-226 -25 c-4 -8 -9 -15 -13 -15 -4 0 -8 7 -8 15 0 8 6 15 13 15 8 0
11 -6 8 -15z m154 1 c3 -3 -14 -6 -37 -6 -24 0 -40 4 -36 9 6 10 62 7 73 -3z
m-117 -16 c-8 -5 -9 -14 -2 -33 14 -35 -12 -43 -65 -20 -30 13 -34 18 -20 21
10 2 21 0 25 -5 9 -14 40 -23 46 -13 3 4 0 10 -6 12 -7 2 -7 12 0 31 7 17 16
25 22 21 8 -5 8 -8 0 -14z m183 -2 c-8 -27 -12 -33 -19 -27 -7 8 7 49 17 49 5
0 6 -10 2 -22z m-1434 2 c0 -5 -4 -10 -10 -10 -5 0 -10 5 -10 10 0 6 5 10 10
10 6 0 10 -4 10 -10z m1997 -16 c-9 -9 -28 6 -21 18 4 6 10 6 17 -1 6 -6 8
-13 4 -17z m-640 -6 c-3 -8 -6 -5 -6 6 -1 11 2 17 5 13 3 -3 4 -12 1 -19z
m330 0 c-3 -8 -6 -5 -6 6 -1 11 2 17 5 13 3 -3 4 -12 1 -19z m-1647 2 c0 -5
-7 -10 -15 -10 -8 0 -15 5 -15 10 0 6 7 10 15 10 8 0 15 -4 15 -10z m1265 0
c3 -6 -4 -10 -17 -10 -18 0 -20 2 -8 10 19 12 18 12 25 0z m185 0 c0 -5 -5
-10 -11 -10 -5 0 -7 5 -4 10 3 6 8 10 11 10 2 0 4 -4 4 -10z m297 -6 c-3 -3
-12 -4 -19 -1 -8 3 -5 6 6 6 11 1 17 -2 13 -5z m-1319 -24 c11 -18 10 -19 -13
-8 -26 12 -34 28 -12 28 7 0 18 -9 25 -20z m1202 -7 c0 -20 -3 -24 -11 -16 -7
7 -9 19 -6 27 10 24 17 19 17 -11z m-290 7 c0 -5 -5 -10 -11 -10 -5 0 -7 5 -4
10 3 6 8 10 11 10 2 0 4 -4 4 -10z m103 3 c-7 -2 -19 -2 -25 0 -7 3 -2 5 12 5
14 0 19 -2 13 -5z m-176 -9 c-3 -3 -12 -4 -19 -1 -8 3 -5 6 6 6 11 1 17 -2 13
-5z m-778 -13 c12 -8 12 -11 0 -24 -17 -16 -45 -16 -74 0 -17 10 -13 11 23 7
39 -3 57 8 30 19 -7 3 -8 6 -3 6 6 0 16 -3 24 -8z m86 -2 c10 -15 -1 -23 -20
-15 -9 3 -13 10 -10 16 8 13 22 13 30 -1z m548 4 c-7 -2 -19 -2 -25 0 -7 3 -2
5 12 5 14 0 19 -2 13 -5z m-669 -63 c16 0 25 -4 21 -10 -3 -5 10 -20 30 -31
20 -12 33 -24 30 -27 -6 -6 -92 35 -100 49 -4 5 -14 9 -23 9 -9 0 -24 5 -32
10 -13 9 -13 11 0 19 10 7 20 5 31 -5 8 -7 28 -14 43 -14z m140 4 c3 -8 2 -12
-4 -9 -6 3 -10 10 -10 16 0 14 7 11 14 -7z m364 5 c-2 -6 -8 -10 -13 -10 -5 0
-11 4 -13 10 -2 6 4 11 13 11 9 0 15 -5 13 -11z m-147 -116 c13 -16 12 -17 -3
-4 -10 7 -18 15 -18 17 0 8 8 3 21 -13z m-47 -1 c3 -5 -1 -9 -9 -9 -8 0 -12 4
-9 9 3 4 7 8 9 8 2 0 6 -4 9 -8z m706 -62 c0 -5 -2 -10 -4 -10 -3 0 -8 5 -11
10 -3 6 -1 10 4 10 6 0 11 -4 11 -10z m-901 -16 c2 -2 -10 -4 -27 -4 -18 0
-32 5 -32 10 0 9 47 4 59 -6z m961 2 c0 -10 9 -13 30 -11 36 5 32 -10 -4 -17
-18 -4 -27 1 -35 19 -7 14 -7 23 -1 23 6 0 10 -6 10 -14z m120 -1 c-7 -8 -17
-12 -22 -9 -6 4 -5 10 3 15 22 14 33 10 19 -6z m88 3 c9 -9 12 -9 12 1 0 7 5
9 11 5 8 -5 6 -10 -5 -16 -11 -6 -21 -4 -32 6 -8 9 -12 16 -7 16 5 0 14 -5 21
-12z m-233 -18 c3 -5 1 -10 -4 -10 -6 0 -11 5 -11 10 0 6 2 10 4 10 3 0 8 -4
11 -10z m190 -10 c-3 -5 -10 -10 -16 -10 -5 0 -9 5 -9 10 0 6 7 10 16 10 8 0
12 -4 9 -10z m-1025 -18 c0 -13 -12 -22 -22 -16 -10 6 -1 24 13 24 5 0 9 -4 9
-8z m1467 -148 c-3 -3 -12 -4 -19 -1 -8 3 -5 6 6 6 11 1 17 -2 13 -5z m-202
-34 c3 -5 2 -10 -4 -10 -5 0 -13 5 -16 10 -3 6 -2 10 4 10 5 0 13 -4 16 -10z
m240 -9 c-6 -4 -23 -11 -40 -14 l-30 -6 30 14 c35 16 54 19 40 6z m-249 -18
c-10 -10 -46 -11 -40 -1 3 4 15 8 26 8 12 0 18 -3 14 -7z m-256 -13 c0 -5 -2
-10 -4 -10 -3 0 -8 5 -11 10 -3 6 -1 10 4 10 6 0 11 -4 11 -10z m107 -46 c-3
-3 -12 -4 -19 -1 -8 3 -5 6 6 6 11 1 17 -2 13 -5z m-472 -34 c3 -5 1 -10 -4
-10 -6 0 -11 5 -11 10 0 6 2 10 4 10 3 0 8 -4 11 -10z m342 4 c-3 -3 -12 -4
-19 -1 -8 3 -5 6 6 6 11 1 17 -2 13 -5z m353 -14 c8 -5 11 -10 5 -10 -5 0 -17
5 -25 10 -8 5 -10 10 -5 10 6 0 17 -5 25 -10z m-806 -15 c4 -13 2 -14 -14 -5
-23 13 -26 20 -6 20 8 0 16 -7 20 -15z m241 5 c-3 -5 -14 -10 -23 -10 -15 0
-15 2 -2 10 20 13 33 13 25 0z m342 -36 c-3 -3 -12 -4 -19 -1 -8 3 -5 6 6 6
11 1 17 -2 13 -5z m110 -9 c0 -8 -4 -12 -9 -9 -5 3 -6 10 -3 15 9 13 12 11 12
-6z m-620 -26 c1 -12 -3 -16 -14 -12 -10 4 -14 2 -9 -5 3 -6 2 -13 -3 -16 -16
-10 -23 12 -10 32 15 24 35 24 36 1z m593 1 c0 -5 -5 -10 -11 -10 -5 0 -7 5
-4 10 3 6 8 10 11 10 2 0 4 -4 4 -10z m250 6 c0 -2 -11 -6 -25 -8 -14 -3 -25
-1 -25 3 0 5 11 9 25 9 14 0 25 -2 25 -4z m-195 -26 c-3 -5 -12 -10 -18 -10
-7 0 -6 4 3 10 19 12 23 12 15 0z m-743 -33 c11 -9 14 -18 7 -28 -8 -13 -10
-12 -13 11 0 6 -8 15 -16 20 -8 5 -10 10 -5 10 6 -1 18 -6 27 -13z m118 9 c0
-3 -4 -8 -10 -11 -5 -3 -10 -1 -10 4 0 6 5 11 10 11 6 0 10 -2 10 -4z m36 -16
c0 -12 -7 -20 -18 -20 -17 0 -17 1 -1 20 10 11 18 20 18 20 0 0 1 -9 1 -20z
m631 14 c-3 -3 -12 -4 -19 -1 -8 3 -5 6 6 6 11 1 17 -2 13 -5z m-934 -54 c-6
-7 -23 23 -23 40 0 8 6 4 13 -10 8 -14 12 -27 10 -30z m202 30 c10 -11 16 -20
13 -20 -3 0 -13 9 -23 20 -10 11 -16 20 -13 20 3 0 13 -9 23 -20z m519 5 c-4
-8 -10 -12 -15 -9 -14 8 -10 24 6 24 9 0 12 -6 9 -15z m-313 -12 c13 -16 12
-17 -3 -4 -17 13 -22 21 -14 21 2 0 10 -8 17 -17z m-298 -38 c-7 -31 -19 -24
-25 14 -4 25 -2 28 13 21 11 -6 15 -17 12 -35z m457 39 c0 -8 -19 -13 -24 -6
-3 5 1 9 9 9 8 0 15 -2 15 -3z m270 -4 c0 -5 -2 -10 -4 -10 -3 0 -8 5 -11 10
-3 6 -1 10 4 10 6 0 11 -4 11 -10z m-646 -19 c3 -5 -1 -11 -9 -15 -9 -3 -15 0
-15 9 0 16 16 20 24 6z m556 -6 c-7 -8 -17 -15 -22 -15 -6 0 -5 7 2 15 7 8 17
15 22 15 6 0 5 -7 -2 -15z m60 6 c0 -5 -10 -11 -22 -14 -22 -6 -22 -6 -4 8 23
17 26 18 26 6z m-760 -16 c-7 -8 -19 -15 -26 -15 -8 0 -14 -4 -14 -9 0 -5 -8
-12 -17 -15 -10 -3 -2 8 17 24 36 31 61 41 40 15z m274 -7 c-3 -4 0 -8 7 -8 7
0 10 -3 6 -6 -8 -8 -48 6 -43 15 3 4 12 8 20 8 8 0 13 -4 10 -9z m195 -14 c2
-2 -1 -4 -8 -4 -7 0 -9 -6 -6 -12 4 -7 -1 -4 -10 7 -9 11 -18 19 -21 17 -2 -2
-10 -1 -17 2 -6 3 4 3 23 0 19 -3 36 -7 39 -10z m-552 0 c-3 -3 -12 -4 -19 -1
-8 3 -5 6 6 6 11 1 17 -2 13 -5z m213 -9 c-7 -9 -15 -13 -17 -11 -7 7 7 26 19
26 6 0 6 -6 -2 -15z m-127 -14 c-9 -11 -20 -18 -25 -15 -10 6 13 33 29 34 9 0
7 -6 -4 -19z m811 -9 c3 -5 -1 -9 -9 -9 -8 0 -15 4 -15 9 0 4 4 8 9 8 6 0 12
-4 15 -8z m-744 -12 c0 -5 -6 -10 -12 -11 -7 0 -22 -2 -33 -4 -20 -4 -20 -4
-1 11 23 16 46 18 46 4z m230 -16 c0 -8 -5 -12 -10 -9 -6 4 -8 11 -5 16 9 14
15 11 15 -7z m335 6 c13 -5 14 -9 5 -9 -8 0 -24 4 -35 9 -13 5 -14 9 -5 9 8 0
24 -4 35 -9z m-675 -31 c0 -6 -4 -7 -10 -4 -5 3 -10 11 -10 16 0 6 5 7 10 4 6
-3 10 -11 10 -16z m108 1 c-7 -10 -14 -17 -17 -15 -4 4 18 35 25 35 2 0 -1 -9
-8 -20z m167 -30 c1 -16 -1 -17 -13 -8 -9 8 -10 14 -3 16 6 2 8 9 4 15 -3 7
-2 9 2 4 5 -4 9 -16 10 -27z m-195 8 c0 -4 -4 -8 -10 -8 -5 0 -7 -8 -4 -17 5
-15 4 -16 -5 -3 -15 21 -14 37 4 37 8 0 15 -4 15 -9z m-20 -70 c0 -6 -6 -5
-15 2 -8 7 -15 14 -15 16 0 2 7 1 15 -2 8 -4 15 -11 15 -16z m415 -44 c1 -25
-11 -32 -41 -26 -23 4 -23 5 -7 18 12 9 14 13 5 14 -7 0 -11 4 -8 8 10 17 51
6 51 -14z m-215 2 c0 -2 -11 -6 -25 -8 -13 -3 -22 -1 -19 3 5 9 44 13 44 5z
m-110 -30 c0 -3 -4 -8 -10 -11 -5 -3 -10 -1 -10 4 0 6 5 11 10 11 6 0 10 -2
10 -4z m85 -25 c3 -5 1 -12 -5 -16 -5 -3 -10 1 -10 9 0 18 6 21 15 7z m175
-16 c-8 -10 -8 -15 1 -20 18 -12 -7 -22 -41 -17 -30 4 -32 25 -3 48 19 16 57
6 43 -11z m-714 -12 c-10 -10 -19 5 -10 18 6 11 8 11 12 0 2 -7 1 -15 -2 -18z
m-93 2 c-3 -9 -8 -14 -10 -11 -3 3 -2 9 2 15 9 16 15 13 8 -4z m437 0 c0 -12
-19 -12 -23 0 -4 9 -1 12 9 8 7 -3 14 -7 14 -8z m-335 -25 c3 -5 1 -10 -4 -10
-6 0 -11 5 -11 10 0 6 2 10 4 10 3 0 8 -4 11 -10z m542 4 c-3 -3 -12 -4 -19
-1 -8 3 -5 6 6 6 11 1 17 -2 13 -5z m201 -32 c2 -7 -2 -10 -12 -6 -9 3 -16 11
-16 16 0 13 23 5 28 -10z m-739 -13 c-16 -10 -23 -4 -14 10 3 6 11 8 17 5 6
-4 5 -9 -3 -15z m1451 -4 c8 -9 8 -15 2 -15 -6 0 -13 6 -15 13 -4 9 -8 9 -15
-2 -6 -8 -12 -9 -16 -3 -3 6 0 13 6 15 21 9 25 8 38 -8z m-1453 -47 c-3 -8 -6
-5 -6 6 -1 11 2 17 5 13 3 -3 4 -12 1 -19z m853 18 c0 -3 -4 -8 -10 -11 -5 -3
-10 -1 -10 4 0 6 5 11 10 11 6 0 10 -2 10 -4z m-1325 -26 c3 -5 2 -10 -4 -10
-5 0 -13 5 -16 10 -3 6 -2 10 4 10 5 0 13 -4 16 -10z m1039 -9 c3 -5 -1 -11
-9 -14 -9 -4 -12 -1 -8 9 6 16 10 17 17 5z m166 -11 c0 -5 -5 -10 -11 -10 -5
0 -7 5 -4 10 3 6 8 10 11 10 2 0 4 -4 4 -10z m-712 -35 c-3 -3 -9 2 -12 12 -6
14 -5 15 5 6 7 -7 10 -15 7 -18z m32 -9 c0 -3 -4 -8 -10 -11 -5 -3 -10 -1 -10
4 0 6 5 11 10 11 6 0 10 -2 10 -4z m574 -11 c11 0 21 -6 24 -12 2 -7 -1 -13
-8 -13 -6 0 -8 5 -4 11 5 9 -1 10 -20 5 -21 -5 -26 -3 -26 11 0 10 4 14 8 8 4
-5 16 -10 26 -10z m156 -5 c0 -5 -2 -10 -4 -10 -3 0 -8 5 -11 10 -3 6 -1 10 4
10 6 0 11 -4 11 -10z m40 -10 c0 -5 -8 -10 -17 -10 -15 0 -16 2 -3 10 19 12
20 12 20 0z m-462 -55 c-3 -3 -9 2 -12 12 -6 14 -5 15 5 6 7 -7 10 -15 7 -18z
m420 0 c-3 -3 -9 2 -12 12 -6 14 -5 15 5 6 7 -7 10 -15 7 -18z m53 8 c13 -16
12 -17 -3 -4 -17 13 -22 21 -14 21 2 0 10 -8 17 -17z m-81 -8 c11 -13 10 -14
-4 -9 -9 3 -16 10 -16 15 0 13 6 11 20 -6z m447 -11 c-3 -3 -12 -4 -19 -1 -8
3 -5 6 6 6 11 1 17 -2 13 -5z m-1404 -11 c-7 -2 -19 -2 -25 0 -7 3 -2 5 12 5
14 0 19 -2 13 -5z m41 -34 c-10 -17 -19 -9 -21 18 -1 26 0 26 13 9 7 -10 11
-23 8 -27z m-89 21 c3 -5 1 -10 -4 -10 -6 0 -11 5 -11 10 0 6 2 10 4 10 3 0 8
-4 11 -10z m-205 -4 c0 -2 -7 -7 -16 -10 -8 -3 -12 -2 -9 4 6 10 25 14 25 6z
m1043 -17 c-6 -6 -9 -19 -6 -28 4 -13 3 -14 -5 -1 -10 14 1 40 16 40 3 0 1 -5
-5 -11z m-326 -30 c-3 -12 0 -22 9 -26 12 -4 12 -8 2 -21 -11 -13 -10 -15 4
-10 12 5 16 1 13 -18 -1 -13 3 -24 9 -25 6 0 0 -5 -13 -10 -13 -5 -25 -8 -27
-6 -2 1 -5 24 -7 50 -2 26 -7 50 -10 53 -8 8 3 34 15 34 6 0 8 -9 5 -21z
m-547 -33 c0 -2 -8 -10 -17 -17 -16 -13 -17 -12 -4 4 13 16 21 21 21 13z
m1660 -6 c-8 -5 -19 -10 -25 -10 -5 0 -3 5 5 10 8 5 20 10 25 10 6 0 3 -5 -5
-10z m70 -10 c-8 -5 -17 -7 -19 -4 -3 3 1 9 9 14 8 5 17 7 19 4 3 -3 -1 -9 -9
-14z m-1948 -12 c-6 -6 -15 -8 -19 -4 -4 4 -1 11 7 16 19 12 27 3 12 -12z
m713 12 c-3 -6 1 -17 9 -26 9 -8 16 -21 16 -27 0 -7 -4 -6 -10 3 -8 12 -10 12
-11 -5 -1 -17 -2 -16 -9 5 -12 37 -11 60 1 60 5 0 7 -5 4 -10z m-299 -52 c4
-7 3 -8 -4 -4 -7 4 -12 2 -12 -5 0 -7 -3 -10 -6 -6 -6 5 3 27 11 27 2 0 7 -5
11 -12z m709 3 c3 -5 2 -12 -3 -15 -5 -3 -9 1 -9 9 0 17 3 19 12 6z m-1265
-21 c-8 -5 -19 -10 -25 -10 -5 0 -3 5 5 10 8 5 20 10 25 10 6 0 3 -5 -5 -10z"/>
<path d="M1780 508 c0 -9 -3 -18 -7 -21 -5 -2 -3 -2 4 -1 6 2 14 -2 17 -9 2
-7 4 -2 2 10 -3 27 -16 43 -16 21z"/>
<path d="M250 1917 c0 -18 5 -27 15 -27 13 0 14 4 4 23 -17 33 -19 33 -19 4z"/>
<path d="M0 1732 c0 -11 6 -22 14 -25 10 -4 12 0 9 14 -7 27 -23 34 -23 11z"/>
<path d="M732 1723 c4 -21 17 -33 38 -33 13 0 13 1 0 10 -8 5 -11 10 -6 10 11
0 -14 30 -26 30 -5 0 -8 -8 -6 -17z"/>
<path d="M0 1670 c0 -9 57 -40 75 -40 17 0 0 18 -27 30 -18 7 -36 15 -40 18
-5 2 -8 -1 -8 -8z"/>
<path d="M345 1610 c3 -5 8 -10 11 -10 2 0 4 5 4 10 0 6 -5 10 -11 10 -5 0 -7
-4 -4 -10z"/>
<path d="M0 1602 c0 -4 5 -13 12 -20 9 -9 9 -12 0 -12 -19 0 -14 -25 11 -47
18 -18 29 -20 62 -13 22 4 34 8 27 9 -7 0 -10 6 -7 11 3 6 -1 10 -9 10 -9 0
-16 4 -16 9 0 4 -18 20 -40 35 -22 14 -40 23 -40 18z"/>
<path d="M125 1480 c-3 -5 3 -10 14 -10 12 0 21 5 21 10 0 6 -6 10 -14 10 -8
0 -18 -4 -21 -10z"/>
<path d="M797 1315 c-4 -8 -2 -17 3 -20 6 -4 10 3 10 14 0 25 -6 27 -13 6z"/>
<path d="M702 1273 c-18 -7 16 -32 44 -33 29 0 51 25 28 34 -18 7 -53 7 -72
-1z"/>
<path d="M247 1246 c4 -21 10 -24 35 -21 44 6 45 13 5 30 -46 19 -45 19 -40
-9z"/>
<path d="M0 1189 c0 -12 24 -17 45 -9 17 6 15 8 -13 12 -17 2 -32 1 -32 -3z"/>
<path d="M93 1183 c9 -2 23 -2 30 0 6 3 -1 5 -18 5 -16 0 -22 -2 -12 -5z"/>
<path d="M767 1169 c7 -7 15 -10 18 -7 3 3 -2 9 -12 12 -14 6 -15 5 -6 -5z"/>
<path d="M808 1143 c7 -3 16 -2 19 1 4 3 -2 6 -13 5 -11 0 -14 -3 -6 -6z"/>
<path d="M160 1090 c0 -5 15 -10 33 -9 27 0 29 2 12 9 -28 12 -45 12 -45 0z"/>
<path d="M0 1061 c0 -25 2 -26 60 -27 49 -1 58 2 49 13 -6 7 -32 13 -58 14
-36 1 -41 3 -21 8 l25 7 -27 6 c-25 5 -28 2 -28 -21z"/>
</g>
</svg>
