<?xml version="1.0" standalone="no"?>
<!DOCTYPE svg PUBLIC "-//W3C//DTD SVG 20010904//EN"
 "http://www.w3.org/TR/2001/REC-SVG-20010904/DTD/svg10.dtd">
<svg version="1.0" xmlns="http://www.w3.org/2000/svg"
 width="259.000000pt" height="194.000000pt" viewBox="0 0 259.000000 194.000000"
 preserveAspectRatio="xMidYMid meet">

<g transform="translate(0.000000,194.000000) scale(0.100000,-0.100000)"
fill="#000000" stroke="none">
<path d="M2070 1695 c-8 -10 -21 -13 -33 -9 -14 4 -17 3 -12 -6 6 -10 3 -10
-10 -2 -13 7 -24 6 -37 -2 -14 -8 -21 -8 -27 3 -6 9 -11 10 -15 2 -5 -8 -13
-8 -26 -1 -13 7 -21 7 -25 0 -4 -6 -10 -8 -15 -5 -10 6 -8 -15 3 -33 5 -7 13
-9 19 -6 16 10 137 21 132 12 -3 -4 -23 -8 -45 -8 -28 0 -38 -4 -33 -12 5 -7
3 -8 -6 -3 -8 5 -19 1 -28 -11 -13 -16 -14 -17 -9 -1 5 14 2 16 -23 12 -25 -4
-31 -1 -35 18 -5 20 -13 24 -47 25 -23 1 -52 -5 -64 -13 -22 -14 -23 -14 -17
2 5 14 3 16 -7 6 -7 -6 -10 -19 -6 -29 4 -9 9 -14 12 -11 3 3 17 -1 30 -8 26
-13 76 -9 54 5 -8 5 -5 9 9 13 11 2 22 -1 24 -8 8 -20 -8 -36 -29 -29 -14 4
-15 3 -6 -4 8 -5 13 -13 11 -18 -1 -5 6 -11 15 -12 11 -3 16 0 12 7 -4 6 -2
11 4 11 6 0 8 5 5 10 -3 6 -1 10 4 10 6 0 11 -6 11 -14 0 -15 61 -31 69 -18 8
12 111 25 111 15 0 -4 11 -13 25 -20 19 -8 25 -8 25 1 0 6 12 13 26 14 15 1
54 6 88 12 69 11 102 13 94 4 -6 -6 -10 -7 -68 -17 -32 -6 -105 -16 -122 -17
-17 0 -7 -32 12 -37 11 -3 20 -9 20 -14 0 -5 25 -9 55 -9 53 0 72 -11 39 -24
-24 -9 -36 -7 -29 5 5 7 -4 9 -26 7 -18 -2 -35 -9 -37 -17 -3 -10 0 -12 11 -8
9 3 17 2 19 -2 2 -4 66 -4 143 1 77 4 154 8 170 8 44 -1 105 11 105 20 0 4
-18 7 -40 6 -22 0 -40 -4 -40 -8 0 -5 -5 -8 -11 -8 -8 0 -8 4 0 14 9 11 5 14
-23 18 -19 2 -43 0 -53 -4 -15 -7 -15 -8 3 -4 12 2 28 0 35 -5 9 -5 -8 -9 -44
-9 -36 0 -56 4 -52 10 4 6 -6 10 -22 11 l-28 1 25 7 c14 4 24 13 23 19 -2 7 0
12 5 13 4 0 15 2 25 4 9 2 17 -1 17 -7 0 -6 11 -8 28 -4 20 5 23 4 12 -4 -12
-8 -11 -10 7 -10 16 0 20 5 16 19 -2 10 2 25 11 34 14 14 13 17 -10 32 -14 9
-42 16 -62 14 -20 -1 -48 3 -62 9 -14 5 -28 8 -32 5 -5 -2 -8 1 -8 7 0 7 9 14
20 17 11 3 20 9 20 14 0 13 -47 11 -55 -1 -5 -8 -12 -7 -22 2 -12 10 -15 9
-13 -7 5 -49 2 -53 -41 -45 -22 4 -46 13 -52 20 -9 9 -5 10 18 5 20 -5 26 -4
16 3 -11 8 -11 10 0 15 8 3 1 6 -16 6 -21 1 -26 4 -16 10 11 7 10 10 -5 13
-11 2 -28 -7 -41 -23 -17 -20 -29 -25 -54 -21 -21 3 -27 7 -18 13 7 4 18 5 24
2 5 -4 7 -3 3 2 -4 4 -3 14 3 22 6 7 9 13 6 13 -2 0 -10 -7 -17 -15z m76 -50
c1 -8 -4 -15 -12 -15 -14 0 -19 21 -7 33 8 9 16 1 19 -18z m-383 0 c-3 -9 -8
-14 -10 -11 -3 3 -2 9 2 15 9 16 15 13 8 -4z m342 -15 c3 -5 16 -10 28 -11 12
0 16 -3 9 -6 -6 -2 -10 -8 -8 -12 3 -4 -4 -8 -15 -8 -10 -1 -19 3 -19 8 0 6
-7 6 -19 -1 -25 -13 -41 -13 -41 0 0 6 6 10 14 10 8 0 16 7 20 15 6 17 22 20
31 5z m-75 -20 c0 -5 -6 -10 -14 -10 -8 0 -18 5 -21 10 -3 6 3 10 14 10 12 0
21 -4 21 -10z m210 0 c0 -5 -7 -10 -16 -10 -8 0 -12 5 -9 10 3 6 10 10 16 10
5 0 9 -4 9 -10z m160 1 c0 -5 -10 -13 -21 -16 -15 -5 -18 -10 -9 -15 8 -5 3
-9 -14 -12 -20 -4 -24 -2 -16 7 8 9 7 15 -2 18 -7 3 -1 6 14 6 15 1 30 6 33
11 8 13 15 13 15 1z m39 -8 c-23 -14 -23 -14 11 -9 32 5 33 4 17 -8 -11 -8
-25 -12 -33 -9 -8 3 -14 1 -14 -4 0 -5 -7 -10 -15 -10 -18 0 -18 0 -4 30 8 17
19 25 37 25 l25 0 -24 -15z m-558 -16 c-10 -9 -11 -8 -5 6 3 10 9 15 12 12 3
-3 0 -11 -7 -18z m294 13 c-3 -5 -11 -10 -16 -10 -6 0 -7 5 -4 10 3 6 11 10
16 10 6 0 7 -4 4 -10z m-198 -6 c-3 -3 -12 -4 -19 -1 -8 3 -5 6 6 6 11 1 17
-2 13 -5z m197 -52 c3 -5 -1 -9 -9 -9 -8 0 -12 4 -9 9 3 4 7 8 9 8 2 0 6 -4 9
-8z m106 -16 c0 -2 -11 -6 -25 -8 -14 -3 -25 -1 -25 3 0 5 11 9 25 9 14 0 25
-2 25 -4z m-73 -12 c-3 -3 -12 -4 -19 -1 -8 3 -5 6 6 6 11 1 17 -2 13 -5z"/>
<path d="M2093 1685 c-3 -9 -3 -19 1 -22 3 -4 6 1 6 10 0 8 6 18 13 20 9 4 9
6 -1 6 -7 1 -15 -6 -19 -14z"/>
<path d="M2437 1665 c-15 -14 -24 -25 -18 -25 5 0 12 4 15 9 3 4 17 6 31 3 15
-2 25 0 25 7 0 6 -5 11 -11 11 -5 0 -7 5 -4 10 11 18 -10 10 -38 -15z"/>
<path d="M1155 1670 c-3 -5 1 -10 9 -10 9 0 16 5 16 10 0 6 -4 10 -9 10 -6 0
-13 -4 -16 -10z"/>
<path d="M988 1663 c7 -3 16 -2 19 1 4 3 -2 6 -13 5 -11 0 -14 -3 -6 -6z"/>
<path d="M7 1653 c7 -2 19 -2 26 0 6 3 1 5 -13 5 -14 0 -19 -2 -13 -5z"/>
<path d="M923 1653 c9 -2 23 -2 30 0 6 3 -1 5 -18 5 -16 0 -22 -2 -12 -5z"/>
<path d="M2230 1650 c-13 -8 -12 -10 3 -10 9 0 17 5 17 10 0 12 -1 12 -20 0z"/>
<path d="M2380 1650 c-13 -8 -12 -10 3 -10 9 0 17 5 17 10 0 12 -1 12 -20 0z"/>
<path d="M1630 1640 c0 -5 14 -10 31 -10 17 0 28 4 24 10 -3 6 -17 10 -31 10
-13 0 -24 -4 -24 -10z"/>
<path d="M2490 1638 c-16 -7 -20 -12 -12 -15 8 -3 21 2 30 11 19 18 17 19 -18
4z"/>
<path d="M1200 1619 c-12 -9 -11 -10 8 -6 12 3 22 1 22 -4 0 -5 8 -9 17 -9 15
0 14 2 -3 15 -23 17 -25 18 -44 4z"/>
<path d="M1298 1623 c7 -3 16 -2 19 1 4 3 -2 6 -13 5 -11 0 -14 -3 -6 -6z"/>
<path d="M1380 1619 c0 -5 5 -7 10 -4 6 3 10 8 10 11 0 2 -4 4 -10 4 -5 0 -10
-5 -10 -11z"/>
<path d="M723 1613 c-13 -2 -23 -9 -23 -14 0 -6 9 -7 21 -4 15 5 19 4 15 -4
-4 -6 0 -11 10 -11 13 0 14 3 5 13 -6 8 -8 17 -4 20 3 4 4 6 2 6 -2 -1 -14 -4
-26 -6z"/>
<path d="M168 1603 c7 -3 16 -2 19 1 4 3 -2 6 -13 5 -11 0 -14 -3 -6 -6z"/>
<path d="M650 1600 c0 -5 6 -10 13 -13 6 -2 9 -8 5 -12 -11 -11 -90 -12 -105
-1 -9 6 -13 3 -13 -8 0 -9 -8 -16 -17 -16 -15 0 -16 2 -3 10 11 7 11 10 2 10
-7 0 -10 5 -6 11 4 8 -23 9 -92 4 -146 -9 -145 -9 -139 -22 2 -7 -1 -13 -8
-13 -9 0 -9 -2 0 -8 7 -5 9 -13 4 -21 -7 -11 -10 -9 -16 8 -3 11 -3 25 0 31 4
6 -5 10 -19 10 -27 0 -36 -24 -13 -34 6 -3 2 -3 -10 0 -14 3 -23 1 -23 -6 0
-6 -6 -8 -12 -4 -10 6 -10 4 -1 -7 16 -16 17 -37 2 -22 -6 6 -18 9 -25 6 -8
-3 -14 0 -14 7 0 6 -4 9 -9 6 -5 -3 -12 1 -15 10 -3 8 -10 13 -15 9 -5 -3 -12
-2 -15 3 -3 5 10 9 29 9 25 0 35 -5 36 -16 0 -10 2 -12 6 -3 2 6 11 12 18 12
7 0 16 7 19 16 5 14 -3 15 -71 10 -43 -4 -92 -9 -110 -12 -32 -6 -32 -6 -32
-66 1 -58 1 -60 25 -54 19 5 22 3 17 -10 -5 -14 0 -15 35 -10 27 3 42 1 46 -7
2 -7 5 1 5 16 1 19 5 26 13 21 7 -4 8 -3 4 5 -4 6 -12 9 -17 6 -5 -4 -9 3 -9
14 0 12 -4 21 -10 21 -13 0 -13 -27 0 -35 6 -4 5 -11 -3 -19 -10 -11 -17 -10
-39 6 -16 10 -34 16 -40 12 -10 -5 -10 -4 -1 6 9 10 18 9 43 -4 25 -12 30 -13
20 -1 -6 8 -9 18 -6 24 3 5 -3 7 -14 4 -25 -7 -26 9 -2 34 9 10 14 14 10 9
-14 -17 -8 -29 7 -16 17 14 45 7 45 -13 0 -9 12 -13 35 -12 19 0 35 -3 35 -8
0 -4 11 3 24 17 13 15 26 26 30 26 11 0 6 -36 -7 -49 -6 -8 3 -3 21 10 18 13
35 33 38 45 3 12 17 27 30 33 32 14 35 14 28 -4 -4 -8 -15 -15 -25 -15 -10 0
-19 -4 -19 -10 0 -5 7 -7 15 -4 8 4 15 3 15 0 0 -4 -10 -11 -22 -16 l-23 -9
23 0 c12 -1 22 -5 22 -10 0 -6 -12 -9 -27 -7 -17 1 -35 -5 -46 -18 -33 -37
-12 -51 25 -16 22 20 44 27 34 11 -4 -5 3 -7 14 -4 11 3 20 1 20 -5 0 -6 10
-8 22 -4 14 3 19 1 14 -6 -3 -6 -1 -14 5 -18 8 -4 9 -3 5 5 -4 6 0 14 8 17 18
7 22 34 6 34 -5 0 -10 -4 -10 -9 0 -5 -8 -8 -17 -6 -10 2 -24 4 -30 4 -7 1
-13 8 -13 17 0 12 6 15 24 10 24 -6 86 20 86 37 0 4 8 7 18 7 14 0 15 2 2 10
-10 6 -17 5 -22 -4 -4 -8 -19 -17 -33 -20 -14 -4 -25 -11 -25 -16 0 -6 -5 -10
-11 -10 -5 0 -7 4 -4 10 4 6 -3 6 -21 0 -22 -9 -25 -8 -20 6 3 8 6 17 6 20 0
2 6 1 13 -2 7 -2 31 0 52 5 22 5 32 9 23 10 -10 1 -18 5 -18 11 0 5 7 7 15 4
8 -4 22 -1 30 6 15 13 39 4 30 -11 -4 -5 4 -14 17 -19 19 -9 19 -10 3 -7 -22
4 -35 -6 -54 -41 -10 -20 -9 -23 11 -32 16 -6 18 -9 7 -9 -20 -1 -33 -28 -16
-35 8 -3 9 -7 2 -13 -13 -10 -13 -42 0 -51 22 -16 13 -33 -29 -54 -26 -12 -42
-26 -39 -34 2 -7 -6 -18 -18 -25 l-23 -12 23 -18 c28 -23 20 -38 -15 -31 -16
3 -29 -1 -35 -9 -11 -18 -21 -6 -21 26 0 17 -5 24 -13 21 -8 -3 -16 2 -19 10
-3 8 -12 14 -21 14 -18 0 -19 -5 -4 -31 9 -18 7 -19 -16 -13 -21 5 -24 3 -19
-10 6 -14 2 -16 -22 -10 -20 4 -26 3 -19 -4 6 -5 19 -12 30 -15 15 -3 13 -5
-8 -6 -18 -1 -26 -5 -21 -12 7 -11 -13 -9 -68 7 -12 3 -18 0 -18 -9 0 -8 -12
-18 -26 -21 -32 -8 -44 -1 -14 9 23 7 23 25 -1 35 -8 4 -24 12 -36 19 -21 10
-23 9 -23 -18 0 -16 6 -32 13 -34 9 -4 8 -8 -3 -16 -13 -10 -13 -12 0 -22 11
-8 12 -12 3 -16 -15 -5 -18 -83 -4 -83 5 0 12 -7 15 -16 4 -12 2 -15 -9 -10
-13 5 -15 -21 -15 -204 0 -195 1 -209 18 -204 16 5 16 5 0 -6 -10 -6 -18 -20
-18 -30 0 -21 15 -27 25 -11 3 6 16 4 31 -4 15 -7 33 -11 40 -8 8 3 14 0 14
-6 0 -6 -14 -14 -31 -18 -22 -4 -27 -8 -17 -14 10 -7 9 -9 -4 -9 -10 0 -18 -7
-18 -15 0 -10 9 -13 36 -9 20 2 51 0 68 -5 38 -10 65 5 63 33 -1 11 5 20 16
21 11 2 15 -1 10 -8 -5 -9 -3 -9 8 0 8 6 17 12 22 12 4 1 8 1 10 2 22 7 38 4
48 -8 7 -8 8 -13 3 -12 -5 1 -15 1 -23 0 -11 -1 -11 -4 0 -18 12 -14 12 -16
-1 -9 -8 4 -6 1 4 -8 10 -8 24 -13 29 -9 6 4 8 0 4 -10 -4 -10 -2 -16 5 -14 6
1 13 -4 15 -10 3 -8 -3 -13 -14 -13 -15 0 -16 -2 -3 -10 22 -14 28 -12 35 10
4 11 11 18 16 15 5 -4 9 -2 9 4 0 5 18 8 40 6 22 -2 38 0 35 5 -3 4 3 7 12 6
10 -2 19 -10 21 -18 2 -11 -4 -15 -22 -13 -14 2 -33 -3 -43 -10 -17 -13 -17
-14 2 -9 11 2 43 -2 70 -10 42 -12 47 -15 28 -21 -33 -11 -28 -20 12 -22 19
-1 35 3 35 8 0 5 -4 9 -10 9 -5 0 -10 10 -10 22 0 21 0 21 15 2 11 -14 15 -16
15 -4 0 12 3 12 11 -2 7 -12 6 -24 -3 -40 -7 -13 -14 -24 -15 -26 -1 -2 -11 2
-23 8 -18 10 -24 9 -31 -1 -8 -12 -11 -11 -19 1 -7 12 -9 10 -7 -8 1 -16 6
-21 19 -16 16 5 17 2 8 -21 -14 -36 -13 -38 8 -17 13 12 16 22 10 34 -6 12 -5
18 2 18 6 0 14 -10 19 -22 7 -18 4 -25 -10 -33 -12 -7 -15 -15 -10 -25 5 -8
12 -25 15 -37 6 -18 4 -21 -15 -16 -17 5 -20 3 -14 -7 5 -9 4 -11 -3 -6 -11 7
-17 -10 -13 -40 2 -18 -28 -12 -34 7 -3 9 -5 21 -4 25 1 5 -1 21 -5 36 -6 19
-12 25 -24 21 -10 -5 -13 -3 -8 6 5 7 14 10 22 7 8 -3 14 -1 14 5 0 6 5 7 10
4 6 -3 10 1 10 10 0 13 -4 14 -22 4 -13 -7 -25 -11 -28 -9 -3 1 -9 -7 -15 -19
-13 -28 -55 -29 -50 -1 2 11 0 18 -6 15 -5 -4 -9 -2 -9 3 0 5 -9 12 -19 15
-15 3 -19 0 -18 -14 1 -10 7 -21 15 -24 7 -3 10 -9 7 -15 -3 -6 1 -7 9 -4 12
4 16 0 16 -17 0 -12 -3 -20 -6 -16 -8 7 -54 -33 -54 -48 0 -6 13 -10 30 -9 17
1 33 -3 37 -9 3 -5 2 -7 -4 -4 -5 4 -10 -7 -10 -24 0 -19 3 -25 9 -17 6 11 8
10 8 0 0 -11 3 -10 14 1 8 8 13 25 10 38 -3 15 3 9 16 -16 11 -22 18 -31 15
-19 -4 15 1 24 20 32 24 11 36 0 15 -13 -15 -9 -12 -35 4 -35 8 0 17 6 19 13
4 9 6 9 6 0 1 -19 19 -16 23 4 3 15 4 15 20 0 12 -12 18 -14 21 -4 4 9 8 9 14
0 6 -8 13 -8 26 2 17 12 17 14 -5 36 -21 20 -21 21 -3 15 39 -15 51 -14 76 6
13 11 18 17 11 13 -7 -3 -15 1 -18 10 -4 9 -10 12 -13 7 -3 -5 -15 -6 -26 -1
-17 6 -17 8 -2 8 9 1 17 7 17 15 0 7 7 19 15 26 9 8 15 8 15 2 0 -6 -6 -12
-12 -14 -15 -5 13 -38 32 -38 8 0 10 -9 5 -27 -4 -16 -3 -24 1 -20 11 11 14
68 3 61 -5 -3 -9 5 -9 17 0 21 1 22 20 4 23 -20 27 -19 30 10 4 39 1 48 -14
36 -18 -15 -66 -10 -66 8 0 8 3 11 7 8 3 -4 15 0 25 10 17 15 18 15 19 -8 1
-17 3 -19 6 -6 3 12 12 16 30 13 22 -5 24 -2 19 19 -6 23 -4 24 18 15 13 -5
27 -6 30 -3 3 4 6 1 6 -5 0 -5 -6 -13 -12 -16 -10 -5 -10 -7 0 -12 6 -3 10
-10 6 -15 -3 -5 0 -9 5 -9 8 0 7 -7 -1 -19 -7 -11 -16 -17 -20 -15 -5 3 -5 10
-2 16 4 7 2 8 -4 4 -8 -5 -9 -13 -2 -25 5 -10 6 -21 3 -25 -3 -3 -2 -6 3 -6 6
0 15 5 21 11 13 13 36 2 27 -13 -4 -7 -9 -6 -14 1 -4 8 -16 0 -34 -23 -15 -20
-36 -36 -47 -36 -11 0 -19 -7 -20 -17 0 -16 -1 -16 -8 1 -7 18 -8 18 -14 2 -4
-9 -11 -14 -17 -11 -6 4 -7 -1 -3 -10 5 -13 7 -14 14 -3 7 10 9 10 9 1 0 -10
24 -13 85 -13 69 0 85 3 85 15 0 8 -5 15 -11 15 -5 0 -7 5 -4 10 8 13 25 13
25 -1 0 -6 7 -17 15 -25 15 -16 20 -9 16 24 -1 6 3 12 9 12 6 0 8 5 5 10 -3 6
1 10 9 10 9 0 16 5 16 11 0 6 7 9 15 6 8 -4 17 -2 20 2 2 5 -8 11 -25 14 -20
4 -34 16 -45 40 -14 29 -20 34 -45 31 -40 -5 -38 13 3 22 71 16 77 15 77 -17
0 -26 3 -29 31 -29 23 0 32 -5 36 -21 3 -11 11 -18 18 -15 8 3 16 -3 20 -12 5
-14 8 -14 15 -2 12 19 40 21 57 4 8 -8 19 -14 24 -14 15 0 10 17 -6 24 -31 12
-13 21 37 19 70 -2 102 5 127 28 11 11 25 19 30 19 6 0 8 6 5 13 -5 14 82 64
93 53 3 -3 20 5 37 18 57 43 166 56 166 21 0 -8 9 -16 19 -20 11 -3 23 -15 26
-26 6 -17 17 -23 38 -20 4 0 7 -8 7 -19 0 -11 3 -20 8 -21 4 0 15 -2 25 -4 9
-2 17 1 17 6 0 5 7 9 15 9 8 0 15 -6 15 -14 0 -21 20 -30 33 -17 18 18 37 13
68 -20 17 -19 35 -29 44 -25 8 3 15 1 15 -4 0 -5 10 -11 23 -15 12 -3 39 -13
59 -22 34 -14 39 -14 62 1 14 9 33 16 42 16 9 0 39 11 67 25 58 30 92 24 133
-21 17 -18 30 -23 44 -19 13 4 33 -2 54 -14 33 -21 33 -21 56 -1 13 11 18 20
11 20 -7 0 -10 4 -7 9 3 5 15 7 26 4 20 -5 20 0 20 220 l0 225 -30 7 c-16 4
-30 11 -30 15 0 5 -8 6 -17 3 -12 -5 -15 -2 -10 10 5 14 2 16 -18 11 -14 -3
-25 -2 -25 4 0 5 -10 13 -22 17 -16 4 -19 8 -9 12 10 4 8 9 -10 19 -14 8 -18
13 -9 14 30 0 60 -13 60 -26 0 -7 5 -16 12 -20 8 -5 9 -2 5 9 -8 21 6 22 23 2
7 -8 28 -15 46 -15 36 0 46 15 17 23 -17 4 -17 5 0 6 16 1 17 10 15 88 -3 85
-3 87 -31 94 -15 4 -64 9 -110 11 -45 2 -84 6 -87 10 -6 8 -41 16 -73 17 -10
1 -16 5 -12 10 3 6 -6 8 -21 5 -14 -3 -36 -2 -47 2 l-22 7 22 8 c15 5 21 14
17 24 -9 22 152 22 184 -1 12 -8 22 -12 22 -8 0 3 6 1 14 -5 11 -9 18 -8 31 6
13 12 31 16 66 14 48 -2 49 -2 49 27 0 17 -6 32 -15 36 -8 3 -15 1 -15 -4 0
-6 -4 -10 -10 -10 -5 0 -10 7 -10 16 0 12 7 15 25 12 14 -3 25 -1 25 3 0 12
-57 11 -65 -1 -3 -5 -11 -10 -16 -10 -6 0 -4 7 5 15 8 8 28 15 45 15 21 0 31
5 31 15 0 12 -17 13 -102 9 -161 -8 -228 -6 -228 7 0 10 79 16 89 6 4 -4 21
-1 37 8 18 9 56 15 103 15 41 0 72 3 68 6 -8 9 -166 5 -210 -5 -21 -5 -39 -5
-43 0 -3 5 -13 9 -22 9 -15 0 -15 -2 -2 -10 13 -8 12 -10 -3 -10 -10 0 -25 -7
-33 -15 -13 -13 -13 -15 -1 -15 8 0 17 -10 21 -22 9 -34 8 -38 -10 -38 -8 0
-13 4 -10 8 2 4 1 14 -3 21 -6 9 -8 4 -8 -14 0 -15 -4 -30 -9 -34 -5 -3 -9
-12 -10 -18 -1 -7 -2 -17 -2 -22 -1 -5 -22 -19 -47 -31 -43 -21 -62 -36 -29
-23 14 5 15 3 3 -18 l-12 -24 -13 30 c-7 17 -13 24 -14 17 0 -7 -4 -10 -10 -7
-5 3 -7 0 -4 -8 3 -8 -3 -20 -12 -28 -10 -8 -15 -9 -12 -4 4 6 4 16 0 22 -5 8
-17 1 -34 -18 -19 -20 -23 -29 -13 -29 8 0 15 -7 15 -16 0 -11 -6 -14 -21 -9
-12 4 -19 3 -16 -2 3 -5 -7 -14 -23 -20 -24 -9 -27 -8 -25 6 2 9 4 19 4 23 1
4 10 10 21 13 11 3 20 15 20 26 0 10 7 19 15 19 8 0 15 4 15 9 0 5 14 23 31
40 17 17 26 31 21 31 -6 0 -26 -16 -46 -36 -24 -24 -40 -34 -47 -27 -6 6 -1
14 13 22 13 6 32 30 42 51 11 22 26 40 34 40 7 0 26 9 42 20 15 11 39 24 54
30 14 5 26 16 26 25 0 9 9 15 25 15 14 0 25 4 25 9 0 5 -9 7 -20 4 -14 -4 -20
-1 -18 8 2 9 -4 13 -16 11 -11 -2 -15 1 -11 7 3 6 24 11 45 11 21 0 42 4 45
10 4 6 -9 7 -35 4 -22 -3 -40 -2 -40 4 0 13 47 62 60 62 6 0 8 4 5 10 -3 6 1
7 9 4 9 -3 16 -1 16 5 0 6 -8 11 -17 10 -20 0 -63 -17 -49 -18 5 -1 2 -8 -5
-18 -18 -22 -89 -53 -106 -46 -7 3 -13 0 -13 -6 0 -6 -19 -19 -42 -30 -24 -11
-35 -20 -25 -21 11 0 15 -5 11 -11 -3 -6 -14 -9 -24 -6 -13 3 -17 0 -13 -10 3
-8 0 -13 -8 -11 -20 4 -31 60 -15 73 7 6 13 14 14 20 0 5 6 11 14 13 9 2 8 0
-2 -7 -11 -8 -12 -11 -2 -11 7 0 10 -5 6 -12 -4 -7 -3 -8 5 -4 6 4 9 11 6 16
-3 5 3 14 12 20 17 11 17 11 1 6 -30 -9 -20 12 12 29 17 9 39 13 50 10 12 -4
23 1 33 15 14 19 16 20 24 5 9 -15 11 -15 24 1 12 16 12 17 -2 12 -9 -4 -16
-1 -16 8 0 7 4 11 9 8 4 -3 5 2 2 10 -4 11 0 16 15 16 12 0 21 5 21 11 0 7 -9
9 -21 6 -15 -4 -19 -2 -15 9 3 8 1 14 -4 14 -6 0 -10 -8 -10 -17 -1 -23 -51
-72 -79 -78 -27 -5 -27 6 0 25 48 33 70 53 65 57 -2 3 -13 -3 -23 -11 -47 -42
-90 -73 -107 -79 -11 -4 -16 -13 -12 -22 3 -8 0 -17 -6 -21 -6 -4 -8 -3 -5 3
9 14 -29 47 -42 38 -6 -3 -11 1 -11 10 0 11 6 14 23 10 16 -4 29 1 42 17 16
17 16 20 3 9 -20 -15 -25 -2 -6 17 9 9 9 12 -1 12 -11 0 -11 3 -1 15 10 12 10
15 0 15 -8 0 -10 9 -6 26 5 17 3 23 -4 19 -5 -3 -10 -1 -10 4 0 6 4 11 9 11
15 0 23 35 15 65 -6 24 -8 25 -23 10 -10 -8 -22 -15 -28 -15 -5 0 -10 -7 -10
-15 0 -8 4 -15 9 -15 5 0 4 -10 -3 -21 -10 -19 -13 -20 -26 -7 -15 16 -67 12
-57 -3 3 -5 0 -9 -6 -9 -14 0 -4 -54 15 -85 18 -28 29 -95 15 -95 -5 0 -10 -8
-9 -17 0 -11 3 -13 6 -5 8 21 21 13 32 -20 9 -26 8 -36 -6 -57 -16 -25 -16
-25 2 -11 17 14 18 13 12 -3 -4 -11 -3 -16 4 -12 6 4 8 14 5 24 -4 9 2 5 13
-9 19 -24 19 -24 -2 -35 -12 -6 -24 -9 -27 -6 -22 25 -55 -19 -37 -49 10 -17
-7 -70 -23 -70 -5 0 -10 -6 -10 -13 0 -9 11 -12 35 -11 24 2 35 -1 35 -11 0
-22 -52 -57 -77 -52 -13 2 -23 0 -23 -4 0 -5 5 -9 10 -9 6 0 10 -12 10 -27 0
-18 -3 -23 -8 -15 -6 9 -14 7 -30 -8 -21 -19 -24 -20 -45 -5 -12 8 -21 18 -19
20 7 15 0 17 -9 3 -5 -10 -19 -18 -30 -18 -14 0 -18 4 -12 13 4 6 8 16 8 21 0
5 7 11 15 13 13 4 13 3 0 -7 -13 -10 -13 -11 0 -7 9 2 14 13 12 25 -2 15 2 22
12 22 10 0 16 9 16 25 0 23 -3 25 -27 19 -38 -9 -47 -15 -34 -23 6 -4 -11 -13
-38 -20 -37 -9 -49 -17 -48 -30 1 -22 37 -16 37 6 0 9 6 13 15 9 8 -3 15 -1
15 4 0 6 7 10 15 10 13 0 13 -3 3 -20 -7 -11 -19 -20 -26 -20 -7 0 -10 -5 -7
-11 4 -6 1 -10 -6 -8 -8 1 -23 1 -34 0 -19 -2 -19 -2 -2 -15 15 -12 15 -15 2
-26 -12 -10 -15 -10 -15 3 0 9 -5 19 -12 23 -7 5 -8 2 -3 -7 6 -10 5 -11 -4
-3 -16 14 -28 90 -13 80 6 -3 13 -2 16 2 8 14 -34 54 -50 48 -9 -3 -16 4 -20
22 -3 15 -7 33 -10 39 -4 17 11 60 20 53 3 -3 17 13 30 35 21 35 22 40 9 51
-13 9 -13 13 -3 19 9 6 11 4 5 -6 -7 -11 -5 -11 9 1 23 18 7 24 -41 15 -24 -4
-32 -9 -24 -14 10 -6 9 -10 -3 -14 -9 -4 -16 -1 -17 6 0 7 -4 2 -9 -9 -9 -22
-69 -40 -66 -20 3 23 17 34 63 51 51 20 98 54 55 41 -13 -5 -23 -3 -23 3 -3
26 -4 30 -10 36 -4 3 -9 -1 -12 -10 -4 -8 -1 -15 5 -15 8 0 7 -5 -2 -14 -21
-19 -77 -28 -84 -13 -2 7 -5 5 -6 -5 -4 -28 -5 -32 -13 -45 -5 -7 -18 -13 -30
-13 -19 1 -18 3 8 16 l30 14 -28 -5 c-15 -3 -27 -2 -26 2 3 20 -2 24 -16 13
-17 -14 -21 -35 -5 -25 6 3 10 2 10 -3 0 -11 -51 -35 -59 -27 -3 3 1 10 8 14
8 5 9 11 3 15 -5 3 -17 -3 -27 -14 -10 -11 -25 -20 -34 -21 -11 0 -12 -2 -3
-6 7 -3 19 1 27 7 8 7 15 8 15 3 0 -5 -16 -17 -35 -26 -42 -20 -54 -22 -37 -5
7 7 12 22 12 34 0 13 5 26 12 30 7 4 8 3 4 -4 -10 -16 5 -15 27 2 13 10 15 15
5 18 -7 3 2 5 21 6 18 0 40 7 50 15 9 8 32 18 51 22 19 4 37 11 40 15 8 11
124 70 139 70 8 0 11 6 7 15 -3 10 1 15 14 15 10 0 25 6 32 13 7 8 20 16 28
20 10 3 8 6 -7 6 -13 1 -60 -20 -105 -45 -97 -53 -199 -97 -207 -88 -3 4 0 9
7 11 6 3 10 9 7 13 -3 5 0 12 6 16 8 4 9 3 5 -4 -11 -18 -7 -16 105 39 65 31
117 65 137 87 19 20 31 31 27 25 -3 -7 -1 -13 4 -13 6 0 11 5 11 11 0 7 15 9
41 6 38 -4 40 -3 25 11 -10 10 -33 17 -56 17 -22 0 -40 1 -40 3 0 2 14 17 32
34 l31 29 -29 -6 c-27 -7 -28 -6 -9 8 11 8 30 17 43 21 25 8 29 28 8 45 -11 9
-22 7 -50 -9 -19 -12 -39 -19 -43 -17 -4 3 -14 -2 -22 -10 -12 -13 -11 -14 8
-8 11 3 21 2 21 -3 0 -8 -219 -122 -234 -122 -16 0 -3 21 22 34 15 8 23 15 19
16 -5 0 -17 -5 -28 -10 -20 -11 -24 -4 -13 24 3 9 10 13 15 10 5 -3 6 2 3 10
-4 11 0 16 11 16 9 0 13 -4 10 -10 -3 -6 1 -7 9 -4 9 3 13 11 10 16 -4 6 1 8
14 4 11 -4 23 -2 27 3 3 6 0 8 -8 5 -8 -3 -14 2 -14 11 0 8 4 15 9 15 4 0 8 4
8 8 0 5 -7 9 -16 9 -10 0 -14 -7 -11 -19 5 -16 3 -17 -9 -7 -10 8 -14 8 -14 0
0 -6 -3 -10 -7 -9 -19 5 -52 -14 -47 -26 3 -8 -4 -21 -16 -29 -13 -9 -17 -17
-11 -22 14 -8 14 -45 1 -45 -6 0 -14 -10 -19 -23 -5 -12 -19 -27 -32 -33 -154
-72 -204 -104 -165 -104 24 0 19 -28 -6 -36 -13 -4 -24 -6 -25 -6 -2 1 -17 -7
-35 -18 -18 -10 -49 -27 -68 -37 -19 -9 -39 -23 -43 -30 -5 -7 -12 -11 -18 -8
-5 4 -9 2 -9 -3 0 -11 -49 -34 -59 -27 -5 2 -20 -7 -35 -20 -15 -14 -39 -28
-54 -31 -15 -4 -29 -10 -32 -14 -3 -4 -16 -11 -30 -15 -45 -13 -2 20 85 65 44
23 112 60 150 81 70 39 81 45 111 54 8 3 12 10 8 16 -4 7 -3 9 2 6 6 -3 16 4
24 16 12 20 12 21 -3 9 -9 -8 -24 -12 -34 -10 -14 3 -11 8 15 21 17 10 32 20
32 23 0 6 -50 -20 -75 -40 l-20 -16 20 6 c15 4 12 -1 -10 -20 -16 -14 -35 -26
-42 -26 -6 0 -13 -5 -15 -11 -2 -5 -10 -11 -19 -12 -9 -2 -27 -10 -40 -18 -27
-17 -51 -27 -60 -25 -4 0 -15 -7 -25 -16 -11 -9 -31 -19 -46 -23 -15 -4 -32
-13 -39 -21 -13 -16 -29 -18 -29 -4 0 5 14 17 31 25 43 23 29 31 -16 10 -55
-27 -53 -10 4 22 28 15 51 31 51 36 0 4 6 7 14 7 7 0 19 7 26 15 7 9 19 14 26
11 15 -6 27 7 17 17 -7 8 -103 -44 -103 -55 0 -5 -7 -8 -15 -8 -8 0 -15 -4
-15 -10 0 -5 -9 -10 -20 -10 -18 0 -19 3 -10 20 6 11 19 20 29 20 10 0 24 7
31 15 7 8 16 13 20 10 4 -3 27 6 51 19 33 19 47 22 62 14 22 -12 47 4 26 17
-8 5 -10 4 -5 -3 4 -7 3 -12 -3 -12 -21 0 -8 61 17 80 32 26 48 26 22 0 -24
-24 -26 -42 -5 -34 8 4 15 13 15 21 0 8 4 12 9 8 5 -3 11 5 13 17 5 33 118 98
118 68 0 -5 -5 -10 -10 -10 -6 0 -21 -10 -33 -22 l-22 -21 36 21 c26 16 38 19
47 10 8 -8 6 -15 -6 -27 -10 -9 -13 -13 -8 -8 16 12 36 8 36 -8 0 -18 16 -20
26 -2 4 6 4 9 -1 5 -5 -5 -17 6 -27 22 -16 28 -17 33 -3 59 15 29 40 45 56 35
5 -3 9 0 9 6 0 6 5 8 10 5 6 -3 10 -2 10 3 0 5 16 14 36 20 30 9 33 8 23 -4
-6 -8 -17 -14 -25 -14 -7 0 -15 -4 -19 -9 -3 -6 7 -6 27 0 41 11 41 11 32 -3
-4 -7 -3 -8 5 -4 6 4 8 12 5 18 -4 6 -1 9 5 7 20 -7 16 -23 -8 -35 -32 -16
-36 -23 -9 -17 35 10 50 34 32 54 -13 15 -13 17 1 22 8 4 15 12 15 19 0 7 20
25 43 39 24 15 44 34 44 43 0 13 -5 12 -26 -8 -31 -28 -67 -41 -76 -26 -4 6 6
10 24 10 21 0 31 5 31 15 0 8 5 15 10 15 6 0 10 6 10 13 0 25 18 41 32 30 8
-6 21 -7 33 -2 18 7 17 8 -6 8 -14 1 -30 6 -36 12 -9 9 -16 8 -27 -3 -8 -9
-13 -18 -10 -21 3 -2 -6 -4 -18 -3 -17 1 -22 -4 -20 -16 2 -13 -2 -16 -14 -11
-13 5 -15 3 -9 -7 5 -9 4 -11 -3 -6 -7 4 -12 18 -12 32 0 15 -6 24 -15 24 -8
0 -15 -8 -15 -17 0 -14 -2 -15 -9 -4 -7 11 -10 9 -15 -7 -5 -13 -13 -19 -22
-15 -9 3 -14 0 -12 -7 3 -11 -101 -76 -107 -68 -1 2 -9 16 -17 32 l-15 29 -7
-44 c-5 -35 -12 -47 -33 -56 -40 -19 -51 -15 -24 8 26 21 20 40 -7 23 -9 -6
-18 -23 -20 -38 -2 -14 -10 -26 -18 -26 -8 0 -14 -4 -14 -10 0 -5 -5 -10 -10
-10 -6 0 -29 -12 -51 -26 -43 -27 -56 -26 -44 3 5 10 7 26 6 36 -2 10 6 25 16
33 10 7 13 14 6 14 -6 0 -15 -5 -18 -10 -4 -6 -11 -8 -16 -5 -5 4 -9 2 -9 -2
0 -5 -14 -17 -32 -27 -26 -16 -29 -21 -16 -30 8 -6 17 -21 20 -34 5 -19 -1
-27 -34 -48 -22 -14 -48 -24 -58 -21 -12 3 -17 0 -13 -8 4 -12 -54 -52 -62
-43 -10 12 -25 49 -25 61 0 14 99 72 107 63 11 -11 -11 -33 -29 -28 -14 3 -19
1 -14 -6 4 -7 -6 -20 -26 -32 -26 -16 -29 -20 -13 -20 17 0 18 -2 5 -11 -13
-9 -13 -10 0 -6 8 2 14 10 12 16 -3 14 59 53 74 47 6 -3 16 6 23 20 6 15 7 24
1 24 -6 0 -10 -8 -11 -17 0 -15 -2 -15 -8 2 -5 11 -6 24 -4 28 3 5 -4 4 -14
-2 -11 -6 -23 -7 -27 -4 -3 3 -6 1 -6 -5 0 -7 -3 -11 -7 -11 -5 1 -10 0 -13
-1 -3 -1 -13 -3 -23 -5 -16 -3 -15 0 5 19 13 12 27 21 31 18 13 -6 57 27 57
43 0 8 11 17 24 21 13 3 29 18 36 32 9 19 14 23 18 13 3 -8 0 -17 -6 -19 -7
-2 -12 -9 -12 -15 0 -8 3 -8 11 0 6 6 18 9 25 6 8 -3 20 0 28 6 7 6 16 7 20 3
4 -4 6 0 4 8 -2 9 4 14 15 14 21 -2 23 12 2 20 -8 3 -15 2 -15 -2 0 -4 -13
-16 -29 -25 -29 -17 -30 -17 -28 1 1 13 7 18 18 15 9 -3 20 0 24 6 11 19 -22
23 -53 7 -17 -9 -32 -12 -35 -8 -2 4 -2 1 0 -7 2 -8 -2 -11 -11 -8 -7 3 -22
-2 -33 -11 -10 -9 -25 -18 -33 -20 -8 -2 -22 -12 -30 -23 -10 -13 -22 -18 -33
-13 -12 4 -17 2 -15 -7 2 -7 -4 -14 -12 -15 -8 0 -21 -2 -27 -2 -7 -1 -13 -8
-13 -16 0 -8 -5 -18 -10 -21 -6 -4 -10 5 -8 23 1 18 7 28 14 25 7 -2 15 1 19
6 3 6 11 8 17 5 7 -5 9 -1 5 9 -4 10 0 20 11 26 9 6 12 11 6 11 -6 0 -17 -7
-24 -15 -7 -8 -18 -15 -25 -15 -7 0 -24 -12 -39 -27 -21 -21 -25 -22 -20 -7 4
10 14 25 22 32 14 11 14 12 -4 12 -18 1 -18 1 -1 14 15 11 16 18 8 34 -9 17
-6 23 14 36 25 17 51 13 40 -5 -4 -5 1 -9 10 -9 10 0 13 -5 9 -12 -4 -6 -3 -8
4 -4 6 3 18 -2 28 -11 15 -15 17 -16 12 -2 -4 9 -1 22 5 28 8 8 7 11 -6 11 -9
0 -17 -5 -17 -12 0 -6 -8 -4 -19 6 -20 18 -21 53 -2 49 6 -2 11 2 11 7 0 6 5
10 11 10 5 0 7 -4 4 -10 -3 -5 -1 -18 4 -27 9 -16 10 -16 11 4 0 16 9 25 35
33 39 13 46 35 15 43 -11 3 -20 1 -20 -3z m597 -62 c-3 -7 -5 -2 -5 12 0 14 2
19 5 13 2 -7 2 -19 0 -25z m-837 12 c0 -5 -5 -10 -11 -10 -5 0 -7 5 -4 10 3 6
8 10 11 10 2 0 4 -4 4 -10z m780 -70 c0 -5 -57 -34 -70 -35 -3 0 -15 -6 -27
-13 -19 -11 -23 -10 -23 2 0 20 34 38 56 29 11 -4 15 -3 11 4 -4 6 -2 13 4 15
17 6 49 4 49 -2z m34 -25 c4 -11 -13 -24 -60 -47 -55 -27 -67 -30 -75 -17 -8
11 -9 10 -7 -6 2 -11 -1 -20 -7 -20 -5 0 -22 -9 -37 -19 -15 -10 -33 -14 -39
-10 -8 4 -9 3 -5 -4 7 -11 3 -14 -26 -16 -7 -1 -16 -5 -20 -11 -5 -6 -8 -5 -8
3 0 20 47 62 70 62 11 0 20 5 20 11 0 6 5 9 12 7 6 -2 20 4 31 15 10 10 25 16
33 13 8 -3 13 -2 10 3 -5 8 21 19 69 28 11 2 22 8 23 13 5 14 9 12 16 -5z
m-184 -39 c0 -14 -59 -50 -67 -42 -3 2 5 14 17 26 18 18 24 20 31 9 7 -11 9
-10 9 4 0 9 2 17 5 17 3 0 5 -6 5 -14z m510 0 c0 -2 -7 -7 -16 -10 -8 -3 -12
-2 -9 4 6 10 25 14 25 6z m-59 -36 c-13 -11 -31 -20 -41 -20 -11 0 -20 -10
-23 -27 -3 -16 -4 -29 -2 -31 7 -7 65 29 65 41 0 8 -3 9 -8 1 -10 -14 -42 -26
-42 -14 0 9 31 22 60 25 8 2 24 6 35 9 37 13 -44 -46 -96 -71 -39 -18 -50 -20
-45 -8 3 8 2 15 -2 15 -13 0 -27 -15 -27 -29 0 -8 -7 -17 -15 -19 -12 -4 -13
-2 -3 9 7 9 8 20 3 28 -4 8 -6 20 -3 27 7 18 63 50 102 59 17 3 33 11 36 16 4
5 12 9 18 9 7 -1 1 -10 -12 -20z m-726 -10 c-3 -5 -12 -10 -18 -10 -7 0 -6 4
3 10 19 12 23 12 15 0z m195 -5 c0 -2 -12 -11 -27 -19 -16 -8 -22 -15 -15 -16
19 0 14 -16 -10 -29 l-23 -11 24 6 c16 4 21 3 17 -5 -4 -6 -14 -11 -22 -11 -8
0 -14 -3 -14 -8 0 -4 -9 -13 -21 -20 -18 -11 -23 -11 -36 5 -11 14 -14 15 -10
2 3 -9 1 -22 -4 -30 -7 -11 -9 -11 -9 -1 0 9 -8 11 -22 8 -13 -3 -17 -3 -11 0
8 3 11 15 7 29 -3 12 -1 26 4 29 6 4 8 -3 5 -15 -6 -21 -5 -21 21 -4 26 17 27
17 42 -1 15 -18 15 -18 11 2 -3 16 2 25 21 33 13 7 22 14 19 18 -11 11 14 43
33 43 11 0 20 -2 20 -5z m-170 -9 c0 -3 -4 -8 -10 -11 -5 -3 -10 -1 -10 4 0 6
5 11 10 11 6 0 10 -2 10 -4z m100 -26 c0 -5 -7 -10 -16 -10 -8 0 -12 5 -9 10
3 6 10 10 16 10 5 0 9 -4 9 -10z m-43 -15 c0 -8 -4 -12 -9 -9 -5 3 -6 10 -3
15 9 13 12 11 12 -6z m-22 -15 c3 -5 1 -10 -4 -10 -6 0 -11 5 -11 10 0 6 2 10
4 10 3 0 8 -4 11 -10z m1075 -5 c0 -8 -4 -15 -10 -15 -5 0 -7 7 -4 15 4 8 8
15 10 15 2 0 4 -7 4 -15z m-1133 -30 c0 -8 -4 -12 -9 -9 -4 3 -16 0 -25 -5
-10 -6 -14 -11 -9 -11 5 0 3 -7 -4 -15 -11 -13 -10 -15 6 -9 18 5 18 5 0 -7
-16 -10 -21 -9 -32 5 -12 16 -13 16 -24 -4 -11 -20 -42 -37 -83 -45 -10 -2
-15 0 -12 6 4 5 10 7 15 4 5 -3 12 1 17 8 4 7 28 24 53 38 25 13 56 32 69 41
29 22 38 23 38 3z m1156 -2 c-7 -3 -13 -11 -13 -19 0 -19 -16 -18 -24 1 -4 10
2 19 17 24 12 5 24 6 27 3 3 -2 -1 -7 -7 -9z m-1365 -18 c1 -16 -1 -17 -8 -5
-8 13 -10 13 -10 -1 0 -20 -27 -33 -36 -17 -4 6 1 15 10 20 9 5 14 12 12 16
-3 4 3 8 13 8 10 0 18 -9 19 -21z m1412 -6 c0 -5 -4 -9 -10 -9 -5 0 -10 7 -10
16 0 8 5 12 10 9 6 -3 10 -10 10 -16z m-1486 3 c3 -5 -7 -21 -21 -38 l-25 -29
17 29 c17 28 17 29 0 22 -15 -5 -16 -4 -5 9 14 17 26 19 34 7z m729 -3 c-16
-15 -83 -48 -83 -41 0 11 58 49 75 49 9 0 12 -4 8 -8z m152 -9 c-3 -5 -11 -10
-16 -10 -6 0 -7 5 -4 10 3 6 11 10 16 10 6 0 7 -4 4 -10z m-798 -30 c1 -11 -3
-20 -8 -20 -6 0 -7 -5 -3 -12 4 -7 3 -8 -4 -4 -16 10 -15 43 1 49 6 3 12 6 12
6 1 1 1 -8 2 -19z m263 -7 c0 -10 -7 -14 -20 -10 -11 3 -18 1 -15 -4 3 -4 -8
-15 -26 -24 -17 -9 -28 -12 -25 -6 4 6 1 11 -6 11 -7 0 4 11 24 24 21 12 35
25 32 29 -3 3 3 3 15 0 12 -3 21 -12 21 -20z m-321 -9 c-10 -12 -8 -13 7 -7
16 6 17 5 6 -9 -10 -13 -10 -17 0 -20 8 -3 6 -7 -5 -11 -9 -3 -17 -2 -17 3 0
5 -7 7 -15 4 -13 -5 -13 -3 0 22 7 15 12 31 9 36 -3 4 2 5 11 2 12 -5 13 -9 4
-20z m196 -14 c4 -6 2 -9 -3 -8 -5 2 -24 -8 -43 -21 -18 -13 -58 -37 -88 -52
-47 -24 -58 -26 -70 -15 -10 10 -10 19 -2 32 6 11 11 16 11 11 0 -4 14 0 30 8
17 9 35 13 40 10 6 -3 10 -2 10 3 0 13 60 41 87 42 12 0 25 -5 28 -10z m1249
-5 c-4 -8 -10 -12 -15 -9 -11 6 -2 24 11 24 5 0 7 -7 4 -15z m-664 -3 c0 -8
-14 -16 -62 -40 -5 -2 -8 1 -8 8 0 6 15 17 33 25 39 17 37 17 37 7z m-120 -6
c0 -2 -7 -7 -16 -10 -8 -3 -12 -2 -9 4 6 10 25 14 25 6z m-64 -24 c11 -6 6
-12 -21 -25 -19 -9 -35 -13 -35 -8 0 5 7 12 16 15 9 4 15 9 12 11 -10 10 -38
-7 -38 -23 0 -12 -3 -13 -12 -4 -25 25 41 55 78 34z m-751 -12 c3 -5 1 -10 -6
-10 -7 0 -9 -3 -6 -6 4 -4 13 -1 22 6 9 7 18 10 22 6 3 -3 1 -6 -5 -6 -6 0 -9
-7 -6 -15 4 -8 9 -13 13 -11 3 2 7 -15 8 -38 l1 -43 -40 14 c-22 7 -43 11 -48
8 -14 -9 -61 6 -54 17 3 5 15 8 27 6 15 -2 24 5 34 30 12 29 11 32 -4 33 -15
0 -15 2 2 9 27 12 33 12 40 0z m85 6 c0 -2 -7 -6 -15 -10 -8 -3 -15 -1 -15 4
0 6 7 10 15 10 8 0 15 -2 15 -4z m1726 -21 c-16 -12 -17 -16 -3 -29 8 -8 18
-12 21 -8 4 3 4 -2 0 -12 -5 -14 -9 -15 -15 -4 -8 11 -13 5 -11 -13 1 -3 -17
-16 -40 -29 -23 -13 -38 -18 -34 -12 10 16 -31 2 -46 -16 -11 -13 -11 -15 2
-8 12 6 11 4 -1 -6 -9 -7 -14 -20 -11 -28 4 -13 3 -13 -11 0 -26 26 -30 57 -9
77 49 47 102 93 102 89 0 -3 10 -1 23 4 36 14 55 12 33 -5z m-1552 -20 c-4 -8
-14 -15 -24 -15 -27 0 -34 -17 -20 -51 19 -44 8 -43 -17 2 l-22 39 37 19 c47
24 53 25 46 6z m369 -10 c4 -8 1 -17 -5 -21 -7 -5 -8 -2 -3 6 5 8 3 11 -6 8
-8 -3 -14 -11 -14 -19 0 -7 -8 -15 -17 -17 -27 -5 -22 14 10 37 15 11 28 21
28 21 1 0 4 -7 7 -15z m1077 5 c0 -5 -5 -10 -11 -10 -5 0 -7 5 -4 10 3 6 8 10
11 10 2 0 4 -4 4 -10z m-1829 -53 c-17 -17 -13 -24 14 -31 14 -4 23 -11 20
-16 -3 -5 3 -14 12 -20 16 -10 16 -11 -2 -5 -16 5 -18 4 -7 -6 20 -21 14 -32
-17 -27 -22 3 -28 1 -23 -10 3 -10 -8 -7 -36 9 -38 22 -50 45 -17 32 11 -4 13
-1 9 10 -3 9 -12 13 -20 10 -8 -3 -14 0 -14 6 0 6 7 11 15 11 14 0 19 11 16
37 -2 13 27 22 47 15 10 -3 10 -8 3 -15z m819 3 c-24 -15 -36 -11 -14 4 10 8
21 12 24 10 2 -3 -2 -9 -10 -14z m130 10 c0 -5 -3 -9 -7 -8 -14 4 -53 -13 -53
-23 0 -5 -8 -9 -17 -9 -20 0 -8 15 29 35 29 16 48 18 48 5z m115 0 c-3 -5 -14
-10 -23 -9 -14 0 -13 2 3 9 27 11 27 11 20 0z m95 0 c0 -5 -5 -10 -11 -10 -5
0 -7 5 -4 10 3 6 8 10 11 10 2 0 4 -4 4 -10z m-503 -19 c1 -16 -9 -25 -59 -49
-5 -2 -8 2 -8 7 0 6 6 11 13 11 7 0 22 7 33 16 18 14 18 15 -3 4 -13 -6 -23
-7 -23 -2 0 5 10 14 23 20 12 6 22 11 22 11 1 1 1 -7 2 -18z m448 9 c-3 -5
-12 -10 -18 -10 -7 0 -6 4 3 10 19 12 23 12 15 0z m-800 -20 c3 -5 1 -10 -4
-10 -6 0 -11 5 -11 10 0 6 2 10 4 10 3 0 8 -4 11 -10z m695 6 c0 -2 -7 -7 -16
-10 -8 -3 -12 -2 -9 4 6 10 25 14 25 6z m80 -19 c0 -7 -4 -6 -10 3 -8 12 -10
12 -11 -5 0 -11 -3 -15 -5 -8 -3 7 -13 10 -22 7 -9 -3 -6 1 8 9 26 16 40 14
40 -6z m-970 3 c0 -5 -4 -10 -9 -10 -6 0 -13 5 -16 10 -3 6 1 10 9 10 9 0 16
-4 16 -10z m806 1 c-4 -5 0 -11 6 -13 18 -6 -31 -31 -64 -33 -23 -1 -26 1 -16
12 6 8 25 20 42 28 39 17 38 17 32 6z m1302 3 c-9 -9 -147 -11 -142 -2 3 4 37
8 76 8 39 0 69 -3 66 -6z m-1412 -26 c-1 -16 -7 -23 -21 -23 -12 0 -19 -6 -17
-14 2 -9 -3 -11 -13 -7 -10 3 -14 2 -9 -5 4 -7 -2 -9 -17 -7 -23 3 -40 28 -19
28 6 0 8 -4 5 -10 -13 -20 14 -9 29 12 9 12 16 19 16 15 0 -4 9 2 20 13 25 25
28 25 26 -2z m430 -26 c10 -25 13 -48 8 -72 -5 -19 -8 -39 -8 -45 0 -5 -13
-29 -28 -52 -16 -23 -28 -47 -28 -53 0 -6 -4 -9 -9 -5 -6 3 -8 14 -6 25 2 12
0 18 -5 15 -5 -3 -7 -17 -4 -31 4 -24 4 -25 -21 -8 -25 17 -35 31 -12 18 9 -5
9 -4 1 5 -9 10 -17 7 -36 -12 -14 -14 -42 -27 -67 -31 -33 -5 -42 -10 -37 -22
3 -8 -1 -17 -9 -20 -8 -4 -12 -11 -8 -18 3 -6 3 -8 -2 -4 -4 4 -14 3 -22 -3
-10 -9 -13 -8 -13 5 0 15 -2 15 -32 0 -18 -9 -41 -23 -50 -32 -10 -8 -18 -12
-18 -7 0 4 -9 -3 -19 -16 -16 -20 -22 -22 -33 -11 -11 11 -10 12 4 7 11 -4 21
1 29 17 21 38 20 50 -4 43 -19 -5 -20 -5 -4 5 12 8 22 8 35 1 12 -8 13 -10 3
-11 -8 0 -12 -2 -9 -5 3 -3 20 2 39 10 31 15 31 15 6 10 -21 -4 -27 -2 -21 6
5 8 3 9 -6 4 -9 -6 -11 -4 -5 5 6 9 4 12 -6 8 -47 -18 -59 -15 -22 4 23 13 59
34 80 47 l38 23 -24 -26 c-13 -14 -33 -28 -44 -32 -16 -5 -17 -8 -6 -15 18
-11 32 -11 25 0 -7 10 19 23 28 14 3 -4 1 -12 -5 -20 -21 -24 8 -14 32 12 13
13 29 25 34 25 6 0 16 9 22 20 11 16 10 18 -4 13 -13 -5 -15 -2 -11 15 6 22
-6 30 -17 12 -3 -5 -12 -10 -18 -10 -7 1 -3 8 8 18 11 9 27 26 35 37 13 17 13
18 0 10 -8 -5 -37 -27 -65 -50 -27 -22 -75 -54 -105 -70 -30 -15 -102 -66
-160 -112 -58 -45 -114 -83 -125 -83 -14 1 -9 6 17 19 53 27 177 141 171 157
-3 8 0 14 6 14 6 0 11 7 11 16 0 8 5 12 11 9 7 -5 4 -14 -7 -26 -24 -27 -12
-24 48 13 75 45 100 66 89 72 -5 4 -13 0 -18 -8 -8 -13 -93 -59 -93 -49 0 3
10 14 23 25 12 11 15 16 7 12 -12 -5 -12 -4 -3 6 6 7 23 13 37 13 14 0 38 12
55 27 16 16 32 26 35 23 3 -4 6 -1 6 6 0 7 5 9 12 5 7 -5 2 -15 -18 -31 -39
-31 -18 -29 29 2 39 27 48 41 20 31 -42 -14 41 41 88 59 29 11 63 33 78 48 27
30 61 48 74 40 4 -2 14 -21 23 -41z m-516 28 c0 -5 -4 -10 -10 -10 -5 0 -10 5
-10 10 0 6 5 10 10 10 6 0 10 -4 10 -10z m287 -10 c2 -22 -12 -27 -23 -9 -5 9
5 22 21 29 1 0 1 -9 2 -20z m-820 4 c-3 -3 -12 -4 -19 -1 -8 3 -5 6 6 6 11 1
17 -2 13 -5z m359 -6 c4 -6 3 -8 -3 -5 -6 4 -21 -2 -33 -13 -13 -11 -19 -20
-14 -20 6 0 15 5 22 12 6 6 14 9 18 6 3 -4 -17 -19 -46 -33 -29 -15 -49 -21
-44 -14 5 9 2 10 -9 6 -11 -4 -14 -2 -10 9 3 8 12 13 19 10 8 -3 14 -1 14 4 0
7 60 46 77 50 1 0 5 -5 9 -12z m419 -8 c-3 -5 -1 -10 6 -10 7 0 9 -3 5 -7 -4
-5 -11 -7 -14 -6 -4 1 -13 -4 -21 -10 -12 -9 -13 -9 -7 1 4 6 4 12 -1 12 -14
0 -38 -19 -38 -30 0 -13 -18 -15 -23 -2 -1 5 19 21 45 35 57 30 56 30 48 17z
m-771 -35 c-4 -18 -1 -24 15 -27 14 -2 18 -7 12 -16 -6 -10 -15 -6 -37 17 -16
17 -34 31 -40 31 -6 0 -11 6 -11 13 0 8 11 11 34 9 29 -4 32 -7 27 -27z m461
16 c-23 -21 -65 -37 -65 -23 0 8 57 40 75 41 5 1 1 -8 -10 -18z m180 -11 c-3
-5 -12 -10 -18 -10 -7 0 -6 4 3 10 19 12 23 12 15 0z m-715 -13 c0 -7 -9 -18
-20 -25 -23 -14 -25 -10 -8 18 14 23 28 26 28 7z m1651 -10 c-13 -13 -26 -3
-16 12 3 6 11 8 17 5 6 -4 6 -10 -1 -17z m-1071 -2 c0 -8 -4 -15 -10 -15 -5 0
-10 7 -10 15 0 8 5 15 10 15 6 0 10 -7 10 -15z m67 0 c0 -8 -6 -16 -13 -19
-19 -7 -29 14 -13 25 20 12 26 11 26 -6z m973 7 c0 -11 -41 -45 -47 -39 -7 8
21 47 34 47 7 0 13 -3 13 -8z m500 -1 c0 -4 -11 -6 -25 -3 -14 2 -25 6 -25 8
0 2 11 4 25 4 14 0 25 -4 25 -9z m-2183 -15 c-3 -8 -1 -17 6 -19 21 -7 2 -17
-21 -10 -26 6 -29 30 -4 36 9 3 19 5 21 6 2 0 1 -5 -2 -13z m580 3 c-9 -6 -15
-14 -12 -20 4 -5 2 -9 -3 -9 -18 0 -21 29 -4 33 30 8 37 7 19 -4z m-233 -11
c-5 -8 -2 -9 9 -5 10 3 17 4 17 2 0 -6 -62 -45 -72 -45 -15 0 5 39 25 48 29
14 29 14 21 0z m146 -1 c-14 -8 -35 -19 -47 -26 -13 -6 -23 -8 -23 -3 0 10 59
40 80 41 8 1 4 -5 -10 -12z m1200 -1 c0 -2 -8 -10 -17 -17 -16 -13 -17 -12 -4
4 13 16 21 21 21 13z m-946 -24 c-6 -4 -13 -12 -15 -18 -2 -7 -12 -8 -24 -4
-18 6 -17 8 10 23 28 14 52 14 29 -1z m-650 -3 c-2 -4 3 -12 12 -19 8 -7 13
-19 10 -27 -4 -9 3 -13 22 -14 15 0 36 -5 47 -10 16 -7 13 -8 -12 -4 -25 3
-33 1 -33 -10 0 -8 5 -15 10 -15 6 0 0 -16 -12 -34 -23 -35 -53 -52 -63 -35
-8 12 -35 -1 -35 -18 0 -8 -4 -11 -10 -8 -23 14 3 63 41 78 12 5 11 7 -1 16
-13 9 -12 11 5 11 19 1 19 1 -2 19 -16 13 -19 21 -11 29 8 8 3 14 -18 23 -27
10 -27 12 -9 19 23 9 65 8 59 -1z m423 -7 c1 -10 -4 -19 -11 -19 -8 0 -11 8
-8 19 2 10 7 18 11 18 4 0 7 -8 8 -18z m918 -2 c3 -5 -1 -10 -9 -10 -9 0 -16
5 -16 10 0 6 4 10 9 10 6 0 13 -4 16 -10z m-1058 -35 c-15 -14 -40 -25 -55
-25 l-27 1 23 12 c12 7 19 17 15 22 -4 4 -2 5 4 1 7 -4 21 -2 30 3 33 19 38
11 10 -14z m79 -5 c1 -32 -5 -37 -24 -18 -7 7 -8 17 -1 30 14 27 24 22 25 -12z
m1226 8 c-7 -7 -12 -8 -12 -2 0 14 12 26 19 19 2 -3 -1 -11 -7 -17z m-1007 2
c3 -6 -1 -7 -9 -4 -18 7 -21 14 -7 14 6 0 13 -4 16 -10z m1235 -15 c0 -8 4
-15 9 -15 17 0 17 -64 1 -78 -10 -9 -10 -11 -1 -6 10 5 11 1 6 -15 -3 -11 -2
-21 3 -21 5 0 6 -14 4 -31 -3 -21 -1 -30 6 -25 6 3 14 1 18 -5 4 -7 3 -9 -4
-5 -6 3 -13 2 -17 -4 -3 -5 -15 -10 -26 -10 -12 0 -17 4 -14 11 4 6 -3 5 -14
-3 -19 -11 -20 -13 -4 -17 12 -2 7 -7 -16 -17 -18 -8 -37 -11 -42 -8 -5 3 -9
1 -9 -4 0 -5 -10 -12 -22 -15 -12 -4 -19 -9 -16 -13 4 -3 33 4 65 16 72 27
113 35 113 22 0 -5 -23 -16 -51 -22 -35 -9 -47 -15 -38 -21 8 -5 22 -6 31 -3
10 3 25 1 34 -4 15 -8 15 -11 -5 -31 -11 -11 -31 -21 -43 -21 -19 0 -20 -2 -8
-10 8 -5 10 -10 5 -10 -6 0 -16 5 -22 11 -6 6 -26 13 -44 16 -44 6 -50 13 -13
13 33 1 73 25 52 32 -7 3 -21 3 -31 0 -15 -4 -16 -7 -5 -14 9 -7 8 -8 -7 -6
-11 1 -41 -4 -67 -11 -26 -7 -57 -11 -68 -8 -15 4 -20 0 -20 -14 0 -18 7 -19
73 -17 67 3 72 2 75 -18 4 -28 50 -39 74 -17 15 13 16 13 11 -6 -4 -15 -1 -21
11 -21 9 0 15 3 15 8 -3 17 2 32 10 32 4 0 6 -11 3 -26 -4 -20 -10 -24 -30
-22 -14 2 -27 -3 -29 -10 -3 -7 1 -10 11 -6 18 7 19 4 10 -20 -7 -17 -44 -22
-44 -6 0 8 -16 8 -48 1 -2 -1 4 -8 13 -17 9 -9 13 -19 10 -23 -4 -3 -15 4 -25
17 -18 22 -19 22 -22 2 -3 -21 -24 -25 -22 -4 1 6 -9 9 -22 6 -16 -3 -26 1
-30 13 -4 9 -17 21 -30 26 -13 4 -24 15 -24 23 0 19 -29 25 -89 19 -30 -3 -51
-1 -51 5 0 6 -17 8 -41 5 -33 -5 -41 -3 -37 8 3 8 -4 24 -16 37 l-21 23 29 -5
c22 -4 27 -2 22 11 -4 11 -2 14 9 10 8 -4 22 2 32 11 16 16 16 16 11 -5 -3
-13 -2 -23 4 -23 5 0 7 -4 4 -8 -2 -4 7 -9 20 -10 15 -1 23 2 19 8 -4 6 -11 8
-16 5 -5 -3 -6 2 -2 11 4 10 2 15 -4 11 -5 -3 -10 0 -10 7 0 13 43 10 52 -4 3
-5 18 -5 33 -1 40 12 110 50 92 51 -13 0 -13 1 0 11 10 7 11 9 2 7 -8 -2 -12
-7 -10 -11 4 -8 -70 -47 -90 -47 -7 0 -11 4 -8 9 4 5 -4 7 -16 3 -15 -4 -19
-2 -14 7 5 8 3 11 -5 10 -23 -5 -59 20 -53 36 9 24 70 48 100 41 22 -6 25 -4
20 9 -3 9 0 18 9 21 8 4 15 15 15 25 0 11 7 19 18 19 9 0 35 7 57 16 22 8 48
17 58 21 9 3 17 9 17 14 0 5 9 9 21 9 14 0 24 10 31 28 15 40 78 70 78 37z
m-2003 -22 c-8 -7 -37 9 -31 19 3 5 12 4 20 -3 8 -6 13 -14 11 -16z m580 12
c0 -8 -4 -12 -9 -9 -5 3 -6 10 -3 15 9 13 12 11 12 -6z m139 6 c-3 -4 -10 -21
-16 -36 -8 -22 -13 -25 -24 -16 -10 8 -16 9 -21 1 -3 -6 -11 -7 -17 -4 -8 5
-9 1 -5 -10 10 -25 -2 -40 -19 -25 -10 9 -25 4 -65 -21 -28 -17 -53 -29 -56
-26 -2 2 25 20 60 40 36 20 70 43 77 51 6 7 24 17 40 20 16 3 31 13 34 21 3 8
8 14 11 14 4 0 4 -4 1 -9z m1188 -4 c-2 -7 -14 -18 -25 -25 -12 -8 -19 -10
-17 -5 3 4 8 16 11 26 4 9 13 17 21 17 9 0 13 -6 10 -13z m263 7 c-3 -3 -12
-4 -19 -1 -8 3 -5 6 6 6 11 1 17 -2 13 -5z m-1558 -30 c-15 -18 -22 -13 -13
10 3 9 10 13 16 10 5 -3 4 -12 -3 -20z m689 -35 c-10 -7 -10 -10 1 -21 12 -11
12 -10 6 2 -8 13 -7 13 8 1 19 -15 23 -61 6 -61 -5 0 -8 4 -5 9 3 5 -2 15 -12
22 -15 13 -16 12 -4 -3 13 -17 3 -32 -13 -20 -16 11 -15 82 1 82 8 0 13 3 13
8 -1 4 0 16 1 27 2 14 4 11 7 -9 3 -17 -1 -32 -9 -37z m-803 41 c4 -6 3 -9 -2
-8 -4 2 -22 -3 -40 -11 -33 -13 -52 -41 -29 -41 8 0 16 -6 19 -14 4 -10 0 -12
-14 -9 -22 6 -23 4 -9 -31 17 -46 -15 -24 -48 32 -11 20 -10 22 8 22 11 0 19
3 19 8 -4 22 4 33 34 46 40 18 54 19 62 6z m68 -15 c4 -8 1 -17 -5 -21 -7 -5
-8 -2 -3 6 6 10 4 12 -8 7 -10 -3 -17 -2 -17 2 0 5 6 12 13 14 6 3 13 6 13 6
1 1 4 -6 7 -14z m242 5 c-3 -5 -12 -10 -18 -10 -7 0 -6 4 3 10 19 12 23 12 15
0z m715 -52 c0 -6 -9 -8 -20 -5 -28 7 -25 -8 6 -28 15 -9 24 -13 21 -9 -5 10
12 28 30 31 27 5 -2 -37 -33 -47 -19 -7 -34 -16 -34 -21 0 -6 -5 -7 -11 -4 -7
5 -4 14 8 28 10 12 4 10 -13 -6 -30 -27 -31 -27 -49 -7 -18 20 -17 20 13 31
31 10 44 29 21 29 -5 0 -7 5 -4 10 3 6 2 10 -3 10 -6 0 -12 6 -15 13 -4 11 3
11 39 -1 24 -8 44 -19 44 -24z m-512 14 c2 -7 -1 -12 -8 -12 -6 0 -8 5 -4 12
4 7 3 8 -5 4 -6 -4 -9 -11 -6 -16 3 -4 -2 -13 -10 -20 -13 -11 -15 -10 -10 4
3 9 7 23 10 32 6 17 26 15 33 -4z m46 -44 c-5 -8 -2 -9 11 -5 9 4 -5 -14 -31
-41 -27 -26 -52 -47 -56 -45 -3 2 -32 -10 -62 -26 -31 -16 -56 -25 -56 -20 0
6 8 12 18 16 9 3 24 12 32 18 8 7 27 15 42 19 27 6 98 61 97 74 -2 13 1 22 7
22 3 0 2 -5 -2 -12z m-314 -2 c0 -2 -8 -10 -17 -17 -16 -13 -17 -12 -4 4 13
16 21 21 21 13z m-515 -16 c-3 -5 -11 -10 -16 -10 -6 0 -7 5 -4 10 3 6 11 10
16 10 6 0 7 -4 4 -10z m425 -10 c-14 -11 -29 -20 -34 -20 -5 0 -7 -2 -4 -5 3
-4 23 4 44 15 27 16 34 17 25 6 -7 -9 -10 -16 -5 -16 14 0 -68 -80 -108 -106
-39 -25 -53 -23 -127 19 l-24 14 45 31 c28 20 52 29 68 26 16 -3 44 7 75 25
58 34 81 39 45 11z m-494 -17 c-11 -11 -35 -12 -42 -2 -3 5 7 9 22 9 15 0 24
-3 20 -7z m194 -22 c0 -13 -20 -36 -20 -23 0 6 -7 12 -16 12 -13 0 -14 3 -4
14 11 14 40 12 40 -3z m450 9 c8 -5 11 -10 5 -10 -5 0 -17 5 -25 10 -8 5 -10
10 -5 10 6 0 17 -5 25 -10z m266 -22 c-9 -14 -14 -27 -11 -30 3 -3 -18 -13
-47 -23 -29 -9 -61 -24 -70 -32 -10 -9 -18 -13 -18 -9 0 4 -10 2 -21 -5 -12
-6 -19 -7 -16 -1 4 5 36 24 72 43 36 18 77 46 92 61 31 33 41 30 19 -4z m370
15 c7 -10 14 -24 14 -30 0 -18 -32 -53 -48 -53 -7 0 -11 -4 -8 -9 7 -11 -17
-21 -50 -21 -32 0 -31 25 4 80 2 2 7 -2 11 -9 7 -11 11 -9 20 8 7 11 9 21 6
21 -9 0 19 29 29 30 5 0 15 -8 22 -17z m-606 -8 c-7 -8 -18 -15 -25 -15 -7 0
-18 -7 -25 -15 -10 -12 -10 -15 1 -15 10 0 10 -3 1 -12 -8 -8 -15 -9 -22 -2
-11 11 12 37 53 60 30 16 31 16 17 -1z m-831 -12 c8 -9 6 -13 -9 -18 -21 -7
-60 10 -60 25 0 13 55 7 69 -7z m225 -8 c-4 -8 -12 -15 -20 -15 -8 0 -14 7
-14 15 0 8 9 15 20 15 13 0 18 -5 14 -15z m1086 11 c0 -3 -4 -8 -10 -11 -5 -3
-10 -1 -10 4 0 6 5 11 10 11 6 0 10 -2 10 -4z m-1443 -22 c-3 -3 -12 -4 -19
-1 -8 3 -5 6 6 6 11 1 17 -2 13 -5z m883 3 c0 -2 -10 -12 -22 -23 l-23 -19 19
23 c18 21 26 27 26 19z m464 -26 c-2 -2 1 -10 7 -17 7 -8 7 -14 -1 -19 -14 -8
-22 0 -37 36 -11 25 -10 26 12 15 13 -6 22 -13 19 -15z m106 -1 c-8 -5 -17 -7
-19 -4 -3 3 1 9 9 14 8 5 17 7 19 4 3 -3 -1 -9 -9 -14z m-46 2 c3 -5 -1 -9 -9
-9 -8 0 -15 4 -15 9 0 4 4 8 9 8 6 0 12 -4 15 -8z m-1407 -28 c-3 -3 -12 -4
-19 -1 -8 3 -5 6 6 6 11 1 17 -2 13 -5z m878 -4 c-3 -5 -11 -10 -16 -10 -6 0
-7 5 -4 10 3 6 11 10 16 10 6 0 7 -4 4 -10z m90 -10 c-10 -11 -21 -18 -23 -15
-3 3 3 12 14 20 27 20 30 18 9 -5z m-134 1 c-11 -7 -11 -10 2 -12 13 -3 11 -7
-8 -16 -15 -6 -27 -7 -31 -2 -3 5 0 8 7 7 7 -2 14 3 15 10 3 21 4 22 17 22 8
0 8 -3 -2 -9z m367 -13 c2 -11 -3 -18 -12 -18 -10 0 -13 -6 -10 -15 11 -27 34
-17 34 15 0 17 5 30 10 30 13 0 13 -12 0 -44 -10 -27 -43 -36 -56 -15 -3 6
-15 9 -25 6 -12 -3 -20 2 -24 14 -4 11 -12 16 -21 12 -13 -5 -13 -7 -2 -14 9
-6 6 -9 -10 -9 -14 0 -20 -4 -17 -10 4 -6 16 -8 28 -5 18 5 19 4 5 -5 -18 -11
-52 -1 -55 17 -2 7 12 20 30 29 70 37 119 41 125 12z m236 7 c3 -9 -3 -19 -16
-26 -11 -6 -18 -7 -16 -2 3 4 8 16 11 26 8 21 13 22 21 2z m-116 -26 c-3 -8
-7 -3 -11 10 -4 17 -3 21 5 13 5 -5 8 -16 6 -23z m957 11 c3 -5 1 -10 -4 -10
-6 0 -11 5 -11 10 0 6 2 10 4 10 3 0 8 -4 11 -10z m-1013 -22 c-7 -7 -12 -8
-12 -2 0 14 12 26 19 19 2 -3 -1 -11 -7 -17z m-910 -20 c-8 -8 -9 -4 -5 13 4
13 8 18 11 10 2 -7 -1 -18 -6 -23z m1953 23 c-3 -6 13 -8 40 -6 27 3 45 1 45
-6 0 -5 -4 -8 -9 -5 -13 8 -42 -4 -35 -15 3 -5 9 -7 14 -4 5 3 11 1 15 -5 3
-6 -2 -13 -12 -17 -10 -4 -24 -13 -31 -20 -15 -15 -46 -18 -37 -4 3 6 -4 15
-15 21 -11 6 -20 7 -20 2 0 -4 -9 -8 -20 -9 -11 -1 -20 2 -20 8 0 5 9 9 21 9
11 0 17 5 14 10 -12 20 12 10 35 -15 23 -24 40 -26 36 -2 -3 22 -18 38 -30 34
-17 -7 -43 10 -33 20 5 4 12 2 16 -6 7 -10 10 -9 14 3 4 9 9 16 12 16 4 0 4
-4 0 -9z m-1886 -15 c9 -11 6 -12 -14 -8 -14 2 -22 8 -19 13 8 13 20 11 33 -5z
m611 4 c0 -5 -5 -10 -11 -10 -5 0 -7 5 -4 10 3 6 8 10 11 10 2 0 4 -4 4 -10z
m275 -10 c15 -16 16 -23 6 -33 -10 -9 -12 -9 -9 2 2 7 -5 15 -15 16 -24 4 -31
11 -22 24 9 16 20 13 40 -9z m1119 -15 c-3 -7 3 -16 15 -20 14 -4 19 -13 16
-33 -2 -15 -4 -31 -4 -36 -1 -5 -7 -3 -14 3 -8 6 -17 7 -21 3 -4 -4 -6 0 -4 8
2 8 7 18 12 21 5 4 1 17 -8 30 -21 31 -22 67 -2 49 8 -6 13 -17 10 -25z
m-2314 15 c0 -5 -4 -10 -10 -10 -5 0 -10 5 -10 10 0 6 5 10 10 10 6 0 10 -4
10 -10z m1037 -14 c0 -8 -6 -12 -15 -9 -11 5 -11 7 0 14 7 5 13 9 14 9 0 0 1
-6 1 -14z m1053 -46 c0 -11 -7 -20 -15 -20 -8 0 -15 -5 -15 -12 0 -6 -2 -9 -5
-6 -6 6 18 58 28 58 4 0 7 -9 7 -20z m-715 -10 c13 -6 15 -9 5 -9 -8 0 -22 4
-30 9 -18 12 -2 12 25 0z m776 -4 c9 0 15 -6 12 -13 -3 -7 -10 -13 -17 -13
-14 1 -46 25 -46 35 0 4 8 4 18 0 9 -5 24 -8 33 -9z m33 -31 c-4 -8 -8 -15
-10 -15 -2 0 -4 7 -4 15 0 8 4 15 10 15 5 0 7 -7 4 -15z m-159 -14 c3 -5 1
-12 -5 -16 -5 -3 -10 1 -10 9 0 18 6 21 15 7z m-235 -17 c0 -14 -3 -15 -17 -3
-10 7 -20 15 -22 16 -2 2 5 3 17 3 14 0 22 -6 22 -16z m485 -3 c-3 -6 -11 -11
-16 -11 -5 0 -4 6 3 14 14 16 24 13 13 -3z m-1738 3 c-3 -3 -12 -4 -19 -1 -8
3 -5 6 6 6 11 1 17 -2 13 -5z m168 -21 c-3 -8 -5 -18 -5 -23 0 -4 -9 -6 -20
-3 -11 3 -20 10 -20 15 0 6 -7 7 -16 4 -14 -5 -15 -4 -5 8 16 20 74 18 66 -1z
m326 8 c-11 -7 -10 -10 5 -14 17 -4 17 -5 -2 -6 -12 0 -24 6 -28 14 -4 11 1
15 17 15 17 0 19 -2 8 -9z m201 -13 c-11 -11 -32 -3 -32 12 0 4 9 6 21 3 13
-4 17 -9 11 -15z m-721 0 c1 -7 1 -21 0 -30 -1 -9 7 -19 18 -23 17 -5 18 -9 8
-20 -6 -7 -16 -10 -22 -6 -5 5 -19 11 -29 15 -14 5 -16 3 -9 -6 10 -13 14 -53
5 -43 -3 3 -11 0 -19 -6 -16 -14 -18 2 -1 19 15 15 4 27 -14 16 -24 -16 -33
-12 -35 17 -2 22 1 27 14 22 11 -4 14 -3 9 5 -9 14 -9 14 32 3 39 -12 41 -4 5
26 l-26 23 31 0 c18 0 32 -5 33 -12z m84 -8 c4 -6 11 -8 16 -5 5 4 9 1 9 -4 0
-6 -7 -11 -15 -11 -8 0 -15 5 -15 11 0 6 -7 9 -15 5 -8 -3 -15 -1 -15 4 0 13
27 13 35 0z m399 2 c2 -4 -4 -8 -14 -8 -10 0 -16 4 -14 8 3 4 9 8 14 8 5 0 11
-4 14 -8z m258 -24 c-8 -8 -9 -4 -5 13 4 13 8 18 11 10 2 -7 -1 -18 -6 -23z
m-453 -7 c8 -14 7 -22 -3 -30 -11 -9 -15 -5 -18 19 -5 34 6 40 21 11z m336
-19 c-3 -3 -11 0 -18 7 -9 10 -8 11 6 5 10 -3 15 -9 12 -12z m775 8 c0 -5 -2
-10 -4 -10 -3 0 -8 5 -11 10 -3 6 -1 10 4 10 6 0 11 -4 11 -10z m-1704 -77
c-7 -7 -26 7 -26 19 0 6 6 6 15 -2 9 -7 13 -15 11 -17z m208 5 c-5 -9 -2 -9 9
1 15 12 17 11 17 -7 0 -14 -6 -19 -17 -18 -20 3 -31 36 -13 36 6 0 8 -5 4 -12z
m1701 -18 c-3 -5 -12 -10 -18 -10 -7 0 -6 4 3 10 19 12 23 12 15 0z m-1700
-49 c-3 -6 -14 -11 -23 -11 -13 0 -13 2 4 14 21 15 30 14 19 -3z m-140 -21
c-3 -5 -1 -11 5 -15 6 -4 7 -11 3 -18 -4 -7 -9 -4 -14 9 -11 28 -11 46 1 39 6
-4 8 -10 5 -15z m155 0 c0 -5 -5 -10 -11 -10 -5 0 -7 5 -4 10 3 6 8 10 11 10
2 0 4 -4 4 -10z m40 -10 c0 -5 -4 -10 -10 -10 -5 0 -10 5 -10 10 0 6 5 10 10
10 6 0 10 -4 10 -10z"/>
<path d="M1405 1330 c-3 -5 -1 -10 4 -10 6 0 11 5 11 10 0 6 -2 10 -4 10 -3 0
-8 -4 -11 -10z"/>
<path d="M550 1120 c-13 -8 -12 -10 3 -10 9 0 17 5 17 10 0 12 -1 12 -20 0z"/>
<path d="M330 1046 c0 -2 9 -6 20 -9 11 -3 18 -1 14 4 -5 9 -34 13 -34 5z"/>
<path d="M2103 1023 c0 -10 4 -10 16 -1 9 7 18 13 20 15 2 1 -5 1 -16 0 -11 0
-20 -7 -20 -14z"/>
<path d="M199 1012 c7 -13 6 -23 -1 -30 -9 -9 -6 -12 11 -12 15 0 21 4 17 13
-3 6 -9 20 -12 30 -4 9 -10 17 -16 17 -5 0 -5 -8 1 -18z"/>
<path d="M237 963 c-10 -9 -9 -23 1 -23 5 0 9 7 9 15 0 17 -1 18 -10 8z"/>
<path d="M1110 980 c-8 -5 -10 -10 -5 -10 6 0 17 5 25 10 8 5 11 10 5 10 -5 0
-17 -5 -25 -10z"/>
<path d="M1299 889 c-19 -16 -20 -18 -4 -10 34 17 51 31 39 31 -7 0 -22 -9
-35 -21z"/>
<path d="M1330 875 c-14 -8 -35 -19 -47 -24 -32 -15 -29 -23 3 -10 35 13 45 1
17 -18 -22 -15 -34 -51 -13 -38 6 4 8 10 5 15 -3 4 2 11 10 14 9 3 20 17 25
30 6 16 21 29 42 35 29 8 30 9 8 10 -14 0 -36 -6 -50 -14z"/>
<path d="M1340 851 c0 -5 9 -7 20 -4 11 3 20 7 20 9 0 2 -9 4 -20 4 -11 0 -20
-4 -20 -9z"/>
<path d="M1343 825 c4 -5 -1 -17 -10 -28 -18 -19 -17 -19 5 -6 25 16 28 25 10
35 -7 4 -10 3 -5 -1z"/>
<path d="M1245 770 c-3 -6 1 -13 10 -16 19 -8 30 0 20 15 -8 14 -22 14 -30 1z"/>
<path d="M1280 730 c-9 -6 -10 -10 -3 -10 6 0 15 5 18 10 8 12 4 12 -15 0z"/>
<path d="M1185 670 c-4 -6 -11 -7 -17 -4 -7 4 -8 2 -4 -5 6 -9 12 -9 24 1 10
7 19 14 21 15 2 2 -1 3 -7 3 -6 0 -14 -5 -17 -10z"/>
<path d="M696 923 c-6 -14 -5 -15 5 -6 7 7 10 15 7 18 -3 3 -9 -2 -12 -12z"/>
<path d="M605 870 c-3 -6 1 -7 9 -4 18 7 21 14 7 14 -6 0 -13 -4 -16 -10z"/>
<path d="M1995 510 c-18 -8 -17 -9 7 -9 15 -1 30 4 33 9 7 12 -12 12 -40 0z"/>
<path d="M1925 498 c-11 -6 -28 -19 -38 -29 -17 -18 -17 -19 0 -19 10 0 30 12
46 25 39 34 35 47 -8 23z"/>
<path d="M1750 440 c13 -8 12 -10 -4 -10 -16 0 -17 -3 -8 -12 10 -10 15 -10
22 2 10 16 4 30 -13 30 -7 0 -6 -4 3 -10z"/>
<path d="M2026 422 c-2 -4 -1 -14 4 -22 7 -11 9 -9 7 8 -1 24 -3 26 -11 14z"/>
<path d="M1645 670 c-3 -5 -1 -10 4 -10 6 0 11 5 11 10 0 6 -2 10 -4 10 -3 0
-8 -4 -11 -10z"/>
<path d="M840 623 c-14 -10 -32 -16 -41 -15 -20 3 -44 -23 -29 -33 14 -9 32 4
24 17 -5 7 -2 9 7 6 8 -3 28 5 44 18 35 28 31 32 -5 7z"/>
<path d="M715 540 c-3 -6 1 -7 9 -4 18 7 21 14 7 14 -6 0 -13 -4 -16 -10z"/>
<path d="M768 1603 c7 -3 16 -2 19 1 4 3 -2 6 -13 5 -11 0 -14 -3 -6 -6z"/>
<path d="M862 1598 c4 -8 1 -21 -5 -27 -8 -8 -6 -11 7 -11 9 0 15 4 12 9 -4 5
-2 11 3 13 5 1 2 10 -7 18 -14 13 -15 12 -10 -2z"/>
<path d="M1318 1603 c7 -3 16 -2 19 1 4 3 -2 6 -13 5 -11 0 -14 -3 -6 -6z"/>
<path d="M564 1584 c7 -7 19 -9 32 -3 12 4 24 5 27 3 3 -3 8 -1 11 4 3 5 -14
8 -37 8 -32 -1 -40 -4 -33 -12z"/>
<path d="M814 1576 c1 -23 2 -23 19 -9 22 21 22 33 -2 33 -14 0 -18 -7 -17
-24z"/>
<path d="M1503 1588 c7 -20 -5 -23 -33 -8 -16 8 -18 8 -14 -5 7 -17 50 -20 60
-4 3 6 1 16 -6 22 -10 9 -12 8 -7 -5z"/>
<path d="M773 1576 c-13 -6 -23 -14 -23 -18 0 -4 -7 -5 -15 -2 -11 5 -13 2 -9
-10 5 -14 9 -14 35 5 22 15 27 17 23 5 -4 -10 -1 -16 7 -16 7 0 9 3 6 7 -4 3
-2 12 4 19 14 17 -1 22 -28 10z"/>
<path d="M1073 1573 c-15 -6 -17 -33 -3 -33 6 0 10 6 10 14 0 8 8 17 18 19 11
3 12 5 2 5 -8 0 -21 -2 -27 -5z"/>
<path d="M1970 1570 c-34 -7 -34 -7 13 -9 26 0 47 4 47 9 0 11 -8 11 -60 0z"/>
<path d="M1178 1563 c7 -3 16 -2 19 1 4 3 -2 6 -13 5 -11 0 -14 -3 -6 -6z"/>
<path d="M2494 1555 c-9 -22 3 -34 29 -28 18 4 19 3 7 -6 -8 -6 -10 -11 -5
-11 14 0 42 19 30 21 -5 0 -1 5 10 10 17 8 16 9 -7 4 -16 -3 -28 0 -31 8 -4 9
-6 9 -6 0 -1 -7 -5 -13 -11 -13 -5 0 -7 7 -4 15 4 8 3 15 0 15 -4 0 -9 -7 -12
-15z"/>
<path d="M935 1540 c-4 -11 -10 -18 -15 -15 -4 3 -11 -2 -14 -11 -5 -12 -2
-15 10 -10 8 3 18 6 20 6 2 0 4 7 4 15 0 7 8 19 18 24 15 9 16 10 0 11 -9 0
-20 -9 -23 -20z"/>
<path d="M1010 1550 c-23 -7 -23 -8 -3 -9 12 -1 25 4 28 9 3 6 5 10 3 9 -2 -1
-14 -5 -28 -9z"/>
<path d="M685 1541 c-3 -5 0 -13 6 -17 7 -4 9 -3 5 4 -3 5 0 13 6 15 9 4 10 6
1 6 -6 1 -14 -3 -18 -8z"/>
<path d="M820 1528 c-19 -10 -27 -16 -16 -13 10 3 24 1 31 -5 8 -7 18 -2 33
15 19 22 20 25 4 24 -9 -1 -33 -10 -52 -21z"/>
<path d="M570 1536 c0 -2 7 -9 15 -16 9 -7 15 -8 15 -2 0 5 -7 12 -15 16 -8 3
-15 4 -15 2z"/>
<path d="M1484 1527 c-13 -7 -13 -11 -2 -25 11 -13 11 -15 -3 -10 -9 4 -16 1
-16 -7 0 -10 12 -7 44 8 24 12 43 25 43 30 0 4 5 5 10 2 6 -3 10 -2 10 3 0 11
-66 10 -86 -1z m31 -19 c-19 -11 -30 -5 -21 11 4 6 14 7 22 4 15 -5 14 -7 -1
-15z"/>
<path d="M1985 1515 c-3 -8 -7 -22 -10 -30 -4 -12 -1 -13 15 -5 10 5 26 10 36
10 16 0 16 -1 -1 -20 -10 -11 -15 -23 -10 -28 4 -4 10 -1 12 6 3 7 11 18 18
26 20 20 -1 37 -32 25 -22 -8 -24 -7 -18 11 3 11 4 20 0 20 -3 0 -8 -7 -10
-15z"/>
<path d="M2408 1523 c7 -3 16 -2 19 1 4 3 -2 6 -13 5 -11 0 -14 -3 -6 -6z"/>
<path d="M1070 1490 c-8 -5 -10 -10 -5 -10 6 0 17 5 25 10 8 5 11 10 5 10 -5
0 -17 -5 -25 -10z"/>
<path d="M1795 1490 c-3 -5 1 -10 9 -10 9 0 16 5 16 10 0 6 -4 10 -9 10 -6 0
-13 -4 -16 -10z"/>
<path d="M2085 1480 c-11 -5 -16 -9 -11 -9 6 -1 2 -7 -7 -13 -12 -9 -14 -17
-7 -28 8 -13 10 -13 10 2 0 9 12 26 28 37 28 21 22 26 -13 11z"/>
<path d="M535 1470 c3 -5 2 -10 -2 -10 -5 0 -9 -9 -10 -21 -2 -20 -1 -20 18
-4 14 14 16 21 8 32 -13 15 -23 18 -14 3z"/>
<path d="M1496 1464 c-4 -10 -1 -14 6 -12 15 5 23 28 10 28 -5 0 -13 -7 -16
-16z"/>
<path d="M1720 1470 c-12 -7 -12 -12 -2 -22 14 -14 35 1 24 19 -5 8 -13 9 -22
3z"/>
<path d="M1765 1470 c4 -6 1 -18 -7 -27 -11 -14 -11 -16 2 -11 18 5 27 48 10
48 -6 0 -8 -5 -5 -10z"/>
<path d="M1908 1466 c-17 -13 -14 -26 5 -26 6 0 7 3 4 7 -4 3 -2 12 4 20 14
16 9 16 -13 -1z"/>
<path d="M172 1452 c-16 -11 -5 -42 15 -42 8 0 12 -4 8 -9 -3 -5 -1 -12 4 -16
5 -3 14 2 19 11 9 15 10 15 16 -4 8 -23 21 -28 31 -12 8 12 25 13 25 2 0 -5
-11 -14 -24 -20 -19 -8 -26 -8 -29 1 -2 7 -8 9 -12 5 -4 -4 -5 -14 -1 -23 5
-13 10 -14 26 -5 15 8 25 8 34 1 8 -6 21 -9 30 -5 9 3 16 1 16 -4 0 -6 -8 -13
-17 -15 -13 -3 -14 -5 -3 -6 8 0 42 14 75 33 49 27 60 38 62 61 2 25 0 26 -15
12 -26 -23 -80 -48 -85 -39 -6 8 10 52 18 52 4 0 3 -4 0 -10 -3 -5 -2 -10 4
-10 17 0 21 18 5 24 -27 10 -59 7 -82 -10 -18 -13 -26 -13 -38 -3 -12 10 -13
9 -8 -7 5 -18 5 -18 -6 -1 -6 9 -8 22 -5 27 3 6 1 10 -4 10 -6 0 -11 -4 -11
-9 0 -5 -9 -11 -20 -14 -17 -4 -20 -2 -15 14 7 21 6 22 -13 11z m158 -41 c0
-10 -6 -21 -13 -24 -10 -4 -13 2 -9 19 5 28 22 32 22 5z m105 -21 c-7 -11 -79
-50 -92 -50 -10 0 36 32 67 47 32 15 32 15 25 3z m-95 -19 c0 -5 -7 -12 -16
-15 -24 -9 -28 -7 -14 9 14 17 30 20 30 6z"/>
<path d="M1930 1456 c0 -2 7 -7 16 -10 8 -3 12 -2 9 4 -6 10 -25 14 -25 6z"/>
<path d="M2495 1450 c-13 -6 -2 -8 35 -4 30 3 56 7 59 10 8 8 -74 3 -94 -6z"/>
<path d="M1430 1430 c-19 -11 -30 -19 -25 -19 6 0 26 8 45 19 19 11 31 19 25
19 -5 0 -26 -8 -45 -19z"/>
<path d="M1860 1443 c-8 -4 -21 -12 -28 -20 -7 -7 -20 -13 -28 -13 -8 0 -14
-4 -14 -9 0 -6 -9 -8 -20 -6 -11 2 -22 -1 -26 -6 -10 -17 4 -23 21 -9 8 7 15
10 15 6 0 -4 11 1 25 10 13 8 29 13 35 9 6 -4 9 -2 8 4 -2 5 6 17 17 25 21 16
20 18 -5 9z"/>
<path d="M2318 1440 c-38 -3 -71 -10 -75 -13 -3 -4 0 -7 8 -7 8 0 4 -7 -10
-16 -18 -13 -25 -14 -31 -4 -5 8 -9 7 -14 -5 -15 -40 -1 -47 64 -32 14 4 63 8
108 10 46 3 88 9 94 15 11 11 -25 9 -56 -4 -13 -5 -17 -4 -13 3 5 7 -13 9 -53
7 -35 -2 -62 1 -66 8 -10 16 16 28 66 28 25 1 63 5 85 9 l40 9 -40 -1 c-22 0
-70 -3 -107 -7z"/>
<path d="M896 1408 c-18 -18 -23 -28 -14 -28 17 0 52 35 47 47 -2 4 -17 -4
-33 -19z"/>
<path d="M140 1420 c0 -5 5 -10 10 -10 6 0 10 5 10 10 0 6 -4 10 -10 10 -5 0
-10 -4 -10 -10z"/>
<path d="M2100 1404 c-17 -15 -29 -29 -26 -31 2 -3 13 4 24 14 10 10 27 23 38
30 10 6 14 12 7 12 -6 1 -26 -11 -43 -25z"/>
<path d="M2160 1419 c0 -5 5 -7 10 -4 6 3 10 8 10 11 0 2 -4 4 -10 4 -5 0 -10
-5 -10 -11z"/>
<path d="M2041 1394 c0 -11 3 -14 6 -6 3 7 2 16 -1 19 -3 4 -6 -2 -5 -13z"/>
<path d="M2484 1401 c-13 -13 2 -17 44 -11 26 5 50 6 55 3 4 -2 7 0 7 5 0 8
-97 11 -106 3z"/>
<path d="M0 1390 c0 -5 5 -10 10 -10 6 0 10 5 10 10 0 6 -4 10 -10 10 -5 0
-10 -4 -10 -10z"/>
<path d="M147 1393 c-9 -2 -15 -8 -12 -13 6 -10 45 -1 45 11 0 9 -4 10 -33 2z"/>
<path d="M1702 1384 c-7 -8 -8 -14 -3 -14 10 0 25 19 20 25 -2 1 -10 -3 -17
-11z"/>
<path d="M2008 1366 c-3 -24 0 -36 8 -36 8 0 11 11 7 33 -7 44 -10 44 -15 3z"/>
<path d="M2119 1380 c-21 -17 -21 -19 -4 -13 20 6 20 6 1 -15 -11 -12 -15 -22
-11 -22 5 0 -2 -12 -16 -27 -20 -23 -18 -22 14 5 21 18 42 32 47 32 5 0 8 9 7
19 -1 13 -6 17 -17 13 -13 -5 -13 -3 -1 11 18 23 8 21 -20 -3z m31 -25 c0 -2
-10 -10 -22 -16 -21 -11 -22 -11 -9 4 13 16 31 23 31 12z"/>
<path d="M94 1365 c11 -8 27 -15 35 -15 11 0 10 4 -5 15 -10 8 -26 14 -34 14
-11 0 -10 -3 4 -14z"/>
<path d="M184 1361 c4 -5 0 -12 -6 -14 -8 -3 -6 -6 5 -6 9 -1 17 6 17 14 0 8
-5 15 -11 15 -5 0 -8 -4 -5 -9z"/>
<path d="M2500 1360 c-36 -5 -105 -7 -155 -5 -56 1 -80 -1 -65 -6 21 -7 19 -8
-15 -8 -59 1 -65 0 -65 -11 0 -7 43 -9 123 -6 184 6 267 16 267 32 0 8 -6 13
-12 13 -7 -1 -42 -5 -78 -9z"/>
<path d="M397 1335 c-30 -17 -35 -24 -22 -29 9 -3 14 -2 11 3 -3 5 6 9 19 9
28 0 58 20 49 33 -7 12 -13 11 -57 -16z m48 5 c-3 -5 -12 -10 -18 -10 -7 0 -6
4 3 10 19 12 23 12 15 0z"/>
<path d="M1119 1348 c-8 -7 -12 -12 -10 -11 2 2 11 -3 19 -10 13 -10 14 -9 8
2 -5 8 -3 17 5 22 8 5 9 9 3 9 -5 0 -17 -6 -25 -12z"/>
<path d="M1727 1345 c-4 -8 -2 -17 3 -20 6 -4 10 3 10 14 0 25 -6 27 -13 6z"/>
<path d="M2079 1345 c-1 -3 -2 -8 -3 -12 -1 -5 -5 -15 -10 -23 -7 -12 -6 -13
4 -3 13 12 23 43 14 43 -2 0 -5 -2 -5 -5z"/>
<path d="M1170 1325 c-14 -8 -20 -14 -15 -14 6 0 21 6 35 14 14 8 21 14 15 14
-5 0 -21 -6 -35 -14z"/>
<path d="M135 1320 c-3 -5 1 -10 10 -10 9 0 13 5 10 10 -3 6 -8 10 -10 10 -2
0 -7 -4 -10 -10z"/>
<path d="M188 1318 c-9 -6 -8 -8 6 -6 25 4 31 -33 6 -39 -10 -3 -21 -12 -24
-20 -5 -11 -1 -13 17 -7 34 11 67 35 67 50 0 7 7 17 16 22 11 6 2 9 -30 9 -25
0 -51 -4 -58 -9z m52 -13 c7 -9 8 -15 2 -15 -5 0 -12 7 -16 15 -3 8 -4 15 -2
15 2 0 9 -7 16 -15z"/>
<path d="M68 1313 c7 -3 16 -2 19 1 4 3 -2 6 -13 5 -11 0 -14 -3 -6 -6z"/>
<path d="M274 1294 c3 -7 -3 -18 -13 -24 -10 -5 -21 -17 -25 -27 -5 -16 -4
-16 6 -3 7 8 26 14 43 13 17 -1 24 0 18 3 -7 3 -13 13 -13 21 0 13 3 13 25 -1
14 -9 25 -13 26 -9 0 5 2 15 3 23 3 11 -7 15 -36 17 -30 1 -38 -2 -34 -13z"/>
<path d="M2018 1303 c7 -3 16 -2 19 1 4 3 -2 6 -13 5 -11 0 -14 -3 -6 -6z"/>
<path d="M0 1285 c0 -6 23 -11 52 -10 39 0 53 -4 53 -14 0 -8 6 -15 13 -17 8
-1 8 0 1 3 -6 3 0 13 16 23 25 16 25 18 6 23 -11 2 -22 0 -25 -7 -3 -7 -7 -8
-13 -1 -10 14 -103 13 -103 0z"/>
<path d="M1146 1278 c3 -4 11 -5 19 -1 21 7 19 12 -4 10 -11 0 -18 -5 -15 -9z"/>
<path d="M949 1278 c-6 -22 -5 -38 2 -38 6 0 8 -4 5 -9 -3 -5 0 -14 8 -20 10
-9 15 -8 19 3 4 10 1 13 -9 9 -10 -3 -12 0 -8 10 3 8 0 18 -5 22 -6 3 -9 11
-6 16 4 5 4 9 1 9 -3 0 -6 -1 -7 -2z"/>
<path d="M2045 1271 c-3 -5 -2 -12 3 -15 5 -3 9 1 9 9 0 17 -3 19 -12 6z"/>
<path d="M2548 1223 c6 -2 18 -2 25 0 6 3 1 5 -13 5 -14 0 -19 -2 -12 -5z"/>
<path d="M926 1212 c-3 -5 1 -9 9 -9 8 0 12 4 9 9 -3 4 -7 8 -9 8 -2 0 -6 -4
-9 -8z"/>
<path d="M1555 1210 c-3 -5 -3 -15 1 -21 6 -11 23 6 24 24 0 10 -18 9 -25 -3z"/>
<path d="M2403 1213 c9 -2 23 -2 30 0 6 3 -1 5 -18 5 -16 0 -22 -2 -12 -5z"/>
<path d="M1835 1200 c-3 -5 -1 -10 4 -10 6 0 11 5 11 10 0 6 -2 10 -4 10 -3 0
-8 -4 -11 -10z"/>
<path d="M2530 1200 c20 -13 60 -13 60 0 0 6 -17 10 -37 10 -28 0 -34 -3 -23
-10z"/>
<path d="M1614 1173 c4 -23 -6 -36 -32 -39 -32 -5 -23 -14 11 -12 39 3 44 14
26 53 -9 19 -9 18 -5 -2z"/>
<path d="M2380 1181 c8 -6 11 -11 5 -12 -5 0 -27 -2 -48 -4 -21 -2 -41 -6 -45
-10 -4 -3 60 -5 142 -3 117 2 150 6 154 17 4 11 -2 12 -29 6 -41 -10 -132 -12
-139 -4 -3 4 -16 9 -30 13 -19 6 -21 5 -10 -3z"/>
<path d="M2453 1183 c9 -2 23 -2 30 0 6 3 -1 5 -18 5 -16 0 -22 -2 -12 -5z"/>
<path d="M936 1164 c-11 -8 -16 -14 -10 -14 13 0 39 18 34 24 -3 2 -14 -2 -24
-10z"/>
<path d="M2147 1159 c-9 -5 -21 -8 -25 -5 -5 3 -9 -1 -9 -9 0 -11 6 -11 31 2
17 8 33 17 35 19 9 8 -15 3 -32 -7z"/>
<path d="M1826 1130 c8 -43 14 -51 14 -19 0 13 -5 31 -10 39 -7 11 -8 5 -4
-20z"/>
<path d="M1846 1147 c3 -10 9 -15 12 -12 3 3 0 11 -7 18 -10 9 -11 8 -5 -6z"/>
<path d="M2258 1153 c7 -3 16 -2 19 1 4 3 -2 6 -13 5 -11 0 -14 -3 -6 -6z"/>
<path d="M1760 1140 c0 -5 5 -10 11 -10 5 0 7 5 4 10 -3 6 -8 10 -11 10 -2 0
-4 -4 -4 -10z"/>
<path d="M870 1128 c0 -4 4 -8 9 -8 6 0 12 4 15 8 3 5 -1 9 -9 9 -8 0 -15 -4
-15 -9z"/>
<path d="M2476 1125 c-16 -12 -17 -15 -4 -15 9 0 18 7 22 15 7 18 6 18 -18 0z"/>
<path d="M2290 1120 c0 -5 5 -10 10 -10 6 0 10 5 10 10 0 6 -4 10 -10 10 -5 0
-10 -4 -10 -10z"/>
<path d="M1425 1070 c-3 -5 -1 -10 4 -10 6 0 11 5 11 10 0 6 -2 10 -4 10 -3 0
-8 -4 -11 -10z"/>
<path d="M1644 1058 c3 -15 9 -35 15 -45 10 -17 10 -17 10 2 0 11 -6 31 -14
45 l-15 25 4 -27z"/>
<path d="M1677 1073 c-10 -16 8 -29 42 -31 40 -3 54 -10 46 -23 -4 -5 0 -9 9
-9 8 0 21 -3 30 -6 12 -4 16 0 16 15 0 12 5 21 10 21 16 0 12 17 -6 24 -8 3
-13 2 -10 -3 9 -13 -19 -32 -38 -25 -9 3 -13 10 -10 15 3 5 -1 6 -9 3 -8 -3
-18 0 -22 5 -3 6 -11 9 -16 5 -5 -3 -16 -1 -24 6 -7 6 -16 7 -18 3z"/>
<path d="M1590 1059 c0 -5 5 -7 10 -4 6 3 10 8 10 11 0 2 -4 4 -10 4 -5 0 -10
-5 -10 -11z"/>
<path d="M1571 1024 c0 -11 3 -14 6 -6 3 7 2 16 -1 19 -3 4 -6 -2 -5 -13z"/>
<path d="M2196 1013 c-4 -18 -13 -33 -19 -33 -22 0 -122 -52 -110 -57 17 -6
123 48 134 69 6 11 9 27 6 36 -2 11 -6 5 -11 -15z"/>
<path d="M1600 1020 c0 -5 7 -7 15 -4 8 4 15 8 15 10 0 2 -7 4 -15 4 -8 0 -15
-4 -15 -10z"/>
<path d="M1838 1013 c7 -3 16 -2 19 1 4 3 -2 6 -13 5 -11 0 -14 -3 -6 -6z"/>
<path d="M1613 1003 c-18 -6 -16 -23 1 -23 17 0 30 16 19 23 -5 2 -14 2 -20 0z"/>
<path d="M1705 1000 c-3 -5 -1 -10 4 -10 6 0 11 5 11 10 0 6 -2 10 -4 10 -3 0
-8 -4 -11 -10z"/>
<path d="M1668 959 c15 -12 18 -19 10 -22 -8 -3 -5 -6 6 -6 16 -1 17 -3 5 -18
-13 -17 -13 -17 13 -1 41 27 126 42 146 26 6 -6 12 -7 12 -4 0 24 -65 52 -76
34 -3 -5 -12 -7 -20 -4 -8 3 -24 0 -35 -7 -16 -10 -21 -9 -29 2 -4 8 -19 15
-31 16 l-22 2 21 -18z"/>
<path d="M1539 949 l-24 -20 28 17 c15 9 27 18 27 20 0 8 -8 4 -31 -17z"/>
<path d="M1584 875 c-14 -11 -15 -14 -4 -14 8 0 24 6 34 14 15 11 16 15 5 15
-8 0 -24 -7 -35 -15z"/>
<path d="M2332 868 c6 -18 28 -21 28 -4 0 9 -7 16 -16 16 -9 0 -14 -5 -12 -12z"/>
<path d="M2568 823 c7 -3 16 -2 19 1 4 3 -2 6 -13 5 -11 0 -14 -3 -6 -6z"/>
<path d="M1740 815 c0 -2 8 -18 18 -34 13 -22 22 -27 32 -20 12 7 12 9 -3 9
-10 0 -16 3 -14 8 2 4 -4 15 -15 25 -10 9 -18 15 -18 12z"/>
<path d="M1778 813 c7 -3 16 -2 19 1 4 3 -2 6 -13 5 -11 0 -14 -3 -6 -6z"/>
<path d="M4 450 c0 -11 6 -20 11 -20 9 0 10 5 7 30 -3 19 -19 10 -18 -10z"/>
<path d="M263 419 c-4 -16 -12 -20 -29 -16 -13 2 -24 0 -24 -5 0 -6 -7 -8 -14
-5 -10 4 -13 1 -10 -7 3 -9 -5 -17 -23 -23 -26 -9 -27 -10 -5 -15 12 -4 20 -3
17 2 -6 10 24 22 36 14 5 -3 9 0 9 6 0 6 5 8 10 5 6 -4 8 -10 5 -15 -3 -5 -1
-11 4 -15 6 -3 8 5 5 20 -3 19 0 25 13 25 13 0 18 8 18 25 0 30 -5 32 -12 4z"/>
<path d="M52 366 c-33 -22 -45 -43 -14 -28 9 5 23 7 31 4 10 -3 12 0 8 12 -4
10 -1 16 8 16 9 0 12 -6 9 -15 -4 -8 -2 -15 3 -15 5 0 10 11 11 23 2 29 -14
30 -56 3z"/>
<path d="M290 378 c0 -18 24 -57 30 -48 4 6 14 8 23 4 9 -3 15 -10 12 -15 -3
-4 4 -13 15 -19 17 -9 20 -8 21 12 0 23 0 23 11 -2 6 -14 11 -28 10 -32 -1 -3
5 -9 14 -12 12 -4 13 -2 5 12 -7 13 -5 20 11 28 l21 12 -21 11 c-17 9 -22 9
-22 -1 0 -7 -5 -5 -11 5 -8 13 -18 17 -35 13 -25 -7 -63 8 -76 28 -4 6 -8 8
-8 4z"/>
<path d="M195 340 c3 -5 8 -10 11 -10 2 0 4 5 4 10 0 6 -5 10 -11 10 -5 0 -7
-4 -4 -10z"/>
<path d="M471 333 c-1 -16 4 -21 18 -20 12 1 17 6 14 15 -5 10 -8 11 -13 1 -6
-8 -9 -6 -13 7 -4 17 -5 16 -6 -3z"/>
<path d="M145 318 c-10 -25 -3 -39 14 -29 10 6 11 13 3 27 -10 18 -11 18 -17
2z"/>
<path d="M190 300 c-9 -6 -10 -10 -3 -10 6 0 15 5 18 10 8 12 4 12 -15 0z"/>
<path d="M442 273 c2 -11 -3 -18 -12 -18 -8 0 -21 -5 -29 -9 -11 -7 -13 -5 -8
7 3 9 2 19 -4 23 -17 10 -20 -2 -8 -30 9 -18 16 -23 24 -16 7 5 15 7 18 3 4
-3 13 0 22 7 17 14 20 50 5 50 -6 0 -10 -8 -8 -17z"/>
<path d="M485 280 c-3 -5 -1 -10 4 -10 6 0 11 5 11 10 0 6 -2 10 -4 10 -3 0
-8 -4 -11 -10z"/>
<path d="M305 270 c4 -6 11 -8 16 -5 14 9 11 15 -7 15 -8 0 -12 -5 -9 -10z"/>
<path d="M234 245 c-11 -23 -11 -24 9 -14 17 10 19 9 14 -6 -5 -11 -3 -15 5
-12 7 2 13 10 13 18 0 8 4 20 8 27 6 8 1 12 -15 12 -15 0 -27 -9 -34 -25z"/>
<path d="M75 243 c-16 -13 -17 -15 -2 -10 21 8 23 -11 2 -19 -8 -4 -15 -10
-15 -16 0 -5 12 0 26 11 15 12 33 21 40 21 7 0 16 5 20 12 5 8 2 9 -9 5 -9 -3
-19 -2 -22 3 -8 14 -17 12 -40 -7z"/>
<path d="M30 211 c0 -25 6 -27 13 -6 4 8 2 17 -3 20 -6 4 -10 -3 -10 -14z"/>
<path d="M192 187 c-5 -7 -8 -24 -5 -38 2 -17 -2 -29 -12 -33 -8 -3 -15 -1
-15 4 0 19 -30 -3 -36 -26 -5 -20 -9 -22 -20 -13 -12 9 -18 8 -29 -7 -8 -10
-15 -27 -15 -36 0 -23 49 -14 73 13 15 19 19 20 35 8 15 -13 16 -12 3 4 -12
16 -12 20 1 33 9 9 28 17 42 17 16 1 24 7 21 15 -2 6 0 12 5 12 6 0 10 5 10
11 0 6 -9 9 -20 6 -13 -3 -20 0 -20 9 0 8 7 14 15 14 22 0 18 15 -4 17 -11 1
-24 -4 -29 -10z m-37 -87 c-3 -5 -11 -10 -16 -10 -6 0 -7 5 -4 10 3 6 11 10
16 10 6 0 7 -4 4 -10z"/>
<path d="M284 171 c4 -33 13 -51 28 -51 6 0 8 13 6 32 -4 27 -3 29 8 14 7 -10
15 -13 18 -7 4 5 2 12 -4 16 -6 4 -8 10 -6 14 3 4 -8 8 -24 9 -26 1 -29 -2
-26 -27z"/>
<path d="M137 170 c-3 -11 -1 -23 4 -26 5 -3 9 6 9 20 0 31 -6 34 -13 6z"/>
<path d="M510 134 c-12 -32 -12 -34 1 -34 5 0 8 4 5 9 -3 5 1 14 9 21 17 14
20 30 5 30 -6 0 -15 -12 -20 -26z"/>
<path d="M106 131 c-4 -5 -15 -8 -26 -6 -12 2 -17 -1 -14 -9 4 -10 -2 -12 -20
-9 -22 5 -24 2 -18 -18 5 -20 7 -21 10 -6 2 11 9 16 18 13 7 -3 16 -1 20 5 3
6 12 8 19 5 7 -2 16 2 19 11 7 18 1 29 -8 14z"/>
<path d="M254 115 c5 -18 3 -23 -8 -19 -8 3 -17 0 -22 -7 -5 -8 -3 -10 6 -4
10 6 12 3 8 -13 -7 -27 -3 -27 22 -2 16 16 18 25 10 45 -12 32 -24 33 -16 0z"/>
<path d="M280 116 c0 -9 5 -16 10 -16 6 0 10 4 10 9 0 6 -4 13 -10 16 -5 3
-10 -1 -10 -9z"/>
<path d="M1587 109 c-9 -5 -21 -8 -26 -4 -5 3 -12 1 -16 -5 -10 -16 41 -12 55
5 14 17 12 18 -13 4z"/>
<path d="M175 90 c-3 -5 -1 -10 4 -10 6 0 11 5 11 10 0 6 -2 10 -4 10 -3 0 -8
-4 -11 -10z"/>
<path d="M1046 88 c3 -4 -1 -8 -9 -8 -10 0 -17 -14 -19 -37 -6 -48 0 -57 8
-14 5 23 9 29 15 19 5 -7 6 -22 3 -33 -4 -16 -3 -17 5 -5 9 12 14 13 31 3 23
-15 90 -17 90 -3 0 15 -41 38 -75 43 -22 3 -30 9 -29 24 0 11 -5 20 -12 20 -7
0 -11 -4 -8 -9z"/>
<path d="M1550 60 c0 -5 5 -10 11 -10 5 0 7 5 4 10 -3 6 -8 10 -11 10 -2 0 -4
-4 -4 -10z"/>
<path d="M1814 62 c3 -5 1 -12 -5 -14 -16 -5 1 -38 20 -38 14 1 14 2 -2 11
-14 8 -15 14 -7 24 8 10 8 15 -1 21 -7 4 -9 3 -5 -4z"/>
<path d="M1612 41 c-11 -7 -11 -9 2 -14 10 -4 16 -1 16 8 0 17 -1 17 -18 6z"/>
<path d="M34 32 c4 -7 2 -12 -3 -12 -6 0 -11 -4 -11 -10 0 -15 17 -12 23 5 4
8 1 17 -5 21 -7 4 -8 3 -4 -4z"/>
<path d="M246 24 c-3 -9 -4 -19 -1 -22 3 -3 5 1 5 9 0 11 2 11 10 -1 5 -8 10
-11 10 -5 0 6 -4 16 -9 23 -6 11 -10 10 -15 -4z"/>
<path d="M982 28 c-7 -7 -12 -16 -12 -21 0 -5 7 -1 16 8 9 9 14 18 12 20 -2 3
-10 -1 -16 -7z"/>
<path d="M1590 10 c0 -5 5 -10 10 -10 6 0 10 5 10 10 0 6 -4 10 -10 10 -5 0
-10 -4 -10 -10z"/>
<path d="M1208 3 c6 -2 18 -2 25 0 6 3 1 5 -13 5 -14 0 -19 -2 -12 -5z"/>
</g>
</svg>
